<svg xmlns="http://www.w3.org/2000/svg" version="1.1" xmlns:xlink="http://www.w3.org/1999/xlink" xmlns:svgjs="http://svgjs.dev/svgjs" width="2000" height="1247" viewBox="0 0 2000 1247"><g transform="matrix(1,0,0,1,-1.2121212121212466,0.504858299595071)"><svg viewBox="0 0 396 247" data-background-color="#ffffff" preserveAspectRatio="xMidYMid meet" height="1247" width="2000" xmlns="http://www.w3.org/2000/svg" xmlns:xlink="http://www.w3.org/1999/xlink"><g id="tight-bounds" transform="matrix(1,0,0,1,0.2400000000000091,-0.09999999999999432)"><svg viewBox="0 0 395.52 247.2" height="247.2" width="395.52"><g><svg viewBox="0 0 395.52 247.2" height="247.2" width="395.52"><g transform="matrix(1,0,0,1,0,36.91273992991219)"><svg viewBox="0 0 395.52 173.3745201401756" height="173.3745201401756" width="395.52"><g><svg viewBox="0 0 395.52 173.3745201401756" height="173.3745201401756" width="395.52"><g><svg viewBox="0 0 395.52 173.3745201401756" height="173.3745201401756" width="395.52"><g id="textblocktransform"><svg viewBox="0 0 395.52 173.3745201401756" height="173.3745201401756" width="395.52" id="textblock"><g><svg viewBox="0 0 395.52 93.50993170731708" height="93.50993170731708" width="395.52"><g transform="matrix(1,0,0,1,0,0)"><svg width="395.52" viewBox="3.85 -35.9 153.74 36.35" height="93.50993170731708" data-palette-color="#fc5c9c"><path d="M10.05-34.9Q20.2-34.25 25.98-30.13 31.75-26 31.75-18.05L31.75-18.05Q31.75-12.7 29.08-8.7 26.4-4.7 21.38-2.53 16.35-0.35 9.55-0.35L9.55-0.35 6-0.35Q4.9-0.35 4.4-0.75 3.9-1.15 3.9-2.1L3.9-2.1Q3.9-3.8 5.5-3.8L5.5-3.8 7.2-3.8 6.45-31.5 6.1-31.5Q5-31.5 4.42-31.85 3.85-32.2 3.85-33.15L3.85-33.15Q3.85-34.2 4.42-34.6 5-35 6.1-35L6.1-35 6.65-35Q7.1-35.9 8.35-35.9L8.35-35.9Q9.7-35.9 10.05-34.9L10.05-34.9ZM11-3.8Q16-4 19.83-5.73 23.65-7.45 25.8-10.6 27.95-13.75 27.95-18.05L27.95-18.05Q27.95-30.15 10.3-31.35L10.3-31.35 11-3.8ZM49.65-25.7Q52.85-25.7 54.65-23.68 56.45-21.65 56.45-18.75L56.45-18.75Q56.45-16 54.8-14.43 53.15-12.85 50.55-12.85L50.55-12.85Q49.55-12.85 49.12-13.15 48.7-13.45 48.7-14.25L48.7-14.25Q48.7-15.55 49.95-15.6L49.95-15.6Q53.2-15.9 53.2-18.8L53.2-18.8Q53.2-20.35 52.35-21.45 51.5-22.55 49.6-22.55L49.6-22.55Q47.6-22.55 46.12-20.85 44.65-19.15 43.8-16.63 42.95-14.1 42.8-11.65L42.8-11.65Q42.5-7.05 42.5-2.95L42.5-2.95Q42.5-0.9 42.12-0.25 41.75 0.4 40.65 0.4L40.65 0.4Q39.55 0.4 39.12-0.13 38.7-0.65 38.7-1.95L38.7-1.95 38.65-11.5Q38.65-14.8 38.15-20.2L38.15-20.2Q37.85-23.35 37.8-24.7L37.8-24.7Q37.75-25.5 38.25-25.93 38.75-26.35 39.65-26.35L39.65-26.35Q41.2-26.35 41.3-24.85L41.3-24.85Q41.6-21.7 41.65-18.7L41.65-18.7Q42.5-22 44.6-23.85 46.7-25.7 49.65-25.7L49.65-25.7ZM75.45 0.2Q71.35 0.2 68.37-1.58 65.4-3.35 63.87-6.28 62.35-9.2 62.35-12.65L62.35-12.65Q62.35-16.2 63.95-19.18 65.55-22.15 68.5-23.9 71.45-25.65 75.3-25.65L75.3-25.65Q78.7-25.65 81.4-24.28 84.1-22.9 85.6-20.45 87.1-18 87.1-14.85L87.1-14.85Q87.1-13.35 86.75-12.73 86.4-12.1 85-12.05L85-12.05 65.95-11.65Q65.95-9.75 67.1-7.75 68.25-5.75 70.37-4.4 72.5-3.05 75.3-3.05L75.3-3.05Q77.4-3.05 78.9-3.68 80.4-4.3 81.25-5.1 82.1-5.9 83.3-7.35L83.3-7.35Q83.65-7.8 84.4-7.8L84.4-7.8Q85.05-7.8 85.62-7.3 86.2-6.8 86.2-6.15L86.2-6.15Q86.2-5.65 85.8-5.1L85.8-5.1Q84.2-2.9 81.92-1.35 79.65 0.2 75.45 0.2L75.45 0.2ZM65.95-14.65L83.35-15.1Q83.85-15.1 83.85-15.8L83.85-15.8Q83.85-18.8 81.45-20.68 79.05-22.55 75.4-22.55L75.4-22.55Q72.65-22.55 70.5-21.15 68.35-19.75 67.15-17.85 65.95-15.95 65.95-14.65L65.95-14.65ZM117.19-3.25Q117.89-3.15 118.24-2.85 118.59-2.55 118.59-1.75L118.59-1.75Q118.59-1 118.22-0.55 117.84-0.1 117.19-0.1L117.19-0.1Q115.14-0.1 114.17-0.75 113.19-1.4 112.49-3.2L112.49-3.2Q110.24 0.45 104.49 0.45L104.49 0.45Q100.44 0.45 97.94-1.35 95.44-3.15 94.37-5.93 93.29-8.7 93.29-11.8L93.29-11.8Q93.29-15.15 94.64-18.1 95.99-21.05 98.62-22.85 101.24-24.65 104.89-24.65L104.89-24.65Q107.39-24.65 109.24-23.65 111.09-22.65 112.14-20.85L112.14-20.85 112.34-22.5Q112.44-24.35 114.04-24.35L114.04-24.35Q115.04-24.35 115.57-23.88 116.09-23.4 115.99-22.75L115.99-22.75 115.84-21.5Q115.49-19.4 115.34-17.15L115.34-17.15Q115.19-15.25 115.19-12.05L115.19-12.05 115.19-8.6Q115.19-6.45 115.32-5.43 115.44-4.4 115.84-3.85 116.24-3.3 117.19-3.25L117.19-3.25ZM111.39-8.65Q111.44-11 111.44-14.7L111.44-14.7Q111.44-17.15 110.39-18.68 109.34-20.2 107.84-20.85 106.34-21.5 104.99-21.5L104.99-21.5Q102.34-21.5 100.57-20 98.79-18.5 97.97-16.25 97.14-14 97.14-11.8L97.14-11.8Q97.14-8.3 98.87-5.53 100.59-2.75 104.54-2.75L104.54-2.75Q107.49-2.75 109.42-4.28 111.34-5.8 111.39-8.65L111.39-8.65ZM149.54-25.55Q153.99-25.55 155.79-22.6 157.59-19.65 157.59-14.35L157.59-14.35Q157.59-5.95 157.54-1.6L157.54-1.6Q157.54-0.9 157.07-0.45 156.59 0 155.74 0L155.74 0Q154.84 0 154.37-0.45 153.89-0.9 153.89-1.7L153.89-1.7 153.89-14.05Q153.89-18.55 152.92-20.55 151.94-22.55 149.29-22.55L149.29-22.55Q146.79-22.55 145.59-19.75 144.39-16.95 144.34-13.15L144.34-13.15 144.34-9.3 144.34-1.7Q144.34-0.1 142.49-0.1L142.49-0.1Q140.54-0.1 140.54-1.8L140.54-1.8 140.59-10.85 140.59-13.15Q140.54-16.7 139.17-19.53 137.79-22.35 135.39-22.35L135.39-22.35Q133.54-22.35 132.32-20.53 131.09-18.7 130.29-14.7L130.29-14.7Q129.84-12.3 129.84-7.75L129.84-7.75 129.84-4.45 129.84-1.55Q129.84-0.85 129.29-0.48 128.74-0.1 127.99-0.1L127.99-0.1Q127.14-0.15 126.67-0.53 126.19-0.9 126.19-1.6L126.19-1.6Q126.19-6.65 126.09-17.75L126.09-17.75 126.09-19.65Q126.04-20.9 125.79-21.45 125.54-22 125.09-22.45L125.09-22.45Q124.99-22.55 124.77-22.75 124.54-22.95 124.54-23.25L124.54-23.25Q124.54-24 125.09-24.5 125.64-25 126.34-25L126.34-25Q126.69-25 127.17-24.63 127.64-24.25 127.99-23.75L127.99-23.75Q128.54-23 128.77-22.25 128.99-21.5 128.99-20.45L128.99-20.45 128.99-19.6Q129.84-22.45 131.54-23.93 133.24-25.4 135.59-25.4L135.59-25.4Q140.74-25.4 142.34-19.6L142.34-19.6Q143.09-22.5 144.94-24.03 146.79-25.55 149.54-25.55L149.54-25.55Z" opacity="1" transform="matrix(1,0,0,1,0,0)" fill="#fc5c9c" class="undefined-text-0" data-fill-palette-color="primary" id="text-0"></path></svg></g></svg></g><g transform="matrix(1,0,0,1,181.78242567108197,115.58538234505366)"><svg viewBox="0 0 213.73757432891801 57.78913779512195" height="57.78913779512195" width="213.73757432891801"><g transform="matrix(1,0,0,1,0,0)"><svg width="213.73757432891801" viewBox="2.5 -38.2 142.94 38.650000000000006" height="57.78913779512195" data-palette-color="#ffa1c6"><path d="M32-14.15Q34-14.15 34-12.25L34-12.25Q34-8.85 32.18-6.03 30.35-3.2 26.98-1.53 23.6 0.15 19.1 0.15L19.1 0.15Q14.7 0.15 10.9-1.7 7.1-3.55 4.8-7.35 2.5-11.15 2.5-16.75L2.5-16.75Q2.5-22.2 4.73-26.53 6.95-30.85 10.73-33.25 14.5-35.65 18.9-35.65L18.9-35.65Q21.95-35.65 24.4-34.5 26.85-33.35 28.5-31.25L28.5-31.25 28.45-33.7Q28.45-34.5 28.93-34.95 29.4-35.4 30.35-35.4L30.35-35.4Q32.15-35.4 32.15-33.55L32.15-33.55 32.15-27.95Q32.15-25.7 30.35-25.7L30.35-25.7Q29.7-25.7 29.25-25.95 28.8-26.2 28.4-26.75L28.4-26.75Q24.45-32.1 18.9-32.1L18.9-32.1Q15.5-32.1 12.6-30.08 9.7-28.05 8.03-24.53 6.35-21 6.35-16.6L6.35-16.6Q6.35-12.25 8.22-9.28 10.1-6.3 13.08-4.85 16.05-3.4 19.4-3.4L19.4-3.4Q22.1-3.4 24.55-4.35 27-5.3 28.55-7.28 30.1-9.25 30.1-12.25L30.1-12.25Q30.1-13.15 30.6-13.65 31.1-14.15 32-14.15L32-14.15ZM62.5-3.25Q63.2-3.15 63.55-2.85 63.9-2.55 63.9-1.75L63.9-1.75Q63.9-1 63.52-0.55 63.15-0.1 62.5-0.1L62.5-0.1Q60.45-0.1 59.47-0.75 58.5-1.4 57.8-3.2L57.8-3.2Q55.55 0.45 49.8 0.45L49.8 0.45Q45.75 0.45 43.25-1.35 40.75-3.15 39.67-5.93 38.6-8.7 38.6-11.8L38.6-11.8Q38.6-15.15 39.95-18.1 41.3-21.05 43.92-22.85 46.55-24.65 50.2-24.65L50.2-24.65Q52.7-24.65 54.55-23.65 56.4-22.65 57.45-20.85L57.45-20.85 57.65-22.5Q57.75-24.35 59.35-24.35L59.35-24.35Q60.35-24.35 60.87-23.88 61.4-23.4 61.3-22.75L61.3-22.75 61.15-21.5Q60.8-19.4 60.65-17.15L60.65-17.15Q60.5-15.25 60.5-12.05L60.5-12.05 60.5-8.6Q60.5-6.45 60.62-5.43 60.75-4.4 61.15-3.85 61.55-3.3 62.5-3.25L62.5-3.25ZM56.7-8.65Q56.75-11 56.75-14.7L56.75-14.7Q56.75-17.15 55.7-18.68 54.65-20.2 53.15-20.85 51.65-21.5 50.3-21.5L50.3-21.5Q47.65-21.5 45.87-20 44.1-18.5 43.27-16.25 42.45-14 42.45-11.8L42.45-11.8Q42.45-8.3 44.17-5.53 45.9-2.75 49.85-2.75L49.85-2.75Q52.8-2.75 54.72-4.28 56.65-5.8 56.7-8.65L56.7-8.65ZM73.45 0.25Q72.65 0.25 72.1-0.15 71.55-0.55 71.55-1.15L71.55-1.15 71.55-36.5Q71.55-37.3 72.05-37.75 72.55-38.2 73.45-38.2L73.45-38.2Q74.35-38.2 74.87-37.77 75.4-37.35 75.4-36.5L75.4-36.5 75.3-18.8 78.95-20.85Q86.5-25.1 88.95-26.6L88.95-26.6Q89.7-27.05 90.1-27.05L90.1-27.05Q90.8-27.05 91.32-26.33 91.85-25.6 91.85-24.75L91.85-24.75Q91.85-24.2 90.75-23.55L90.75-23.55 75.35-14.4 90.95-3.3Q91.45-2.9 91.45-2.2L91.45-2.2Q91.45-1.45 90.82-0.83 90.2-0.2 89.55-0.2L89.55-0.2Q88.95-0.2 88.05-0.75L88.05-0.75 82.9-4.35Q79.25-7.05 75.35-9.7L75.35-9.7 75.3-1.2Q75.3-0.55 74.77-0.15 74.25 0.25 73.45 0.25L73.45 0.25ZM109.39 0.2Q105.29 0.2 102.32-1.58 99.34-3.35 97.82-6.28 96.29-9.2 96.29-12.65L96.29-12.65Q96.29-16.2 97.89-19.18 99.49-22.15 102.44-23.9 105.39-25.65 109.24-25.65L109.24-25.65Q112.64-25.65 115.34-24.28 118.04-22.9 119.54-20.45 121.04-18 121.04-14.85L121.04-14.85Q121.04-13.35 120.69-12.73 120.34-12.1 118.94-12.05L118.94-12.05 99.89-11.65Q99.89-9.75 101.04-7.75 102.19-5.75 104.32-4.4 106.44-3.05 109.24-3.05L109.24-3.05Q111.34-3.05 112.84-3.68 114.34-4.3 115.19-5.1 116.04-5.9 117.24-7.35L117.24-7.35Q117.59-7.8 118.34-7.8L118.34-7.8Q118.99-7.8 119.57-7.3 120.14-6.8 120.14-6.15L120.14-6.15Q120.14-5.65 119.74-5.1L119.74-5.1Q118.14-2.9 115.87-1.35 113.59 0.2 109.39 0.2L109.39 0.2ZM99.89-14.65L117.29-15.1Q117.79-15.1 117.79-15.8L117.79-15.8Q117.79-18.8 115.39-20.68 112.99-22.55 109.34-22.55L109.34-22.55Q106.59-22.55 104.44-21.15 102.29-19.75 101.09-17.85 99.89-15.95 99.89-14.65L99.89-14.65ZM136.59 0.25Q133.19 0.25 130.79-1.43 128.39-3.1 127.04-5.7L127.04-5.7Q126.69-6.4 126.69-6.65L126.69-6.65Q126.69-7.35 127.32-7.88 127.94-8.4 128.69-8.4L128.69-8.4Q129.19-8.4 129.47-8.13 129.74-7.85 130.24-7.15L130.24-7.15Q131.49-5.25 132.89-4.13 134.29-3 136.59-3L136.59-3Q138.74-3 140.17-4.05 141.59-5.1 141.59-6.7L141.59-6.7Q141.59-7.85 140.82-8.65 140.04-9.45 138.92-9.95 137.79-10.45 135.69-11.2L135.69-11.2Q133.04-12.15 131.42-12.93 129.79-13.7 128.64-15.13 127.49-16.55 127.49-18.75L127.49-18.75Q127.49-20.7 128.57-22.38 129.64-24.05 131.64-25.05 133.64-26.05 136.24-26.05L136.24-26.05Q138.84-26.05 140.84-25.05 142.84-24.05 143.94-22.4 145.04-20.75 145.04-18.75L145.04-18.75Q145.04-17.75 144.67-17.3 144.29-16.85 143.34-16.85L143.34-16.85Q142.34-16.85 142.02-17.23 141.69-17.6 141.64-18.2L141.64-18.2Q141.44-20.55 139.99-21.68 138.54-22.8 136.24-22.8L136.24-22.8Q133.54-22.8 132.42-21.53 131.29-20.25 131.29-18.8L131.29-18.8Q131.29-17.1 132.77-16.18 134.24-15.25 137.34-14.15L137.34-14.15Q139.99-13.2 141.59-12.4 143.19-11.6 144.32-10.2 145.44-8.8 145.44-6.7L145.44-6.7Q145.44-3.45 142.89-1.6 140.34 0.25 136.59 0.25L136.59 0.25Z" opacity="1" transform="matrix(1,0,0,1,0,0)" fill="#ffa1c6" class="undefined-text-1" data-fill-palette-color="secondary" id="text-1"></path></svg></g></svg></g></svg></g></svg></g></svg></g></svg></g></svg></g><defs></defs></svg><rect width="395.52" height="247.2" fill="none" stroke="none" visibility="hidden"></rect></g></svg></g></svg>