<svg xmlns="http://www.w3.org/2000/svg" version="1.1" xmlns:xlink="http://www.w3.org/1999/xlink" xmlns:svgjs="http://svgjs.dev/svgjs" width="2000" height="858" viewBox="0 0 2000 858"><g transform="matrix(1,0,0,1,-1.2121212121212466,-0.3487532243524356)"><svg viewBox="0 0 396 170" data-background-color="#ffffff" preserveAspectRatio="xMidYMid meet" height="858" width="2000" xmlns="http://www.w3.org/2000/svg" xmlns:xlink="http://www.w3.org/1999/xlink"><g id="tight-bounds" transform="matrix(1,0,0,1,0.2400000000000091,0.06910028920735556)"><svg viewBox="0 0 395.52 169.8617994215853" height="169.8617994215853" width="395.52"><g><svg viewBox="0 0 397.4975999999999 170.7111084186932" height="169.8617994215853" width="395.52"><g><rect width="397.4975999999999" height="4.321579086730833" x="0" y="107.15534146848901" fill="#fc5c9c" opacity="1" stroke-width="0" stroke="transparent" fill-opacity="1" class="rect-o-0" data-fill-palette-color="primary" rx="1%" id="o-0" data-palette-color="#fc5c9c"></rect></g><g transform="matrix(1,0,0,1,0.9887999999999693,122.78995481367753)"><svg viewBox="0 0 395.52 47.92115360501567" height="47.92115360501567" width="395.52"><g id="textblocktransform"><svg viewBox="0 0 395.52 47.92115360501567" height="47.92115360501567" width="395.52" id="textblock"><g><svg viewBox="0 0 395.52 47.92115360501567" height="47.92115360501567" width="395.52"><g transform="matrix(1,0,0,1,0,0)"><svg width="395.52" viewBox="3.8499999046325684 -38.20000076293945 318.97998046875 38.650001525878906" height="47.92115360501567" data-palette-color="#fc5c9c"><path d="M10.05-34.9Q20.2-34.25 25.98-30.13 31.75-26 31.75-18.05L31.75-18.05Q31.75-12.7 29.08-8.7 26.4-4.7 21.38-2.53 16.35-0.35 9.55-0.35L9.55-0.35 6-0.35Q4.9-0.35 4.4-0.75 3.9-1.15 3.9-2.1L3.9-2.1Q3.9-3.8 5.5-3.8L5.5-3.8 7.2-3.8 6.45-31.5 6.1-31.5Q5-31.5 4.42-31.85 3.85-32.2 3.85-33.15L3.85-33.15Q3.85-34.2 4.42-34.6 5-35 6.1-35L6.1-35 6.65-35Q7.1-35.9 8.35-35.9L8.35-35.9Q9.7-35.9 10.05-34.9L10.05-34.9ZM11-3.8Q16-4 19.83-5.73 23.65-7.45 25.8-10.6 27.95-13.75 27.95-18.05L27.95-18.05Q27.95-30.15 10.3-31.35L10.3-31.35 11-3.8ZM49.65-25.7Q52.85-25.7 54.65-23.68 56.45-21.65 56.45-18.75L56.45-18.75Q56.45-16 54.8-14.43 53.15-12.85 50.55-12.85L50.55-12.85Q49.55-12.85 49.12-13.15 48.7-13.45 48.7-14.25L48.7-14.25Q48.7-15.55 49.95-15.6L49.95-15.6Q53.2-15.9 53.2-18.8L53.2-18.8Q53.2-20.35 52.35-21.45 51.5-22.55 49.6-22.55L49.6-22.55Q47.6-22.55 46.12-20.85 44.65-19.15 43.8-16.63 42.95-14.1 42.8-11.65L42.8-11.65Q42.5-7.05 42.5-2.95L42.5-2.95Q42.5-0.9 42.12-0.25 41.75 0.4 40.65 0.4L40.65 0.4Q39.55 0.4 39.12-0.13 38.7-0.65 38.7-1.95L38.7-1.95 38.65-11.5Q38.65-14.8 38.15-20.2L38.15-20.2Q37.85-23.35 37.8-24.7L37.8-24.7Q37.75-25.5 38.25-25.93 38.75-26.35 39.65-26.35L39.65-26.35Q41.2-26.35 41.3-24.85L41.3-24.85Q41.6-21.7 41.65-18.7L41.65-18.7Q42.5-22 44.6-23.85 46.7-25.7 49.65-25.7L49.65-25.7ZM75.45 0.2Q71.35 0.2 68.37-1.58 65.4-3.35 63.87-6.28 62.35-9.2 62.35-12.65L62.35-12.65Q62.35-16.2 63.95-19.18 65.55-22.15 68.5-23.9 71.45-25.65 75.3-25.65L75.3-25.65Q78.7-25.65 81.4-24.28 84.1-22.9 85.6-20.45 87.1-18 87.1-14.85L87.1-14.85Q87.1-13.35 86.75-12.73 86.4-12.1 85-12.05L85-12.05 65.95-11.65Q65.95-9.75 67.1-7.75 68.25-5.75 70.37-4.4 72.5-3.05 75.3-3.05L75.3-3.05Q77.4-3.05 78.9-3.68 80.4-4.3 81.25-5.1 82.1-5.9 83.3-7.35L83.3-7.35Q83.65-7.8 84.4-7.8L84.4-7.8Q85.05-7.8 85.62-7.3 86.2-6.8 86.2-6.15L86.2-6.15Q86.2-5.65 85.8-5.1L85.8-5.1Q84.2-2.9 81.92-1.35 79.65 0.2 75.45 0.2L75.45 0.2ZM65.95-14.65L83.35-15.1Q83.85-15.1 83.85-15.8L83.85-15.8Q83.85-18.8 81.45-20.68 79.05-22.55 75.4-22.55L75.4-22.55Q72.65-22.55 70.5-21.15 68.35-19.75 67.15-17.85 65.95-15.95 65.95-14.65L65.95-14.65ZM117.19-3.25Q117.89-3.15 118.24-2.85 118.59-2.55 118.59-1.75L118.59-1.75Q118.59-1 118.22-0.55 117.84-0.1 117.19-0.1L117.19-0.1Q115.14-0.1 114.17-0.75 113.19-1.4 112.49-3.2L112.49-3.2Q110.24 0.45 104.49 0.45L104.49 0.45Q100.44 0.45 97.94-1.35 95.44-3.15 94.37-5.93 93.29-8.7 93.29-11.8L93.29-11.8Q93.29-15.15 94.64-18.1 95.99-21.05 98.62-22.85 101.24-24.65 104.89-24.65L104.89-24.65Q107.39-24.65 109.24-23.65 111.09-22.65 112.14-20.85L112.14-20.85 112.34-22.5Q112.44-24.35 114.04-24.35L114.04-24.35Q115.04-24.35 115.57-23.88 116.09-23.4 115.99-22.75L115.99-22.75 115.84-21.5Q115.49-19.4 115.34-17.15L115.34-17.15Q115.19-15.25 115.19-12.05L115.19-12.05 115.19-8.6Q115.19-6.45 115.32-5.43 115.44-4.4 115.84-3.85 116.24-3.3 117.19-3.25L117.19-3.25ZM111.39-8.65Q111.44-11 111.44-14.7L111.44-14.7Q111.44-17.15 110.39-18.68 109.34-20.2 107.84-20.85 106.34-21.5 104.99-21.5L104.99-21.5Q102.34-21.5 100.57-20 98.79-18.5 97.97-16.25 97.14-14 97.14-11.8L97.14-11.8Q97.14-8.3 98.87-5.53 100.59-2.75 104.54-2.75L104.54-2.75Q107.49-2.75 109.42-4.28 111.34-5.8 111.39-8.65L111.39-8.65ZM149.54-25.55Q153.99-25.55 155.79-22.6 157.59-19.65 157.59-14.35L157.59-14.35Q157.59-5.95 157.54-1.6L157.54-1.6Q157.54-0.9 157.07-0.45 156.59 0 155.74 0L155.74 0Q154.84 0 154.37-0.45 153.89-0.9 153.89-1.7L153.89-1.7 153.89-14.05Q153.89-18.55 152.92-20.55 151.94-22.55 149.29-22.55L149.29-22.55Q146.79-22.55 145.59-19.75 144.39-16.95 144.34-13.15L144.34-13.15 144.34-9.3 144.34-1.7Q144.34-0.1 142.49-0.1L142.49-0.1Q140.54-0.1 140.54-1.8L140.54-1.8 140.59-10.85 140.59-13.15Q140.54-16.7 139.17-19.53 137.79-22.35 135.39-22.35L135.39-22.35Q133.54-22.35 132.32-20.53 131.09-18.7 130.29-14.7L130.29-14.7Q129.84-12.3 129.84-7.75L129.84-7.75 129.84-4.45 129.84-1.55Q129.84-0.85 129.29-0.48 128.74-0.1 127.99-0.1L127.99-0.1Q127.14-0.15 126.67-0.53 126.19-0.9 126.19-1.6L126.19-1.6Q126.19-6.65 126.09-17.75L126.09-17.75 126.09-19.65Q126.04-20.9 125.79-21.45 125.54-22 125.09-22.45L125.09-22.45Q124.99-22.55 124.77-22.75 124.54-22.95 124.54-23.25L124.54-23.25Q124.54-24 125.09-24.5 125.64-25 126.34-25L126.34-25Q126.69-25 127.17-24.63 127.64-24.25 127.99-23.75L127.99-23.75Q128.54-23 128.77-22.25 128.99-21.5 128.99-20.45L128.99-20.45 128.99-19.6Q129.84-22.45 131.54-23.93 133.24-25.4 135.59-25.4L135.59-25.4Q140.74-25.4 142.34-19.6L142.34-19.6Q143.09-22.5 144.94-24.03 146.79-25.55 149.54-25.55L149.54-25.55ZM209.39-14.15Q211.39-14.15 211.39-12.25L211.39-12.25Q211.39-8.85 209.56-6.03 207.74-3.2 204.36-1.53 200.99 0.15 196.49 0.15L196.49 0.15Q192.09 0.15 188.29-1.7 184.49-3.55 182.19-7.35 179.89-11.15 179.89-16.75L179.89-16.75Q179.89-22.2 182.11-26.53 184.34-30.85 188.11-33.25 191.89-35.65 196.29-35.65L196.29-35.65Q199.34-35.65 201.79-34.5 204.24-33.35 205.89-31.25L205.89-31.25 205.84-33.7Q205.84-34.5 206.31-34.95 206.79-35.4 207.74-35.4L207.74-35.4Q209.54-35.4 209.54-33.55L209.54-33.55 209.54-27.95Q209.54-25.7 207.74-25.7L207.74-25.7Q207.09-25.7 206.64-25.95 206.19-26.2 205.79-26.75L205.79-26.75Q201.84-32.1 196.29-32.1L196.29-32.1Q192.89-32.1 189.99-30.08 187.09-28.05 185.41-24.53 183.74-21 183.74-16.6L183.74-16.6Q183.74-12.25 185.61-9.28 187.49-6.3 190.46-4.85 193.44-3.4 196.79-3.4L196.79-3.4Q199.49-3.4 201.94-4.35 204.39-5.3 205.94-7.28 207.49-9.25 207.49-12.25L207.49-12.25Q207.49-13.15 207.99-13.65 208.49-14.15 209.39-14.15L209.39-14.15ZM239.88-3.25Q240.58-3.15 240.93-2.85 241.28-2.55 241.28-1.75L241.28-1.75Q241.28-1 240.91-0.55 240.53-0.1 239.88-0.1L239.88-0.1Q237.83-0.1 236.86-0.75 235.88-1.4 235.18-3.2L235.18-3.2Q232.93 0.45 227.18 0.45L227.18 0.45Q223.13 0.45 220.63-1.35 218.13-3.15 217.06-5.93 215.98-8.7 215.98-11.8L215.98-11.8Q215.98-15.15 217.33-18.1 218.68-21.05 221.31-22.85 223.93-24.65 227.58-24.65L227.58-24.65Q230.08-24.65 231.93-23.65 233.78-22.65 234.83-20.85L234.83-20.85 235.03-22.5Q235.13-24.35 236.73-24.35L236.73-24.35Q237.73-24.35 238.26-23.88 238.78-23.4 238.68-22.75L238.68-22.75 238.53-21.5Q238.18-19.4 238.03-17.15L238.03-17.15Q237.88-15.25 237.88-12.05L237.88-12.05 237.88-8.6Q237.88-6.45 238.01-5.43 238.13-4.4 238.53-3.85 238.93-3.3 239.88-3.25L239.88-3.25ZM234.08-8.65Q234.13-11 234.13-14.7L234.13-14.7Q234.13-17.15 233.08-18.68 232.03-20.2 230.53-20.85 229.03-21.5 227.68-21.5L227.68-21.5Q225.03-21.5 223.26-20 221.48-18.5 220.66-16.25 219.83-14 219.83-11.8L219.83-11.8Q219.83-8.3 221.56-5.53 223.28-2.75 227.23-2.75L227.23-2.75Q230.18-2.75 232.11-4.28 234.03-5.8 234.08-8.65L234.08-8.65ZM250.83 0.25Q250.03 0.25 249.48-0.15 248.93-0.55 248.93-1.15L248.93-1.15 248.93-36.5Q248.93-37.3 249.43-37.75 249.93-38.2 250.83-38.2L250.83-38.2Q251.73-38.2 252.26-37.77 252.78-37.35 252.78-36.5L252.78-36.5 252.68-18.8 256.33-20.85Q263.88-25.1 266.33-26.6L266.33-26.6Q267.08-27.05 267.48-27.05L267.48-27.05Q268.18-27.05 268.71-26.33 269.23-25.6 269.23-24.75L269.23-24.75Q269.23-24.2 268.13-23.55L268.13-23.55 252.73-14.4 268.33-3.3Q268.83-2.9 268.83-2.2L268.83-2.2Q268.83-1.45 268.21-0.83 267.58-0.2 266.93-0.2L266.93-0.2Q266.33-0.2 265.43-0.75L265.43-0.75 260.28-4.35Q256.63-7.05 252.73-9.7L252.73-9.7 252.68-1.2Q252.68-0.55 252.16-0.15 251.63 0.25 250.83 0.25L250.83 0.25ZM286.78 0.2Q282.68 0.2 279.7-1.58 276.73-3.35 275.2-6.28 273.68-9.2 273.68-12.65L273.68-12.65Q273.68-16.2 275.28-19.18 276.88-22.15 279.83-23.9 282.78-25.65 286.63-25.65L286.63-25.65Q290.03-25.65 292.73-24.28 295.43-22.9 296.93-20.45 298.43-18 298.43-14.85L298.43-14.85Q298.43-13.35 298.08-12.73 297.73-12.1 296.33-12.05L296.33-12.05 277.28-11.65Q277.28-9.75 278.43-7.75 279.58-5.75 281.7-4.4 283.83-3.05 286.63-3.05L286.63-3.05Q288.73-3.05 290.23-3.68 291.73-4.3 292.58-5.1 293.43-5.9 294.63-7.35L294.63-7.35Q294.98-7.8 295.73-7.8L295.73-7.8Q296.38-7.8 296.95-7.3 297.53-6.8 297.53-6.15L297.53-6.15Q297.53-5.65 297.13-5.1L297.13-5.1Q295.53-2.9 293.25-1.35 290.98 0.2 286.78 0.2L286.78 0.2ZM277.28-14.65L294.68-15.1Q295.18-15.1 295.18-15.8L295.18-15.8Q295.18-18.8 292.78-20.68 290.38-22.55 286.73-22.55L286.73-22.55Q283.98-22.55 281.83-21.15 279.68-19.75 278.48-17.85 277.28-15.95 277.28-14.65L277.28-14.65ZM313.98 0.25Q310.58 0.25 308.18-1.43 305.78-3.1 304.43-5.7L304.43-5.7Q304.08-6.4 304.08-6.65L304.08-6.65Q304.08-7.35 304.7-7.88 305.33-8.4 306.08-8.4L306.08-8.4Q306.58-8.4 306.85-8.13 307.13-7.85 307.63-7.15L307.63-7.15Q308.88-5.25 310.28-4.13 311.68-3 313.98-3L313.98-3Q316.13-3 317.55-4.05 318.98-5.1 318.98-6.7L318.98-6.7Q318.98-7.85 318.2-8.65 317.43-9.45 316.3-9.95 315.18-10.45 313.08-11.2L313.08-11.2Q310.43-12.15 308.8-12.93 307.18-13.7 306.03-15.13 304.88-16.55 304.88-18.75L304.88-18.75Q304.88-20.7 305.95-22.38 307.03-24.05 309.03-25.05 311.03-26.05 313.63-26.05L313.63-26.05Q316.23-26.05 318.23-25.05 320.23-24.05 321.33-22.4 322.43-20.75 322.43-18.75L322.43-18.75Q322.43-17.75 322.05-17.3 321.68-16.85 320.73-16.85L320.73-16.85Q319.73-16.85 319.4-17.23 319.08-17.6 319.03-18.2L319.03-18.2Q318.83-20.55 317.38-21.68 315.93-22.8 313.63-22.8L313.63-22.8Q310.93-22.8 309.8-21.53 308.68-20.25 308.68-18.8L308.68-18.8Q308.68-17.1 310.15-16.18 311.63-15.25 314.73-14.15L314.73-14.15Q317.38-13.2 318.98-12.4 320.58-11.6 321.7-10.2 322.83-8.8 322.83-6.7L322.83-6.7Q322.83-3.45 320.28-1.6 317.73 0.25 313.98 0.25L313.98 0.25Z" opacity="1" transform="matrix(1,0,0,1,0,0)" fill="#fc5c9c" class="undefined-text-0" data-fill-palette-color="primary" id="text-0"></path></svg></g></svg></g></svg></g></svg></g><g transform="matrix(1,0,0,1,136.28189198124485,0)"><svg viewBox="0 0 124.93381603751021 95.84230721003134" height="95.84230721003134" width="124.93381603751021"><g><svg xmlns="http://www.w3.org/2000/svg" xmlns:xlink="http://www.w3.org/1999/xlink" version="1.1" x="0" y="0" viewBox="9.899999618530273 26.799999237060547 80.19999694824219 61.52499771118164" style="enable-background:new 0 0 100 100;" xml:space="preserve" height="95.84230721003134" width="124.93381603751021" class="icon-icon-0" data-fill-palette-color="accent" id="icon-0"><g fill="#ffa1c6" data-fill-palette-color="accent"><path d="M85.6 63.4c0-1.7-1.4-3.1-3.1-3.1H17.4c-1.7 0-3.1 1.4-3.1 3.1v18.9h71.3V63.4zM84.4 64.9c-2.4 0-3.6 1.3-5 2.8-1.5 1.6-3.2 3.4-6.5 3.4s-5-1.8-6.5-3.4c-1.4-1.5-2.6-2.8-5-2.8-2.4 0-3.6 1.3-4.9 2.8-1.5 1.6-3.2 3.4-6.5 3.4-3.3 0-5-1.8-6.5-3.4-1.4-1.5-2.5-2.8-4.9-2.8-2.4 0-3.6 1.3-4.9 2.8-1.5 1.6-3.2 3.4-6.5 3.4-3.3 0-5-1.8-6.5-3.4-1.4-1.5-2.5-2.8-4.9-2.8v-2.2c3.3 0 5 1.8 6.5 3.4 1.4 1.5 2.5 2.8 4.9 2.8 2.4 0 3.6-1.3 4.9-2.8 1.5-1.6 3.2-3.4 6.5-3.4 3.3 0 5 1.8 6.5 3.4 1.4 1.5 2.5 2.8 4.9 2.8 2.4 0 3.6-1.3 4.9-2.8 1.5-1.6 3.2-3.4 6.5-3.4 3.3 0 5 1.8 6.5 3.4 1.4 1.5 2.6 2.8 5 2.8s3.6-1.3 5-2.8c1.5-1.6 3.2-3.4 6.5-3.4V64.9z" fill="#ffa1c6" data-fill-palette-color="accent"></path><path d="M79.7 43.8c0-1.7-1.4-3.1-3.1-3.1H23.3c-1.7 0-3.1 1.4-3.1 3.1v15.3h59.5V43.8zM78.9 46.3c-2 0-3 1.1-4.2 2.3-1.3 1.4-2.7 2.9-5.5 2.9s-4.2-1.5-5.5-2.9c-1.1-1.2-2.1-2.3-4.2-2.3-2 0-3 1.1-4.2 2.3-1.3 1.4-2.7 2.9-5.5 2.9-2.8 0-4.2-1.5-5.5-2.9-1.1-1.2-2.1-2.3-4.2-2.3-2 0-3 1.1-4.2 2.3-1.3 1.4-2.7 2.9-5.5 2.9-2.8 0-4.2-1.5-5.5-2.9-1.1-1.2-2.1-2.3-4.2-2.3v-1.8c2.8 0 4.2 1.5 5.5 2.9 1.1 1.2 2.1 2.3 4.2 2.3 2 0 3-1.1 4.2-2.3 1.3-1.4 2.7-2.9 5.5-2.9 2.8 0 4.2 1.5 5.5 2.9 1.1 1.2 2.1 2.3 4.2 2.3 2 0 3-1.1 4.2-2.3 1.3-1.4 2.7-2.9 5.5-2.9 2.8 0 4.2 1.5 5.5 2.9 1.1 1.2 2.1 2.3 4.2 2.3s3-1.1 4.2-2.3c1.3-1.4 2.7-2.9 5.5-2.9V46.3z" fill="#ffa1c6" data-fill-palette-color="accent"></path><path d="M70.2 29.9c0-1.7-1.4-3.1-3.1-3.1H32.8c-1.7 0-3.1 1.4-3.1 3.1v9.4h40.5V29.9zM69.6 30.3c-1.4 0-2 0.7-2.8 1.6-0.9 0.9-1.8 2-3.7 2-1.9 0-2.9-1-3.7-2-0.8-0.8-1.5-1.6-2.8-1.6-1.4 0-2 0.7-2.8 1.6-0.8 0.9-1.8 2-3.7 2-1.9 0-2.9-1-3.7-2-0.8-0.8-1.5-1.6-2.8-1.6-1.4 0-2 0.7-2.8 1.6-0.8 0.9-1.8 2-3.7 2-1.9 0-2.9-1-3.7-2-0.8-0.8-1.4-1.6-2.8-1.6v-1.2c1.9 0 2.9 1 3.7 2 0.8 0.8 1.4 1.6 2.8 1.6 1.4 0 2-0.7 2.8-1.6 0.8-0.9 1.8-2 3.7-2 1.9 0 2.9 1 3.7 2 0.8 0.8 1.5 1.6 2.8 1.6 1.4 0 2-0.7 2.8-1.6 0.8-0.9 1.8-2 3.7-2 1.9 0 2.9 1 3.7 2 0.8 0.8 1.5 1.6 2.8 1.6 1.4 0 2-0.7 2.8-1.6 0.9-0.9 1.8-2 3.7-2V30.3z" fill="#ffa1c6" data-fill-palette-color="accent"></path><path d="M9.9 84v1.3l28.7 2.5c7.5 0.7 15.1 0.7 22.7 0l28.8-2.5V84H9.9z" fill="#ffa1c6" data-fill-palette-color="accent"></path></g></svg></g></svg></g><g></g></svg></g><defs></defs></svg><rect width="395.52" height="169.8617994215853" fill="none" stroke="none" visibility="hidden"></rect></g></svg></g></svg>