<svg xmlns="http://www.w3.org/2000/svg" version="1.1" xmlns:xlink="http://www.w3.org/1999/xlink" xmlns:svgjs="http://svgjs.dev/svgjs" width="2000" height="1157" viewBox="0 0 2000 1157"><g transform="matrix(1,0,0,1,0.21333333333336668,0.6159025576035901)"><svg viewBox="0 0 375 217" data-background-color="#ffffff" preserveAspectRatio="xMidYMid meet" height="1157" width="2000" xmlns="http://www.w3.org/2000/svg" xmlns:xlink="http://www.w3.org/1999/xlink"><g id="tight-bounds" transform="matrix(1,0,0,1,-0.03976000000000113,-0.11551499999998782)"><svg viewBox="0 0 375.07953 217.23095" height="217.23095" width="375.07953"><g><svg></svg></g><g><svg viewBox="0 0 375.07953 217.23095" height="217.23095" width="375.07953"><g transform="matrix(1,0,0,1,-10.22024,-18.580970000000008)"><path d="M10.22 228.619v-210.038h375.08v210.038h-11.952v-6.746h5.206v-196.546h-361.588v196.546h201.911l0 6.746z" fill="#fc5c9c" fill-rule="nonzero" stroke="none" stroke-width="1" stroke-linecap="butt" stroke-linejoin="miter" stroke-miterlimit="10" stroke-dasharray="" stroke-dashoffset="0" font-family="none" font-weight="none" font-size="none" text-anchor="none" style="mix-blend-mode: normal" data-fill-palette-color="tertiary"></path><g><path d="M262.64 224.169c1.063 0 1.595 0.505 1.595 1.515v0c0 1.808-0.484 3.461-1.451 4.961-0.973 1.504-2.355 2.701-4.147 3.588-1.797 0.893-3.891 1.34-6.284 1.34v0c-2.339 0-4.519-0.492-6.539-1.476-2.02-0.984-3.642-2.485-4.864-4.505-1.223-2.02-1.834-4.519-1.834-7.496v0c0-2.897 0.593-5.497 1.778-7.799 1.18-2.297 2.775-4.083 4.785-5.359 2.004-1.276 4.176-1.914 6.515-1.913v0c1.621 0 3.083 0.306 4.385 0.917 1.302 0.611 2.392 1.475 3.27 2.591v0l-0.04-1.954c0-0.425 0.128-0.758 0.383-0.996 0.25-0.239 0.627-0.359 1.132-0.359v0c0.957 0 1.435 0.492 1.436 1.475v0 4.466c0 1.196-0.478 1.794-1.436 1.794v0c-0.346 0-0.638-0.066-0.877-0.199-0.239-0.133-0.465-0.346-0.678-0.638v0c-2.1-2.844-4.625-4.266-7.575-4.267v0c-1.808 0-3.482 0.537-5.024 1.611-1.542 1.079-2.756 2.554-3.645 4.426-0.893 1.877-1.34 3.985-1.339 6.324v0c0 2.313 0.497 4.258 1.491 5.837 0.999 1.584 2.291 2.762 3.875 3.533 1.579 0.771 3.259 1.156 5.04 1.156v0c1.435 0 2.804-0.253 4.107-0.758 1.302-0.505 2.366-1.284 3.19-2.336 0.824-1.047 1.236-2.368 1.236-3.964v0c0-0.478 0.133-0.851 0.399-1.116 0.266-0.266 0.638-0.399 1.116-0.399zM286.962 232.861c0.372 0.053 0.651 0.159 0.837 0.319 0.186 0.159 0.279 0.452 0.279 0.878v0c0 0.399-0.098 0.718-0.295 0.956-0.202 0.239-0.476 0.359-0.821 0.359v0c-1.09 0-1.893-0.173-2.409-0.518-0.521-0.346-0.968-0.997-1.339-1.954v0c-1.196 1.94-3.323 2.911-6.38 2.911v0c-2.153 0-3.894-0.478-5.223-1.435-1.329-0.957-2.278-2.174-2.847-3.653-0.574-1.473-0.861-3.033-0.861-4.681v0c0-1.781 0.359-3.456 1.077-5.023 0.718-1.568 1.776-2.831 3.173-3.788 1.393-0.957 3.059-1.435 5-1.436v0c1.329 0 2.485 0.266 3.469 0.798 0.984 0.532 1.754 1.276 2.313 2.233v0l0.159-1.316c0.053-0.984 0.505-1.475 1.356-1.475v0c0.532 0 0.938 0.125 1.22 0.374 0.276 0.255 0.388 0.556 0.335 0.901v0l-0.12 0.997c-0.186 1.116-0.319 2.273-0.399 3.469v0c-0.08 1.01-0.12 2.366-0.119 4.067v0 2.751c0 1.143 0.035 1.986 0.104 2.528 0.064 0.548 0.202 0.968 0.414 1.26 0.213 0.292 0.572 0.452 1.077 0.478zM282.337 228.555c0.027-1.249 0.04-2.857 0.039-4.824v0c0-1.302-0.279-2.36-0.837-3.174-0.558-0.808-1.236-1.385-2.033-1.73-0.797-0.346-1.555-0.518-2.273-0.519v0c-1.409 0-2.584 0.399-3.525 1.196-0.946 0.797-1.637 1.794-2.073 2.991-0.441 1.196-0.662 2.379-0.662 3.548v0c0 1.861 0.46 3.527 1.38 5 0.914 1.478 2.422 2.217 4.521 2.217v0c1.568 0 2.865-0.407 3.892-1.22 1.021-0.808 1.544-1.97 1.571-3.485zM295.694 235.652c-0.425 0-0.784-0.106-1.077-0.319-0.292-0.213-0.439-0.478-0.438-0.797v0-28.189c0-0.425 0.133-0.758 0.398-0.997 0.266-0.239 0.638-0.359 1.117-0.359v0c0.478 0 0.859 0.114 1.14 0.343 0.276 0.223 0.415 0.561 0.415 1.013v0l-0.08 14.114 2.911-1.634c4.014-2.259 6.672-3.788 7.974-4.586v0c0.399-0.239 0.704-0.359 0.917-0.359v0c0.372 0 0.699 0.191 0.981 0.575 0.276 0.388 0.415 0.808 0.414 1.26v0c0 0.292-0.292 0.611-0.877 0.956v0l-12.28 7.297 12.44 8.852c0.266 0.213 0.399 0.505 0.399 0.877v0c0 0.399-0.165 0.763-0.495 1.092-0.335 0.335-0.675 0.502-1.021 0.503v0c-0.319 0-0.718-0.146-1.196-0.439v0l-4.107-2.871c-1.94-1.435-3.947-2.857-6.02-4.266v0l-0.04 6.778c0 0.346-0.138 0.625-0.415 0.837-0.282 0.213-0.635 0.319-1.06 0.319zM324.361 235.613c-2.18 0-4.059-0.473-5.637-1.42-1.584-0.941-2.78-2.19-3.589-3.748-0.813-1.552-1.22-3.246-1.22-5.079v0c0-1.887 0.425-3.623 1.276-5.208 0.851-1.579 2.06-2.834 3.628-3.764 1.568-0.93 3.376-1.396 5.423-1.395v0c1.808 0 3.429 0.364 4.864 1.092 1.435 0.734 2.552 1.752 3.349 3.055 0.797 1.302 1.196 2.791 1.197 4.465v0c0 0.797-0.093 1.361-0.28 1.691-0.186 0.335-0.651 0.516-1.395 0.542v0l-15.191 0.319c0 1.01 0.306 2.047 0.917 3.11 0.611 1.063 1.483 1.954 2.615 2.671 1.127 0.718 2.435 1.077 3.924 1.077v0c1.116 0 2.073-0.167 2.871-0.502 0.797-0.33 1.422-0.707 1.874-1.133 0.452-0.425 0.997-1.023 1.634-1.794v0c0.186-0.239 0.478-0.359 0.878-0.359v0c0.346 0 0.672 0.133 0.98 0.399 0.303 0.266 0.455 0.572 0.455 0.917v0c0 0.266-0.106 0.545-0.319 0.837v0c-0.851 1.17-1.879 2.166-3.086 2.991-1.212 0.824-2.935 1.236-5.168 1.236zM316.786 223.771l13.875-0.359c0.266 0 0.399-0.186 0.399-0.558v0c0-1.595-0.638-2.892-1.914-3.892-1.276-0.994-2.884-1.491-4.824-1.491v0c-1.462 0-2.764 0.372-3.908 1.116-1.143 0.744-2.033 1.621-2.671 2.632-0.638 1.01-0.957 1.861-0.957 2.552zM346.052 235.652c-1.808 0-3.349-0.447-4.625-1.339-1.276-0.888-2.273-2.023-2.991-3.405v0c-0.186-0.372-0.279-0.625-0.279-0.758v0c0-0.372 0.167-0.699 0.502-0.981 0.33-0.276 0.694-0.415 1.093-0.414v0c0.266 0 0.473 0.072 0.622 0.215 0.144 0.149 0.348 0.409 0.614 0.781v0c0.665 1.01 1.369 1.813 2.113 2.409 0.744 0.601 1.728 0.901 2.951 0.901v0c1.143 0 2.095-0.279 2.855-0.838 0.755-0.558 1.132-1.263 1.132-2.113v0c0-0.611-0.205-1.13-0.614-1.555-0.415-0.425-0.92-0.771-1.515-1.036-0.601-0.266-1.459-0.598-2.576-0.997v0c-1.409-0.505-2.544-0.965-3.405-1.38-0.867-0.409-1.605-0.994-2.217-1.754-0.611-0.755-0.917-1.717-0.917-2.887v0c0-1.037 0.287-2.002 0.861-2.895 0.569-0.888 1.385-1.598 2.448-2.129 1.063-0.532 2.286-0.797 3.669-0.797v0c1.382 0 2.605 0.266 3.668 0.797 1.063 0.532 1.887 1.236 2.472 2.114 0.585 0.877 0.877 1.847 0.877 2.91v0c0 0.532-0.098 0.917-0.295 1.156-0.202 0.239-0.556 0.359-1.061 0.359v0c-0.532 0-0.882-0.101-1.052-0.303-0.175-0.197-0.276-0.455-0.303-0.773v0c-0.106-1.249-0.545-2.174-1.316-2.775-0.771-0.595-1.768-0.893-2.99-0.893v0c-1.435 0-2.451 0.338-3.047 1.012-0.601 0.68-0.901 1.406-0.901 2.177v0c0 0.904 0.393 1.6 1.18 2.09 0.781 0.494 1.996 1.034 3.645 1.618v0c1.409 0.505 2.538 0.97 3.389 1.396 0.851 0.425 1.576 1.01 2.177 1.754 0.595 0.744 0.893 1.675 0.893 2.791v0c0 1.728-0.678 3.083-2.033 4.067-1.356 0.984-3.03 1.475-5.024 1.475z" fill="#ffa1c6" fill-rule="nonzero" stroke="none" stroke-width="1" stroke-linecap="butt" stroke-linejoin="miter" stroke-miterlimit="10" stroke-dasharray="" stroke-dashoffset="0" font-family="none" font-weight="none" font-size="none" text-anchor="none" style="mix-blend-mode: normal" data-fill-palette-color="secondary"></path></g></g><g transform="matrix(1,0,0,1,29.33176499999999,71.21150231707318)"><svg viewBox="0 0 316.416 74.80794536585366" height="74.80794536585366" width="316.416"><g><svg viewBox="0 0 316.416 74.80794536585366" height="74.80794536585366" width="316.416"><g><svg viewBox="0 0 316.416 74.80794536585366" height="74.80794536585366" width="316.416"><g id="textblocktransform"><svg viewBox="0 0 316.416 74.80794536585366" height="74.80794536585366" width="316.416" id="textblock"><g><svg viewBox="0 0 316.416 74.80794536585366" height="74.80794536585366" width="316.416"><g transform="matrix(1,0,0,1,0,0)"><svg width="316.416" viewBox="3.85 -35.9 153.74 36.35" height="74.80794536585366" data-palette-color="#fc5c9c"><path d="M10.05-34.9Q20.2-34.25 25.98-30.13 31.75-26 31.75-18.05L31.75-18.05Q31.75-12.7 29.08-8.7 26.4-4.7 21.38-2.53 16.35-0.35 9.55-0.35L9.55-0.35 6-0.35Q4.9-0.35 4.4-0.75 3.9-1.15 3.9-2.1L3.9-2.1Q3.9-3.8 5.5-3.8L5.5-3.8 7.2-3.8 6.45-31.5 6.1-31.5Q5-31.5 4.42-31.85 3.85-32.2 3.85-33.15L3.85-33.15Q3.85-34.2 4.42-34.6 5-35 6.1-35L6.1-35 6.65-35Q7.1-35.9 8.35-35.9L8.35-35.9Q9.7-35.9 10.05-34.9L10.05-34.9ZM11-3.8Q16-4 19.83-5.73 23.65-7.45 25.8-10.6 27.95-13.75 27.95-18.05L27.95-18.05Q27.95-30.15 10.3-31.35L10.3-31.35 11-3.8ZM49.65-25.7Q52.85-25.7 54.65-23.68 56.45-21.65 56.45-18.75L56.45-18.75Q56.45-16 54.8-14.43 53.15-12.85 50.55-12.85L50.55-12.85Q49.55-12.85 49.12-13.15 48.7-13.45 48.7-14.25L48.7-14.25Q48.7-15.55 49.95-15.6L49.95-15.6Q53.2-15.9 53.2-18.8L53.2-18.8Q53.2-20.35 52.35-21.45 51.5-22.55 49.6-22.55L49.6-22.55Q47.6-22.55 46.12-20.85 44.65-19.15 43.8-16.63 42.95-14.1 42.8-11.65L42.8-11.65Q42.5-7.05 42.5-2.95L42.5-2.95Q42.5-0.9 42.12-0.25 41.75 0.4 40.65 0.4L40.65 0.4Q39.55 0.4 39.12-0.13 38.7-0.65 38.7-1.95L38.7-1.95 38.65-11.5Q38.65-14.8 38.15-20.2L38.15-20.2Q37.85-23.35 37.8-24.7L37.8-24.7Q37.75-25.5 38.25-25.93 38.75-26.35 39.65-26.35L39.65-26.35Q41.2-26.35 41.3-24.85L41.3-24.85Q41.6-21.7 41.65-18.7L41.65-18.7Q42.5-22 44.6-23.85 46.7-25.7 49.65-25.7L49.65-25.7ZM75.45 0.2Q71.35 0.2 68.37-1.58 65.4-3.35 63.87-6.28 62.35-9.2 62.35-12.65L62.35-12.65Q62.35-16.2 63.95-19.18 65.55-22.15 68.5-23.9 71.45-25.65 75.3-25.65L75.3-25.65Q78.7-25.65 81.4-24.28 84.1-22.9 85.6-20.45 87.1-18 87.1-14.85L87.1-14.85Q87.1-13.35 86.75-12.73 86.4-12.1 85-12.05L85-12.05 65.95-11.65Q65.95-9.75 67.1-7.75 68.25-5.75 70.37-4.4 72.5-3.05 75.3-3.05L75.3-3.05Q77.4-3.05 78.9-3.68 80.4-4.3 81.25-5.1 82.1-5.9 83.3-7.35L83.3-7.35Q83.65-7.8 84.4-7.8L84.4-7.8Q85.05-7.8 85.62-7.3 86.2-6.8 86.2-6.15L86.2-6.15Q86.2-5.65 85.8-5.1L85.8-5.1Q84.2-2.9 81.92-1.35 79.65 0.2 75.45 0.2L75.45 0.2ZM65.95-14.65L83.35-15.1Q83.85-15.1 83.85-15.8L83.85-15.8Q83.85-18.8 81.45-20.68 79.05-22.55 75.4-22.55L75.4-22.55Q72.65-22.55 70.5-21.15 68.35-19.75 67.15-17.85 65.95-15.95 65.95-14.65L65.95-14.65ZM117.19-3.25Q117.89-3.15 118.24-2.85 118.59-2.55 118.59-1.75L118.59-1.75Q118.59-1 118.22-0.55 117.84-0.1 117.19-0.1L117.19-0.1Q115.14-0.1 114.17-0.75 113.19-1.4 112.49-3.2L112.49-3.2Q110.24 0.45 104.49 0.45L104.49 0.45Q100.44 0.45 97.94-1.35 95.44-3.15 94.37-5.93 93.29-8.7 93.29-11.8L93.29-11.8Q93.29-15.15 94.64-18.1 95.99-21.05 98.62-22.85 101.24-24.65 104.89-24.65L104.89-24.65Q107.39-24.65 109.24-23.65 111.09-22.65 112.14-20.85L112.14-20.85 112.34-22.5Q112.44-24.35 114.04-24.35L114.04-24.35Q115.04-24.35 115.57-23.88 116.09-23.4 115.99-22.75L115.99-22.75 115.84-21.5Q115.49-19.4 115.34-17.15L115.34-17.15Q115.19-15.25 115.19-12.05L115.19-12.05 115.19-8.6Q115.19-6.45 115.32-5.43 115.44-4.4 115.84-3.85 116.24-3.3 117.19-3.25L117.19-3.25ZM111.39-8.65Q111.44-11 111.44-14.7L111.44-14.7Q111.44-17.15 110.39-18.68 109.34-20.2 107.84-20.85 106.34-21.5 104.99-21.5L104.99-21.5Q102.34-21.5 100.57-20 98.79-18.5 97.97-16.25 97.14-14 97.14-11.8L97.14-11.8Q97.14-8.3 98.87-5.53 100.59-2.75 104.54-2.75L104.54-2.75Q107.49-2.75 109.42-4.28 111.34-5.8 111.39-8.65L111.39-8.65ZM149.54-25.55Q153.99-25.55 155.79-22.6 157.59-19.65 157.59-14.35L157.59-14.35Q157.59-5.95 157.54-1.6L157.54-1.6Q157.54-0.9 157.07-0.45 156.59 0 155.74 0L155.74 0Q154.84 0 154.37-0.45 153.89-0.9 153.89-1.7L153.89-1.7 153.89-14.05Q153.89-18.55 152.92-20.55 151.94-22.55 149.29-22.55L149.29-22.55Q146.79-22.55 145.59-19.75 144.39-16.95 144.34-13.15L144.34-13.15 144.34-9.3 144.34-1.7Q144.34-0.1 142.49-0.1L142.49-0.1Q140.54-0.1 140.54-1.8L140.54-1.8 140.59-10.85 140.59-13.15Q140.54-16.7 139.17-19.53 137.79-22.35 135.39-22.35L135.39-22.35Q133.54-22.35 132.32-20.53 131.09-18.7 130.29-14.7L130.29-14.7Q129.84-12.3 129.84-7.75L129.84-7.75 129.84-4.45 129.84-1.55Q129.84-0.85 129.29-0.48 128.74-0.1 127.99-0.1L127.99-0.1Q127.14-0.15 126.67-0.53 126.19-0.9 126.19-1.6L126.19-1.6Q126.19-6.65 126.09-17.75L126.09-17.75 126.09-19.65Q126.04-20.9 125.79-21.45 125.54-22 125.09-22.45L125.09-22.45Q124.99-22.55 124.77-22.75 124.54-22.95 124.54-23.25L124.54-23.25Q124.54-24 125.09-24.5 125.64-25 126.34-25L126.34-25Q126.69-25 127.17-24.63 127.64-24.25 127.99-23.75L127.99-23.75Q128.54-23 128.77-22.25 128.99-21.5 128.99-20.45L128.99-20.45 128.99-19.6Q129.84-22.45 131.54-23.93 133.24-25.4 135.59-25.4L135.59-25.4Q140.74-25.4 142.34-19.6L142.34-19.6Q143.09-22.5 144.94-24.03 146.79-25.55 149.54-25.55L149.54-25.55Z" opacity="1" transform="matrix(1,0,0,1,0,0)" fill="#fc5c9c" class="undefined-text-0" data-fill-palette-color="primary" id="text-0"></path></svg></g></svg></g></svg></g></svg></g></svg></g></svg></g></svg></g><defs></defs></svg><rect width="375.07953" height="217.23095" fill="none" stroke="none" visibility="hidden"></rect></g></svg></g></svg>