<svg xmlns="http://www.w3.org/2000/svg" version="1.1" xmlns:xlink="http://www.w3.org/1999/xlink" xmlns:svgjs="http://svgjs.dev/svgjs" width="128" height="128" viewBox="0 0 128 128"><g transform="matrix(0.8046875,0,0,0.8046875,12.760752631578946,24.704123474590233)"><svg viewBox="0 0 95 73" data-background-color="#ffffff" preserveAspectRatio="xMidYMid meet" height="98" width="128" xmlns="http://www.w3.org/2000/svg" xmlns:xlink="http://www.w3.org/1999/xlink"><g id="tight-bounds" transform="matrix(1,0,0,1,-0.24049999999999727,-0.12386860972569025)"><svg viewBox="0 0 95.481 73.24773721945138" height="73.24773721945138" width="95.481"><g><svg viewBox="0 0 95.481 73.24773721945138" height="73.24773721945138" width="95.481"><g><svg viewBox="0 0 95.481 73.24773721945138" height="73.24773721945138" width="95.481"><g id="textblocktransform"><svg viewBox="0 0 95.481 73.24773721945138" height="73.24773721945138" width="95.481" id="textblock"><g><svg viewBox="0 0 95.481 73.24773721945138" height="73.24773721945138" width="95.481"><g><svg viewBox="0 0 95.481 73.24773721945138" height="73.24773721945138" width="95.481"><g><svg xmlns="http://www.w3.org/2000/svg" xmlns:xlink="http://www.w3.org/1999/xlink" version="1.1" x="0" y="0" viewBox="9.9 26.799999999999997 80.19999999999999 61.525000000000006" style="enable-background:new 0 0 100 100;" xml:space="preserve" height="73.24773721945138" width="95.481" class="icon-icon-0" data-fill-palette-color="accent" id="icon-0"><g fill="#ffa1c6" data-fill-palette-color="accent"><path d="M85.6 63.4c0-1.7-1.4-3.1-3.1-3.1H17.4c-1.7 0-3.1 1.4-3.1 3.1v18.9h71.3V63.4zM84.4 64.9c-2.4 0-3.6 1.3-5 2.8-1.5 1.6-3.2 3.4-6.5 3.4s-5-1.8-6.5-3.4c-1.4-1.5-2.6-2.8-5-2.8-2.4 0-3.6 1.3-4.9 2.8-1.5 1.6-3.2 3.4-6.5 3.4-3.3 0-5-1.8-6.5-3.4-1.4-1.5-2.5-2.8-4.9-2.8-2.4 0-3.6 1.3-4.9 2.8-1.5 1.6-3.2 3.4-6.5 3.4-3.3 0-5-1.8-6.5-3.4-1.4-1.5-2.5-2.8-4.9-2.8v-2.2c3.3 0 5 1.8 6.5 3.4 1.4 1.5 2.5 2.8 4.9 2.8 2.4 0 3.6-1.3 4.9-2.8 1.5-1.6 3.2-3.4 6.5-3.4 3.3 0 5 1.8 6.5 3.4 1.4 1.5 2.5 2.8 4.9 2.8 2.4 0 3.6-1.3 4.9-2.8 1.5-1.6 3.2-3.4 6.5-3.4 3.3 0 5 1.8 6.5 3.4 1.4 1.5 2.6 2.8 5 2.8s3.6-1.3 5-2.8c1.5-1.6 3.2-3.4 6.5-3.4V64.9z" fill="#ffffff" data-fill-palette-color="accent"></path><path d="M79.7 43.8c0-1.7-1.4-3.1-3.1-3.1H23.3c-1.7 0-3.1 1.4-3.1 3.1v15.3h59.5V43.8zM78.9 46.3c-2 0-3 1.1-4.2 2.3-1.3 1.4-2.7 2.9-5.5 2.9s-4.2-1.5-5.5-2.9c-1.1-1.2-2.1-2.3-4.2-2.3-2 0-3 1.1-4.2 2.3-1.3 1.4-2.7 2.9-5.5 2.9-2.8 0-4.2-1.5-5.5-2.9-1.1-1.2-2.1-2.3-4.2-2.3-2 0-3 1.1-4.2 2.3-1.3 1.4-2.7 2.9-5.5 2.9-2.8 0-4.2-1.5-5.5-2.9-1.1-1.2-2.1-2.3-4.2-2.3v-1.8c2.8 0 4.2 1.5 5.5 2.9 1.1 1.2 2.1 2.3 4.2 2.3 2 0 3-1.1 4.2-2.3 1.3-1.4 2.7-2.9 5.5-2.9 2.8 0 4.2 1.5 5.5 2.9 1.1 1.2 2.1 2.3 4.2 2.3 2 0 3-1.1 4.2-2.3 1.3-1.4 2.7-2.9 5.5-2.9 2.8 0 4.2 1.5 5.5 2.9 1.1 1.2 2.1 2.3 4.2 2.3s3-1.1 4.2-2.3c1.3-1.4 2.7-2.9 5.5-2.9V46.3z" fill="#ffffff" data-fill-palette-color="accent"></path><path d="M70.2 29.9c0-1.7-1.4-3.1-3.1-3.1H32.8c-1.7 0-3.1 1.4-3.1 3.1v9.4h40.5V29.9zM69.6 30.3c-1.4 0-2 0.7-2.8 1.6-0.9 0.9-1.8 2-3.7 2-1.9 0-2.9-1-3.7-2-0.8-0.8-1.5-1.6-2.8-1.6-1.4 0-2 0.7-2.8 1.6-0.8 0.9-1.8 2-3.7 2-1.9 0-2.9-1-3.7-2-0.8-0.8-1.5-1.6-2.8-1.6-1.4 0-2 0.7-2.8 1.6-0.8 0.9-1.8 2-3.7 2-1.9 0-2.9-1-3.7-2-0.8-0.8-1.4-1.6-2.8-1.6v-1.2c1.9 0 2.9 1 3.7 2 0.8 0.8 1.4 1.6 2.8 1.6 1.4 0 2-0.7 2.8-1.6 0.8-0.9 1.8-2 3.7-2 1.9 0 2.9 1 3.7 2 0.8 0.8 1.5 1.6 2.8 1.6 1.4 0 2-0.7 2.8-1.6 0.8-0.9 1.8-2 3.7-2 1.9 0 2.9 1 3.7 2 0.8 0.8 1.5 1.6 2.8 1.6 1.4 0 2-0.7 2.8-1.6 0.9-0.9 1.8-2 3.7-2V30.3z" fill="#ffffff" data-fill-palette-color="accent"></path><path d="M9.9 84v1.3l28.7 2.5c7.5 0.7 15.1 0.7 22.7 0l28.8-2.5V84H9.9z" fill="#ffffff" data-fill-palette-color="accent"></path></g></svg></g></svg></g></svg></g></svg></g></svg></g><g></g></svg></g><defs></defs></svg><rect width="95.481" height="73.24773721945138" fill="none" stroke="none" visibility="hidden"></rect></g></svg></g></svg>