<svg width="1920" height="322" viewBox="0 0 1920 322" fill="none" xmlns="http://www.w3.org/2000/svg">
<g clip-path="url(#clip0_418_2320)">
<g clip-path="url(#clip1_418_2320)">
<path fill-rule="evenodd" clip-rule="evenodd" d="M325.401 203.17C327.541 202.92 329.091 200.95 328.841 198.81C328.591 196.67 326.621 195.12 324.481 195.37L286.581 199.84C284.441 200.09 282.891 202.06 283.141 204.2C283.391 206.34 285.361 207.89 287.501 207.64L325.401 203.17Z" fill="#FCCDE2"/>
<path fill-rule="evenodd" clip-rule="evenodd" d="M74.0613 70.3502C75.0813 68.4502 74.3513 66.0502 72.4513 65.0302C70.5513 64.0202 68.1513 64.7402 67.1313 66.6502L49.1513 100.31C48.1413 102.21 48.8613 104.61 50.7713 105.63C52.6713 106.65 55.0713 105.92 56.0913 104.02L74.0613 70.3602V70.3502Z" fill="#FCEFEE"/>
<path fill-rule="evenodd" clip-rule="evenodd" d="M63.8212 150.24C65.6112 149.04 66.1012 146.58 64.9012 144.79C63.7012 143 61.2412 142.51 59.4512 143.71L44.8512 153.49C43.0612 154.69 42.5712 157.15 43.7712 158.94C44.9712 160.73 47.4312 161.22 49.2212 160.02L63.8212 150.24Z" fill="#C5E3F6"/>
<path fill-rule="evenodd" clip-rule="evenodd" d="M451.961 125.11C453.941 125.94 456.271 124.99 457.101 123.01C457.931 121.03 456.981 118.7 455.001 117.87L441.671 112.27C439.691 111.44 437.361 112.39 436.531 114.37C435.701 116.35 436.651 118.68 438.631 119.51L451.961 125.11Z" fill="#FCEFEE"/>
<path fill-rule="evenodd" clip-rule="evenodd" d="M103.291 281.2C105.451 281.19 107.211 279.41 107.201 277.25C107.191 275.09 105.411 273.33 103.251 273.35L73.4911 273.52C71.3311 273.53 69.5711 275.31 69.5811 277.47C69.5911 279.63 71.3711 281.39 73.5311 281.38L103.291 281.21V281.2Z" fill="#FCCDE2"/>
<path fill-rule="evenodd" clip-rule="evenodd" d="M402.721 283.25C404.191 281.67 404.101 279.17 402.531 277.7C400.951 276.23 398.451 276.32 396.981 277.89L370.961 305.8C369.491 307.38 369.581 309.88 371.161 311.35C372.741 312.82 375.241 312.73 376.711 311.16L402.731 283.25H402.721Z" fill="#FCEFEE"/>
<path fill-rule="evenodd" clip-rule="evenodd" d="M256.081 67.3503C256.691 69.4203 258.901 70.6103 260.971 69.9903C263.031 69.3803 264.231 67.1703 263.611 65.1003L258.601 48.2503C257.981 46.1903 255.781 44.9903 253.711 45.6103C251.651 46.2203 250.451 48.4303 251.071 50.5003L256.091 67.3503H256.081Z" fill="#FCCDE2"/>
<path fill-rule="evenodd" clip-rule="evenodd" d="M102.161 97.4603L140.061 101.93C142.201 102.18 144.171 100.63 144.421 98.4903C144.671 96.3503 143.121 94.3803 140.981 94.1303L103.081 89.6603C100.941 89.4103 98.9713 90.9603 98.7213 93.1003C98.4713 95.2403 100.021 97.2103 102.161 97.4603Z" fill="#C5E3F6"/>
<path fill-rule="evenodd" clip-rule="evenodd" d="M198.941 301.37L215.221 311.31C217.051 312.43 219.501 311.84 220.621 310C221.741 308.17 221.151 305.72 219.321 304.6L203.031 294.66C201.201 293.54 198.751 294.13 197.631 295.97C196.511 297.8 197.111 300.25 198.941 301.37Z" fill="#FCEFEE"/>
<path fill-rule="evenodd" clip-rule="evenodd" d="M463.611 229.91L501.401 224.64C503.531 224.34 505.051 222.34 504.751 220.21C504.451 218.08 502.451 216.56 500.321 216.86L462.531 222.13C460.401 222.43 458.881 224.43 459.181 226.56C459.481 228.7 461.481 230.21 463.611 229.91Z" fill="#FCEFEE"/>
<path fill-rule="evenodd" clip-rule="evenodd" d="M58.6611 26.3502L72.1911 31.6302C74.1911 32.4102 76.5011 31.4002 77.2811 29.4002C78.0611 27.4002 77.0511 25.0902 75.0511 24.3102L61.5211 19.0302C59.5211 18.2502 57.2111 19.2602 56.4311 21.2602C55.6511 23.2602 56.6611 25.5702 58.6611 26.3502Z" fill="#FCCDE2"/>
<path fill-rule="evenodd" clip-rule="evenodd" d="M194.731 143.72L169.211 155.69C167.261 156.6 166.411 158.96 167.321 160.91C168.241 162.86 170.601 163.71 172.551 162.8L198.071 150.83C200.021 149.92 200.871 147.55 199.961 145.6C199.051 143.65 196.691 142.8 194.731 143.71V143.72Z" fill="#FCCDE2"/>
<path fill-rule="evenodd" clip-rule="evenodd" d="M508.411 141.18L495.411 161.67C494.261 163.48 494.811 165.94 496.621 167.09C498.431 168.24 500.891 167.69 502.041 165.88L515.051 145.39C516.201 143.58 515.651 141.12 513.841 139.97C512.031 138.82 509.571 139.37 508.421 141.18H508.411Z" fill="#FCEFEE"/>
<path fill-rule="evenodd" clip-rule="evenodd" d="M369.111 150.99L338.661 127.99C336.941 126.69 334.461 127.04 333.161 128.76C331.861 130.48 332.211 132.96 333.931 134.26L364.381 157.26C366.101 158.56 368.581 158.21 369.881 156.49C371.181 154.77 370.841 152.29 369.111 150.99Z" fill="#C5E3F6"/>
<path fill-rule="evenodd" clip-rule="evenodd" d="M335.741 52.3802L319.031 70.4502C317.571 72.0302 317.671 74.5402 319.251 76.0002C320.831 77.4602 323.341 77.3602 324.801 75.7802L341.511 57.7102C342.971 56.1302 342.871 53.6202 341.291 52.1602C339.711 50.7002 337.201 50.8002 335.741 52.3802Z" fill="#FCEFEE"/>
<path fill-rule="evenodd" clip-rule="evenodd" d="M159.651 27.2202L129.231 50.2602C127.511 51.5602 127.171 54.0402 128.471 55.7602C129.771 57.4802 132.251 57.8202 133.971 56.5202L164.391 33.4802C166.111 32.1802 166.451 29.7002 165.151 27.9802C163.851 26.2602 161.361 25.9202 159.651 27.2202Z" fill="#C5E3F6"/>
<path fill-rule="evenodd" clip-rule="evenodd" d="M435.771 44.6202L420.071 61.6202C418.611 63.2002 418.711 65.7102 420.291 67.1702C421.871 68.6302 424.381 68.5302 425.841 66.9502L441.541 49.9502C443.001 48.3702 442.901 45.8602 441.321 44.4002C439.741 42.9402 437.231 43.0402 435.771 44.6202Z" fill="#C5E3F6"/>
<path fill-rule="evenodd" clip-rule="evenodd" d="M527.021 303.15L504.481 272.36C503.211 270.62 500.731 270.24 498.991 271.51C497.251 272.78 496.871 275.26 498.141 277L520.681 307.79C521.951 309.53 524.431 309.91 526.171 308.64C527.911 307.36 528.291 304.89 527.021 303.15Z" fill="#FCEFEE"/>
<path fill-rule="evenodd" clip-rule="evenodd" d="M225.481 250.87L199.461 222.96C197.991 221.38 195.481 221.3 193.911 222.76C192.331 224.23 192.251 226.74 193.711 228.31L219.731 256.22C221.201 257.8 223.711 257.89 225.281 256.42C226.851 254.95 226.941 252.44 225.471 250.87H225.481Z" fill="#C5E3F6"/>
<path fill-rule="evenodd" clip-rule="evenodd" d="M2.98119 233.03C1.15119 234.15 0.561191 236.6 1.68119 238.43C2.80119 240.26 5.24119 240.86 7.08119 239.74L32.8212 224.03C34.6512 222.91 35.2412 220.46 34.1212 218.63C33.0012 216.8 30.5512 216.21 28.7212 217.33L2.98119 233.04V233.03Z" fill="#C5E3F6"/>
<path fill-rule="evenodd" clip-rule="evenodd" d="M-19.0088 32.7202L7.05121 18.8002C8.95121 17.7802 9.68121 15.3902 8.67121 13.4802C7.65121 11.5802 5.26121 10.8502 3.35121 11.8702L-19.0088 23.8202V32.7302V32.7202Z" fill="#FCEFEE"/>
<path fill-rule="evenodd" clip-rule="evenodd" d="M540.321 36.7802L547.921 32.7202V23.8102L536.621 29.8402C534.721 30.8602 533.991 33.2502 535.011 35.1602C536.021 37.0602 538.421 37.7902 540.321 36.7702V36.7802Z" fill="#FCEFEE"/>
<path fill-rule="evenodd" clip-rule="evenodd" d="M405.151 233.51L383.911 224.97C381.921 224.17 379.601 225.16 378.791 227.15C377.991 229.14 378.971 231.45 380.961 232.25L402.201 240.79C404.191 241.59 406.511 240.61 407.321 238.61C408.121 236.62 407.141 234.31 405.151 233.51Z" fill="#FCEFEE"/>
<path fill-rule="evenodd" clip-rule="evenodd" d="M16.2712 119.87L-19.0088 109.37V117.57L14.0312 127.41C16.0912 128.03 18.3012 126.83 18.9212 124.77C19.5312 122.71 18.3412 120.5 16.2712 119.88V119.87Z" fill="#FCEFEE"/>
<path fill-rule="evenodd" clip-rule="evenodd" d="M547.921 109.37L546.631 108.99C544.561 108.37 542.361 109.57 541.751 111.63C541.131 113.7 542.331 115.9 544.391 116.52L547.921 117.57V109.37Z" fill="#FCEFEE"/>
<path fill-rule="evenodd" clip-rule="evenodd" d="M293.081 309.68C292.171 311.63 293.021 313.99 294.971 314.9C296.921 315.82 299.281 314.96 300.191 313.01L316.401 278.46C317.311 276.51 316.461 274.15 314.511 273.23C312.561 272.32 310.201 273.17 309.291 275.12L293.081 309.67V309.68Z" fill="#FCEFEE"/>
<path fill-rule="evenodd" clip-rule="evenodd" d="M99.6412 217.77C97.5812 218.39 96.3912 220.59 97.0012 222.66C97.6212 224.72 99.8212 225.92 101.891 225.3L113.951 221.7C116.011 221.08 117.211 218.87 116.591 216.81C115.971 214.75 113.761 213.55 111.701 214.17L99.6412 217.77Z" fill="#C5E3F6"/>
<path fill-rule="evenodd" clip-rule="evenodd" d="M262.701 140.12C261.401 141.84 261.741 144.32 263.461 145.62C265.181 146.92 267.661 146.58 268.961 144.86L283.161 126.11C284.461 124.39 284.121 121.91 282.401 120.61C280.681 119.31 278.201 119.65 276.901 121.37L262.701 140.12Z" fill="#FCCDE2"/>
<path fill-rule="evenodd" clip-rule="evenodd" d="M-9.79885 304.05C-11.3788 305.51 -11.4788 308.02 -10.0188 309.6C-8.55885 311.18 -6.04885 311.28 -4.46885 309.82L13.6212 293.12C15.2012 291.66 15.3012 289.15 13.8412 287.57C12.3812 285.99 9.87115 285.89 8.29115 287.35L-9.79885 304.06V304.05Z" fill="#FCEFEE"/>
<path fill-rule="evenodd" clip-rule="evenodd" d="M423.521 165.23L409.161 188.76C408.041 190.59 408.631 193.04 410.471 194.16C412.301 195.28 414.751 194.69 415.871 192.86L430.241 169.33C431.361 167.5 430.771 165.05 428.931 163.93C427.101 162.81 424.651 163.4 423.531 165.24L423.521 165.23Z" fill="#FCEFEE"/>
<path fill-rule="evenodd" clip-rule="evenodd" d="M230.391 185.73L219.771 206.01C218.771 207.92 219.511 210.32 221.421 211.32C223.331 212.32 225.711 211.58 226.721 209.67L237.341 189.39C238.341 187.48 237.591 185.08 235.681 184.08C233.771 183.08 231.381 183.82 230.381 185.73H230.391Z" fill="#FCCDE2"/>
<path fill-rule="evenodd" clip-rule="evenodd" d="M213.001 79.2503L202.381 99.5303C201.381 101.44 202.121 103.84 204.031 104.84C205.941 105.84 208.331 105.1 209.331 103.19L219.951 82.9103C220.951 81.0003 220.201 78.6003 218.291 77.6003C216.381 76.6003 214.001 77.3403 213.001 79.2503Z" fill="#FCEFEE"/>
<path fill-rule="evenodd" clip-rule="evenodd" d="M521.511 72.1302L498.691 73.9502C496.551 74.1202 494.911 76.0402 495.081 78.1802C495.251 80.3202 497.161 81.9502 499.301 81.7802L522.121 79.9602C524.261 79.7902 525.901 77.8702 525.731 75.7302C525.561 73.5902 523.651 71.9602 521.511 72.1302Z" fill="#FCEFEE"/>
<path fill-rule="evenodd" clip-rule="evenodd" d="M546.831 208.36L536.211 228.64C535.211 230.55 535.951 232.95 537.871 233.95C539.781 234.95 542.171 234.21 543.171 232.3L547.931 223.21V207.07C547.491 207.41 547.111 207.84 546.841 208.36H546.831Z" fill="#C5E3F6"/>
<path fill-rule="evenodd" clip-rule="evenodd" d="M-1.70867 57.0903L15.9713 71.6403C17.6313 73.0103 20.1413 72.7603 21.5113 71.1103C22.8813 69.4503 22.6313 66.9503 20.9813 65.5903L3.30133 51.0503C1.64133 49.6803 -0.868672 49.9303 -2.23867 51.5803C-3.60867 53.2403 -3.35867 55.7403 -1.70867 57.1003V57.0903Z" fill="#FCCDE2"/>
<path fill-rule="evenodd" clip-rule="evenodd" d="M-15.1387 177.56L1.26125 193.52C2.80125 195.03 5.32125 194.99 6.82125 193.45C8.32125 191.91 8.29125 189.41 6.75125 187.9L-9.64875 171.93C-11.1987 170.43 -13.7087 170.46 -15.2087 172C-16.7187 173.54 -16.6787 176.04 -15.1387 177.55V177.56Z" fill="#FCEFEE"/>
<path fill-rule="evenodd" clip-rule="evenodd" d="M129.221 167.95C130.221 169.86 132.611 170.6 134.521 169.6C136.431 168.6 137.181 166.2 136.181 164.29L125.561 144.01C124.561 142.1 122.171 141.36 120.261 142.36C118.351 143.36 117.601 145.76 118.611 147.67L129.231 167.95H129.221Z" fill="#FCEFEE"/>
<path fill-rule="evenodd" clip-rule="evenodd" d="M161.371 254.28C163.421 254.94 165.651 253.8 166.301 251.75C166.961 249.69 165.811 247.46 163.751 246.8L141.961 239.79C139.911 239.13 137.681 240.27 137.031 242.33C136.371 244.39 137.521 246.62 139.571 247.28L161.361 254.29L161.371 254.28Z" fill="#C5E3F6"/>
<path fill-rule="evenodd" clip-rule="evenodd" d="M142.791 337.72C143.001 339.86 144.941 341.45 147.081 341.24C149.221 341.03 150.821 339.08 150.611 336.94L148.401 314.15C148.191 312.01 146.251 310.42 144.111 310.63C141.971 310.84 140.371 312.79 140.581 314.92L142.791 337.7V337.72Z" fill="#C5E3F6"/>
<path fill-rule="evenodd" clip-rule="evenodd" d="M263.261 263.94C262.391 265.9 263.291 268.25 265.261 269.11C267.231 269.98 269.581 269.07 270.451 267.11L279.731 246.18C280.601 244.22 279.691 241.87 277.731 241C275.761 240.13 273.411 241.04 272.541 243L263.261 263.93V263.94Z" fill="#FCEFEE"/>
<path fill-rule="evenodd" clip-rule="evenodd" d="M458.211 282.41L447.591 302.69C446.591 304.6 447.331 307 449.241 308C451.151 309 453.541 308.26 454.541 306.35L465.161 286.07C466.161 284.16 465.411 281.76 463.501 280.76C461.591 279.76 459.211 280.5 458.211 282.41Z" fill="#C5E3F6"/>
<path fill-rule="evenodd" clip-rule="evenodd" d="M377.631 8.80018L387.141 29.6202C388.031 31.5802 390.391 32.4602 392.351 31.5702C394.311 30.6802 395.191 28.3302 394.301 26.3702L384.791 5.55018C383.901 3.59018 381.541 2.71018 379.581 3.60018C377.621 4.49018 376.741 6.84018 377.641 8.80018H377.631Z" fill="#C5E3F6"/>
<path fill-rule="evenodd" clip-rule="evenodd" d="M371.051 90.9203L362.161 103.75C360.931 105.52 361.381 108 363.151 109.23C364.921 110.46 367.381 110.01 368.611 108.24L377.501 95.4103C378.731 93.6403 378.281 91.1703 376.511 89.9403C374.741 88.7103 372.281 89.1603 371.051 90.9303V90.9203Z" fill="#C5E3F6"/>
<path fill-rule="evenodd" clip-rule="evenodd" d="M195.531 12.6403L218.411 12.1903C220.571 12.1503 222.311 10.3403 222.271 8.18027C222.231 6.03027 220.431 4.29027 218.271 4.33027L195.381 4.78027C193.221 4.82027 191.481 6.63027 191.521 8.79027C191.561 10.9403 193.361 12.6803 195.521 12.6403H195.531Z" fill="#FCEFEE"/>
</g>
<g clip-path="url(#clip2_418_2320)">
<path fill-rule="evenodd" clip-rule="evenodd" d="M892.331 203.17C894.471 202.92 896.021 200.95 895.771 198.81C895.521 196.67 893.551 195.12 891.411 195.37L853.511 199.84C851.371 200.09 849.821 202.06 850.071 204.2C850.321 206.34 852.291 207.89 854.431 207.64L892.331 203.17Z" fill="#FCCDE2"/>
<path fill-rule="evenodd" clip-rule="evenodd" d="M640.991 70.3502C642.011 68.4502 641.281 66.0502 639.381 65.0302C637.481 64.0202 635.081 64.7402 634.061 66.6502L616.081 100.31C615.071 102.21 615.791 104.61 617.701 105.63C619.601 106.65 622.001 105.92 623.021 104.02L640.991 70.3602V70.3502Z" fill="#FCEFEE"/>
<path fill-rule="evenodd" clip-rule="evenodd" d="M630.751 150.24C632.541 149.04 633.031 146.58 631.831 144.79C630.631 143 628.171 142.51 626.381 143.71L611.781 153.49C609.991 154.69 609.501 157.15 610.701 158.94C611.901 160.73 614.361 161.22 616.151 160.02L630.751 150.24Z" fill="#C5E3F6"/>
<path fill-rule="evenodd" clip-rule="evenodd" d="M1018.89 125.11C1020.87 125.94 1023.2 124.99 1024.03 123.01C1024.86 121.03 1023.91 118.7 1021.93 117.87L1008.6 112.27C1006.62 111.44 1004.29 112.39 1003.46 114.37C1002.63 116.35 1003.58 118.68 1005.56 119.51L1018.89 125.11Z" fill="#FCEFEE"/>
<path fill-rule="evenodd" clip-rule="evenodd" d="M670.221 281.2C672.381 281.19 674.141 279.41 674.131 277.25C674.121 275.09 672.341 273.33 670.181 273.35L640.421 273.52C638.261 273.53 636.501 275.31 636.511 277.47C636.521 279.63 638.301 281.39 640.461 281.38L670.221 281.21V281.2Z" fill="#FCCDE2"/>
<path fill-rule="evenodd" clip-rule="evenodd" d="M969.651 283.25C971.121 281.67 971.031 279.17 969.461 277.7C967.881 276.23 965.381 276.32 963.911 277.89L937.891 305.8C936.421 307.38 936.511 309.88 938.091 311.35C939.671 312.82 942.171 312.73 943.641 311.16L969.661 283.25H969.651Z" fill="#FCEFEE"/>
<path fill-rule="evenodd" clip-rule="evenodd" d="M823.011 67.3503C823.621 69.4203 825.831 70.6103 827.901 69.9903C829.961 69.3803 831.161 67.1703 830.541 65.1003L825.531 48.2503C824.911 46.1903 822.711 44.9903 820.641 45.6103C818.581 46.2203 817.381 48.4303 818.001 50.5003L823.021 67.3503H823.011Z" fill="#FCCDE2"/>
<path fill-rule="evenodd" clip-rule="evenodd" d="M669.091 97.4603L706.991 101.93C709.131 102.18 711.101 100.63 711.351 98.4903C711.601 96.3503 710.051 94.3803 707.911 94.1303L670.011 89.6603C667.871 89.4103 665.901 90.9603 665.651 93.1003C665.401 95.2403 666.951 97.2103 669.091 97.4603Z" fill="#C5E3F6"/>
<path fill-rule="evenodd" clip-rule="evenodd" d="M765.871 301.37L782.151 311.31C783.981 312.43 786.431 311.84 787.551 310C788.671 308.17 788.081 305.72 786.251 304.6L769.961 294.66C768.131 293.54 765.681 294.13 764.561 295.97C763.441 297.8 764.041 300.25 765.871 301.37Z" fill="#FCEFEE"/>
<path fill-rule="evenodd" clip-rule="evenodd" d="M1030.54 229.91L1068.33 224.64C1070.46 224.34 1071.98 222.34 1071.68 220.21C1071.38 218.08 1069.38 216.56 1067.25 216.86L1029.46 222.13C1027.33 222.43 1025.81 224.43 1026.11 226.56C1026.41 228.7 1028.41 230.21 1030.54 229.91Z" fill="#FCEFEE"/>
<path fill-rule="evenodd" clip-rule="evenodd" d="M625.591 26.3502L639.121 31.6302C641.121 32.4102 643.431 31.4002 644.211 29.4002C644.991 27.4002 643.981 25.0902 641.981 24.3102L628.451 19.0302C626.451 18.2502 624.141 19.2602 623.361 21.2602C622.581 23.2602 623.591 25.5702 625.591 26.3502Z" fill="#FCCDE2"/>
<path fill-rule="evenodd" clip-rule="evenodd" d="M761.661 143.72L736.141 155.69C734.191 156.6 733.341 158.96 734.251 160.91C735.171 162.86 737.531 163.71 739.481 162.8L765.001 150.83C766.951 149.92 767.801 147.55 766.891 145.6C765.981 143.65 763.621 142.8 761.661 143.71V143.72Z" fill="#FCCDE2"/>
<path fill-rule="evenodd" clip-rule="evenodd" d="M1075.34 141.18L1062.34 161.67C1061.19 163.48 1061.74 165.94 1063.55 167.09C1065.36 168.24 1067.82 167.69 1068.97 165.88L1081.98 145.39C1083.13 143.58 1082.58 141.12 1080.77 139.97C1078.96 138.82 1076.5 139.37 1075.35 141.18H1075.34Z" fill="#FCEFEE"/>
<path fill-rule="evenodd" clip-rule="evenodd" d="M936.041 150.99L905.591 127.99C903.871 126.69 901.391 127.04 900.091 128.76C898.791 130.48 899.141 132.96 900.861 134.26L931.311 157.26C933.031 158.56 935.511 158.21 936.811 156.49C938.111 154.77 937.771 152.29 936.041 150.99Z" fill="#C5E3F6"/>
<path fill-rule="evenodd" clip-rule="evenodd" d="M902.671 52.3802L885.961 70.4502C884.501 72.0302 884.601 74.5402 886.181 76.0002C887.761 77.4602 890.271 77.3602 891.731 75.7802L908.441 57.7102C909.901 56.1302 909.801 53.6202 908.221 52.1602C906.641 50.7002 904.131 50.8002 902.671 52.3802Z" fill="#FCEFEE"/>
<path fill-rule="evenodd" clip-rule="evenodd" d="M726.581 27.2202L696.161 50.2602C694.441 51.5602 694.101 54.0402 695.401 55.7602C696.701 57.4802 699.181 57.8202 700.901 56.5202L731.321 33.4802C733.041 32.1802 733.381 29.7002 732.081 27.9802C730.781 26.2602 728.291 25.9202 726.581 27.2202Z" fill="#C5E3F6"/>
<path fill-rule="evenodd" clip-rule="evenodd" d="M1002.7 44.6202L987.001 61.6202C985.541 63.2002 985.641 65.7102 987.221 67.1702C988.801 68.6302 991.311 68.5302 992.771 66.9502L1008.47 49.9502C1009.93 48.3702 1009.83 45.8602 1008.25 44.4002C1006.67 42.9402 1004.16 43.0402 1002.7 44.6202Z" fill="#C5E3F6"/>
<path fill-rule="evenodd" clip-rule="evenodd" d="M1093.95 303.15L1071.41 272.36C1070.14 270.62 1067.66 270.24 1065.92 271.51C1064.18 272.78 1063.8 275.26 1065.07 277L1087.61 307.79C1088.88 309.53 1091.36 309.91 1093.1 308.64C1094.84 307.36 1095.22 304.89 1093.95 303.15Z" fill="#FCEFEE"/>
<path fill-rule="evenodd" clip-rule="evenodd" d="M792.411 250.87L766.391 222.96C764.921 221.38 762.411 221.3 760.841 222.76C759.261 224.23 759.181 226.74 760.641 228.31L786.661 256.22C788.131 257.8 790.641 257.89 792.211 256.42C793.781 254.95 793.871 252.44 792.401 250.87H792.411Z" fill="#C5E3F6"/>
<path fill-rule="evenodd" clip-rule="evenodd" d="M569.911 233.03C568.081 234.15 567.491 236.6 568.611 238.43C569.731 240.26 572.171 240.86 574.011 239.74L599.751 224.03C601.581 222.91 602.171 220.46 601.051 218.63C599.931 216.8 597.481 216.21 595.651 217.33L569.911 233.04V233.03Z" fill="#C5E3F6"/>
<path fill-rule="evenodd" clip-rule="evenodd" d="M547.921 32.7202L573.981 18.8002C575.881 17.7802 576.611 15.3902 575.601 13.4802C574.581 11.5802 572.191 10.8502 570.281 11.8702L547.921 23.8202V32.7302V32.7202Z" fill="#FCEFEE"/>
<path fill-rule="evenodd" clip-rule="evenodd" d="M1107.25 36.7802L1114.85 32.7202V23.8102L1103.55 29.8402C1101.65 30.8602 1100.92 33.2502 1101.94 35.1602C1102.95 37.0602 1105.35 37.7902 1107.25 36.7702V36.7802Z" fill="#FCEFEE"/>
<path fill-rule="evenodd" clip-rule="evenodd" d="M972.081 233.51L950.841 224.97C948.851 224.17 946.531 225.16 945.721 227.15C944.921 229.14 945.901 231.45 947.891 232.25L969.131 240.79C971.121 241.59 973.441 240.61 974.251 238.61C975.051 236.62 974.071 234.31 972.081 233.51Z" fill="#FCEFEE"/>
<path fill-rule="evenodd" clip-rule="evenodd" d="M583.201 119.87L547.921 109.37V117.57L580.961 127.41C583.021 128.03 585.231 126.83 585.851 124.77C586.461 122.71 585.271 120.5 583.201 119.88V119.87Z" fill="#FCEFEE"/>
<path fill-rule="evenodd" clip-rule="evenodd" d="M1114.85 109.37L1113.56 108.99C1111.49 108.37 1109.29 109.57 1108.68 111.63C1108.06 113.7 1109.26 115.9 1111.32 116.52L1114.85 117.57V109.37Z" fill="#FCEFEE"/>
<path fill-rule="evenodd" clip-rule="evenodd" d="M860.011 309.68C859.101 311.63 859.951 313.99 861.901 314.9C863.851 315.82 866.211 314.96 867.121 313.01L883.331 278.46C884.241 276.51 883.391 274.15 881.441 273.23C879.491 272.32 877.131 273.17 876.221 275.12L860.011 309.67V309.68Z" fill="#FCEFEE"/>
<path fill-rule="evenodd" clip-rule="evenodd" d="M666.571 217.77C664.511 218.39 663.321 220.59 663.931 222.66C664.551 224.72 666.751 225.92 668.821 225.3L680.881 221.7C682.941 221.08 684.141 218.87 683.521 216.81C682.901 214.75 680.691 213.55 678.631 214.17L666.571 217.77Z" fill="#C5E3F6"/>
<path fill-rule="evenodd" clip-rule="evenodd" d="M829.631 140.12C828.331 141.84 828.671 144.32 830.391 145.62C832.111 146.92 834.591 146.58 835.891 144.86L850.091 126.11C851.391 124.39 851.051 121.91 849.331 120.61C847.611 119.31 845.131 119.65 843.831 121.37L829.631 140.12Z" fill="#FCCDE2"/>
<path fill-rule="evenodd" clip-rule="evenodd" d="M557.131 304.05C555.551 305.51 555.451 308.02 556.911 309.6C558.371 311.18 560.881 311.28 562.461 309.82L580.551 293.12C582.131 291.66 582.231 289.15 580.771 287.57C579.311 285.99 576.801 285.89 575.221 287.35L557.131 304.06V304.05Z" fill="#FCEFEE"/>
<path fill-rule="evenodd" clip-rule="evenodd" d="M990.451 165.23L976.091 188.76C974.971 190.59 975.561 193.04 977.401 194.16C979.231 195.28 981.681 194.69 982.801 192.86L997.171 169.33C998.291 167.5 997.701 165.05 995.861 163.93C994.031 162.81 991.581 163.4 990.461 165.24L990.451 165.23Z" fill="#FCEFEE"/>
<path fill-rule="evenodd" clip-rule="evenodd" d="M797.321 185.73L786.701 206.01C785.701 207.92 786.441 210.32 788.351 211.32C790.261 212.32 792.641 211.58 793.651 209.67L804.271 189.39C805.271 187.48 804.521 185.08 802.611 184.08C800.701 183.08 798.311 183.82 797.311 185.73H797.321Z" fill="#FCCDE2"/>
<path fill-rule="evenodd" clip-rule="evenodd" d="M779.931 79.2503L769.311 99.5303C768.311 101.44 769.051 103.84 770.961 104.84C772.871 105.84 775.261 105.1 776.261 103.19L786.881 82.9103C787.881 81.0003 787.131 78.6003 785.221 77.6003C783.311 76.6003 780.931 77.3403 779.931 79.2503Z" fill="#FCEFEE"/>
<path fill-rule="evenodd" clip-rule="evenodd" d="M1088.44 72.1302L1065.62 73.9502C1063.48 74.1202 1061.84 76.0402 1062.01 78.1802C1062.18 80.3202 1064.09 81.9502 1066.23 81.7802L1089.05 79.9602C1091.19 79.7902 1092.83 77.8702 1092.66 75.7302C1092.49 73.5902 1090.58 71.9602 1088.44 72.1302Z" fill="#FCEFEE"/>
<path fill-rule="evenodd" clip-rule="evenodd" d="M1113.76 208.36L1103.14 228.64C1102.14 230.55 1102.88 232.95 1104.8 233.95C1106.71 234.95 1109.1 234.21 1110.1 232.3L1114.86 223.21V207.07C1114.42 207.41 1114.04 207.84 1113.77 208.36H1113.76Z" fill="#C5E3F6"/>
<path fill-rule="evenodd" clip-rule="evenodd" d="M547.921 223.2L553.781 212.01C554.781 210.1 554.031 207.7 552.121 206.7C550.731 205.97 549.091 206.17 547.921 207.06V223.2Z" fill="#C5E3F6"/>
<path fill-rule="evenodd" clip-rule="evenodd" d="M565.221 57.0903L582.901 71.6403C584.561 73.0103 587.071 72.7603 588.441 71.1103C589.811 69.4503 589.561 66.9503 587.911 65.5903L570.231 51.0503C568.571 49.6803 566.061 49.9303 564.691 51.5803C563.321 53.2403 563.571 55.7403 565.221 57.1003V57.0903Z" fill="#FCCDE2"/>
<path fill-rule="evenodd" clip-rule="evenodd" d="M551.791 177.56L568.191 193.52C569.731 195.03 572.251 194.99 573.751 193.45C575.251 191.91 575.221 189.41 573.681 187.9L557.281 171.93C555.731 170.43 553.221 170.46 551.721 172C550.211 173.54 550.251 176.04 551.791 177.55V177.56Z" fill="#FCEFEE"/>
<path fill-rule="evenodd" clip-rule="evenodd" d="M696.151 167.95C697.151 169.86 699.541 170.6 701.451 169.6C703.361 168.6 704.111 166.2 703.111 164.29L692.491 144.01C691.491 142.1 689.101 141.36 687.191 142.36C685.281 143.36 684.531 145.76 685.541 147.67L696.161 167.95H696.151Z" fill="#FCEFEE"/>
<path fill-rule="evenodd" clip-rule="evenodd" d="M728.301 254.28C730.351 254.94 732.581 253.8 733.231 251.75C733.891 249.69 732.741 247.46 730.681 246.8L708.891 239.79C706.841 239.13 704.611 240.27 703.961 242.33C703.301 244.39 704.451 246.62 706.501 247.28L728.291 254.29L728.301 254.28Z" fill="#C5E3F6"/>
<path fill-rule="evenodd" clip-rule="evenodd" d="M709.721 337.72C709.931 339.86 711.871 341.45 714.011 341.24C716.151 341.03 717.751 339.08 717.541 336.94L715.331 314.15C715.121 312.01 713.181 310.42 711.041 310.63C708.901 310.84 707.301 312.79 707.511 314.92L709.721 337.7V337.72Z" fill="#C5E3F6"/>
<path fill-rule="evenodd" clip-rule="evenodd" d="M830.191 263.94C829.321 265.9 830.221 268.25 832.191 269.11C834.161 269.98 836.511 269.07 837.381 267.11L846.661 246.18C847.531 244.22 846.621 241.87 844.661 241C842.691 240.13 840.341 241.04 839.471 243L830.191 263.93V263.94Z" fill="#FCEFEE"/>
<path fill-rule="evenodd" clip-rule="evenodd" d="M1025.14 282.41L1014.52 302.69C1013.52 304.6 1014.26 307 1016.17 308C1018.08 309 1020.47 308.26 1021.47 306.35L1032.09 286.07C1033.09 284.16 1032.34 281.76 1030.43 280.76C1028.52 279.76 1026.14 280.5 1025.14 282.41Z" fill="#C5E3F6"/>
<path fill-rule="evenodd" clip-rule="evenodd" d="M944.561 8.80018L954.071 29.6202C954.961 31.5802 957.321 32.4602 959.281 31.5702C961.241 30.6802 962.121 28.3302 961.231 26.3702L951.721 5.55018C950.831 3.59018 948.471 2.71018 946.511 3.60018C944.551 4.49018 943.671 6.84018 944.571 8.80018H944.561Z" fill="#C5E3F6"/>
<path fill-rule="evenodd" clip-rule="evenodd" d="M937.981 90.9203L929.091 103.75C927.861 105.52 928.311 108 930.081 109.23C931.851 110.46 934.311 110.01 935.541 108.24L944.431 95.4103C945.661 93.6403 945.211 91.1703 943.441 89.9403C941.671 88.7103 939.211 89.1603 937.981 90.9303V90.9203Z" fill="#C5E3F6"/>
</g>
<g clip-path="url(#clip3_418_2320)">
<path fill-rule="evenodd" clip-rule="evenodd" d="M1459.4 203.17C1461.54 202.92 1463.09 200.95 1462.84 198.81C1462.59 196.67 1460.62 195.12 1458.48 195.37L1420.58 199.84C1418.44 200.09 1416.89 202.06 1417.14 204.2C1417.39 206.34 1419.36 207.89 1421.5 207.64L1459.4 203.17Z" fill="#FCCDE2"/>
<path fill-rule="evenodd" clip-rule="evenodd" d="M1208.06 70.3502C1209.08 68.4502 1208.35 66.0502 1206.45 65.0302C1204.55 64.0202 1202.15 64.7402 1201.13 66.6502L1183.15 100.31C1182.14 102.21 1182.86 104.61 1184.77 105.63C1186.67 106.65 1189.07 105.92 1190.09 104.02L1208.06 70.3602V70.3502Z" fill="#FCEFEE"/>
<path fill-rule="evenodd" clip-rule="evenodd" d="M1197.82 150.24C1199.61 149.04 1200.1 146.58 1198.9 144.79C1197.7 143 1195.24 142.51 1193.45 143.71L1178.85 153.49C1177.06 154.69 1176.57 157.15 1177.77 158.94C1178.97 160.73 1181.43 161.22 1183.22 160.02L1197.82 150.24Z" fill="#C5E3F6"/>
<path fill-rule="evenodd" clip-rule="evenodd" d="M1585.96 125.11C1587.94 125.94 1590.27 124.99 1591.1 123.01C1591.93 121.03 1590.98 118.7 1589 117.87L1575.67 112.27C1573.69 111.44 1571.36 112.39 1570.53 114.37C1569.7 116.35 1570.65 118.68 1572.63 119.51L1585.96 125.11Z" fill="#FCEFEE"/>
<path fill-rule="evenodd" clip-rule="evenodd" d="M1237.29 281.2C1239.45 281.19 1241.21 279.41 1241.2 277.25C1241.19 275.09 1239.41 273.33 1237.25 273.35L1207.49 273.52C1205.33 273.53 1203.57 275.31 1203.58 277.47C1203.59 279.63 1205.37 281.39 1207.53 281.38L1237.29 281.21V281.2Z" fill="#FCCDE2"/>
<path fill-rule="evenodd" clip-rule="evenodd" d="M1536.72 283.25C1538.19 281.67 1538.1 279.17 1536.53 277.7C1534.95 276.23 1532.45 276.32 1530.98 277.89L1504.96 305.8C1503.49 307.38 1503.58 309.88 1505.16 311.35C1506.74 312.82 1509.24 312.73 1510.71 311.16L1536.73 283.25H1536.72Z" fill="#FCEFEE"/>
<path fill-rule="evenodd" clip-rule="evenodd" d="M1390.08 67.3503C1390.69 69.4203 1392.9 70.6103 1394.97 69.9903C1397.03 69.3803 1398.23 67.1703 1397.61 65.1003L1392.6 48.2503C1391.98 46.1903 1389.78 44.9903 1387.71 45.6103C1385.65 46.2203 1384.45 48.4303 1385.07 50.5003L1390.09 67.3503H1390.08Z" fill="#FCCDE2"/>
<path fill-rule="evenodd" clip-rule="evenodd" d="M1236.16 97.4603L1274.06 101.93C1276.2 102.18 1278.17 100.63 1278.42 98.4903C1278.67 96.3503 1277.12 94.3803 1274.98 94.1303L1237.08 89.6603C1234.94 89.4103 1232.97 90.9603 1232.72 93.1003C1232.47 95.2403 1234.02 97.2103 1236.16 97.4603Z" fill="#C5E3F6"/>
<path fill-rule="evenodd" clip-rule="evenodd" d="M1332.94 301.37L1349.22 311.31C1351.05 312.43 1353.5 311.84 1354.62 310C1355.74 308.17 1355.15 305.72 1353.32 304.6L1337.03 294.66C1335.2 293.54 1332.75 294.13 1331.63 295.97C1330.51 297.8 1331.11 300.25 1332.94 301.37Z" fill="#FCEFEE"/>
<path fill-rule="evenodd" clip-rule="evenodd" d="M1597.61 229.91L1635.4 224.64C1637.53 224.34 1639.05 222.34 1638.75 220.21C1638.45 218.08 1636.45 216.56 1634.32 216.86L1596.53 222.13C1594.4 222.43 1592.88 224.43 1593.18 226.56C1593.48 228.7 1595.48 230.21 1597.61 229.91Z" fill="#FCEFEE"/>
<path fill-rule="evenodd" clip-rule="evenodd" d="M1192.66 26.3502L1206.19 31.6302C1208.19 32.4102 1210.5 31.4002 1211.28 29.4002C1212.06 27.4002 1211.05 25.0902 1209.05 24.3102L1195.52 19.0302C1193.52 18.2502 1191.21 19.2602 1190.43 21.2602C1189.65 23.2602 1190.66 25.5702 1192.66 26.3502Z" fill="#FCCDE2"/>
<path fill-rule="evenodd" clip-rule="evenodd" d="M1328.73 143.72L1303.21 155.69C1301.26 156.6 1300.41 158.96 1301.32 160.91C1302.24 162.86 1304.6 163.71 1306.55 162.8L1332.07 150.83C1334.02 149.92 1334.87 147.55 1333.96 145.6C1333.05 143.65 1330.69 142.8 1328.73 143.71V143.72Z" fill="#FCCDE2"/>
<path fill-rule="evenodd" clip-rule="evenodd" d="M1642.41 141.18L1629.41 161.67C1628.26 163.48 1628.81 165.94 1630.62 167.09C1632.43 168.24 1634.89 167.69 1636.04 165.88L1649.05 145.39C1650.2 143.58 1649.65 141.12 1647.84 139.97C1646.03 138.82 1643.57 139.37 1642.42 141.18H1642.41Z" fill="#FCEFEE"/>
<path fill-rule="evenodd" clip-rule="evenodd" d="M1503.11 150.99L1472.66 127.99C1470.94 126.69 1468.46 127.04 1467.16 128.76C1465.86 130.48 1466.21 132.96 1467.93 134.26L1498.38 157.26C1500.1 158.56 1502.58 158.21 1503.88 156.49C1505.18 154.77 1504.84 152.29 1503.11 150.99Z" fill="#C5E3F6"/>
<path fill-rule="evenodd" clip-rule="evenodd" d="M1469.74 52.3802L1453.03 70.4502C1451.57 72.0302 1451.67 74.5402 1453.25 76.0002C1454.83 77.4602 1457.34 77.3602 1458.8 75.7802L1475.51 57.7102C1476.97 56.1302 1476.87 53.6202 1475.29 52.1602C1473.71 50.7002 1471.2 50.8002 1469.74 52.3802Z" fill="#FCEFEE"/>
<path fill-rule="evenodd" clip-rule="evenodd" d="M1293.65 27.2202L1263.23 50.2602C1261.51 51.5602 1261.17 54.0402 1262.47 55.7602C1263.77 57.4802 1266.25 57.8202 1267.97 56.5202L1298.39 33.4802C1300.11 32.1802 1300.45 29.7002 1299.15 27.9802C1297.85 26.2602 1295.36 25.9202 1293.65 27.2202Z" fill="#C5E3F6"/>
<path fill-rule="evenodd" clip-rule="evenodd" d="M1569.77 44.6202L1554.07 61.6202C1552.61 63.2002 1552.71 65.7102 1554.29 67.1702C1555.87 68.6302 1558.38 68.5302 1559.84 66.9502L1575.54 49.9502C1577 48.3702 1576.9 45.8602 1575.32 44.4002C1573.74 42.9402 1571.23 43.0402 1569.77 44.6202Z" fill="#C5E3F6"/>
<path fill-rule="evenodd" clip-rule="evenodd" d="M1661.02 303.15L1638.48 272.36C1637.21 270.62 1634.73 270.24 1632.99 271.51C1631.25 272.78 1630.87 275.26 1632.14 277L1654.68 307.79C1655.95 309.53 1658.43 309.91 1660.17 308.64C1661.91 307.36 1662.29 304.89 1661.02 303.15Z" fill="#FCEFEE"/>
<path fill-rule="evenodd" clip-rule="evenodd" d="M1359.48 250.87L1333.46 222.96C1331.99 221.38 1329.48 221.3 1327.91 222.76C1326.33 224.23 1326.25 226.74 1327.71 228.31L1353.73 256.22C1355.2 257.8 1357.71 257.89 1359.28 256.42C1360.85 254.95 1360.94 252.44 1359.47 250.87H1359.48Z" fill="#C5E3F6"/>
<path fill-rule="evenodd" clip-rule="evenodd" d="M1136.98 233.03C1135.15 234.15 1134.56 236.6 1135.68 238.43C1136.8 240.26 1139.24 240.86 1141.08 239.74L1166.82 224.03C1168.65 222.91 1169.24 220.46 1168.12 218.63C1167 216.8 1164.55 216.21 1162.72 217.33L1136.98 233.04V233.03Z" fill="#C5E3F6"/>
<path fill-rule="evenodd" clip-rule="evenodd" d="M1114.99 32.7202L1141.05 18.8002C1142.95 17.7802 1143.68 15.3902 1142.67 13.4802C1141.65 11.5802 1139.26 10.8502 1137.35 11.8702L1114.99 23.8202V32.7302V32.7202Z" fill="#FCEFEE"/>
<path fill-rule="evenodd" clip-rule="evenodd" d="M1674.32 36.7802L1681.92 32.7202V23.8102L1670.62 29.8402C1668.72 30.8602 1667.99 33.2502 1669.01 35.1602C1670.02 37.0602 1672.42 37.7902 1674.32 36.7702V36.7802Z" fill="#FCEFEE"/>
<path fill-rule="evenodd" clip-rule="evenodd" d="M1539.15 233.51L1517.91 224.97C1515.92 224.17 1513.6 225.16 1512.79 227.15C1511.99 229.14 1512.97 231.45 1514.96 232.25L1536.2 240.79C1538.19 241.59 1540.51 240.61 1541.32 238.61C1542.12 236.62 1541.14 234.31 1539.15 233.51Z" fill="#FCEFEE"/>
<path fill-rule="evenodd" clip-rule="evenodd" d="M1150.27 119.87L1114.99 109.37V117.57L1148.03 127.41C1150.09 128.03 1152.3 126.83 1152.92 124.77C1153.53 122.71 1152.34 120.5 1150.27 119.88V119.87Z" fill="#FCEFEE"/>
<path fill-rule="evenodd" clip-rule="evenodd" d="M1681.92 109.37L1680.63 108.99C1678.56 108.37 1676.36 109.57 1675.75 111.63C1675.13 113.7 1676.33 115.9 1678.39 116.52L1681.92 117.57V109.37Z" fill="#FCEFEE"/>
<path fill-rule="evenodd" clip-rule="evenodd" d="M1427.08 309.68C1426.17 311.63 1427.02 313.99 1428.97 314.9C1430.92 315.82 1433.28 314.96 1434.19 313.01L1450.4 278.46C1451.31 276.51 1450.46 274.15 1448.51 273.23C1446.56 272.32 1444.2 273.17 1443.29 275.12L1427.08 309.67V309.68Z" fill="#FCEFEE"/>
<path fill-rule="evenodd" clip-rule="evenodd" d="M1233.64 217.77C1231.58 218.39 1230.39 220.59 1231 222.66C1231.62 224.72 1233.82 225.92 1235.89 225.3L1247.95 221.7C1250.01 221.08 1251.21 218.87 1250.59 216.81C1249.97 214.75 1247.76 213.55 1245.7 214.17L1233.64 217.77Z" fill="#C5E3F6"/>
<path fill-rule="evenodd" clip-rule="evenodd" d="M1396.7 140.12C1395.4 141.84 1395.74 144.32 1397.46 145.62C1399.18 146.92 1401.66 146.58 1402.96 144.86L1417.16 126.11C1418.46 124.39 1418.12 121.91 1416.4 120.61C1414.68 119.31 1412.2 119.65 1410.9 121.37L1396.7 140.12Z" fill="#FCCDE2"/>
<path fill-rule="evenodd" clip-rule="evenodd" d="M1124.2 304.05C1122.62 305.51 1122.52 308.02 1123.98 309.6C1125.44 311.18 1127.95 311.28 1129.53 309.82L1147.62 293.12C1149.2 291.66 1149.3 289.15 1147.84 287.57C1146.38 285.99 1143.87 285.89 1142.29 287.35L1124.2 304.06V304.05Z" fill="#FCEFEE"/>
<path fill-rule="evenodd" clip-rule="evenodd" d="M1557.52 165.23L1543.16 188.76C1542.04 190.59 1542.63 193.04 1544.47 194.16C1546.3 195.28 1548.75 194.69 1549.87 192.86L1564.24 169.33C1565.36 167.5 1564.77 165.05 1562.93 163.93C1561.1 162.81 1558.65 163.4 1557.53 165.24L1557.52 165.23Z" fill="#FCEFEE"/>
<path fill-rule="evenodd" clip-rule="evenodd" d="M1364.39 185.73L1353.77 206.01C1352.77 207.92 1353.51 210.32 1355.42 211.32C1357.33 212.32 1359.71 211.58 1360.72 209.67L1371.34 189.39C1372.34 187.48 1371.59 185.08 1369.68 184.08C1367.77 183.08 1365.38 183.82 1364.38 185.73H1364.39Z" fill="#FCCDE2"/>
<path fill-rule="evenodd" clip-rule="evenodd" d="M1347 79.2503L1336.38 99.5303C1335.38 101.44 1336.12 103.84 1338.03 104.84C1339.94 105.84 1342.33 105.1 1343.33 103.19L1353.95 82.9103C1354.95 81.0003 1354.2 78.6003 1352.29 77.6003C1350.38 76.6003 1348 77.3403 1347 79.2503Z" fill="#FCEFEE"/>
<path fill-rule="evenodd" clip-rule="evenodd" d="M1655.51 72.1302L1632.69 73.9502C1630.55 74.1202 1628.91 76.0402 1629.08 78.1802C1629.25 80.3202 1631.16 81.9502 1633.3 81.7802L1656.12 79.9602C1658.26 79.7902 1659.9 77.8702 1659.73 75.7302C1659.56 73.5902 1657.65 71.9602 1655.51 72.1302Z" fill="#FCEFEE"/>
<path fill-rule="evenodd" clip-rule="evenodd" d="M1680.83 208.36L1670.21 228.64C1669.21 230.55 1669.95 232.95 1671.87 233.95C1673.78 234.95 1676.17 234.21 1677.17 232.3L1681.93 223.21V207.07C1681.49 207.41 1681.11 207.84 1680.84 208.36H1680.83Z" fill="#C5E3F6"/>
<path fill-rule="evenodd" clip-rule="evenodd" d="M1114.99 223.2L1120.85 212.01C1121.85 210.1 1121.1 207.7 1119.19 206.7C1117.8 205.97 1116.16 206.17 1114.99 207.06V223.2Z" fill="#C5E3F6"/>
<path fill-rule="evenodd" clip-rule="evenodd" d="M1132.29 57.0903L1149.97 71.6403C1151.63 73.0103 1154.14 72.7603 1155.51 71.1103C1156.88 69.4503 1156.63 66.9503 1154.98 65.5903L1137.3 51.0503C1135.64 49.6803 1133.13 49.9303 1131.76 51.5803C1130.39 53.2403 1130.64 55.7403 1132.29 57.1003V57.0903Z" fill="#FCCDE2"/>
<path fill-rule="evenodd" clip-rule="evenodd" d="M1118.86 177.56L1135.26 193.52C1136.8 195.03 1139.32 194.99 1140.82 193.45C1142.32 191.91 1142.29 189.41 1140.75 187.9L1124.35 171.93C1122.8 170.43 1120.29 170.46 1118.79 172C1117.28 173.54 1117.32 176.04 1118.86 177.55V177.56Z" fill="#FCEFEE"/>
<path fill-rule="evenodd" clip-rule="evenodd" d="M1263.22 167.95C1264.22 169.86 1266.61 170.6 1268.52 169.6C1270.43 168.6 1271.18 166.2 1270.18 164.29L1259.56 144.01C1258.56 142.1 1256.17 141.36 1254.26 142.36C1252.35 143.36 1251.6 145.76 1252.61 147.67L1263.23 167.95H1263.22Z" fill="#FCEFEE"/>
<path fill-rule="evenodd" clip-rule="evenodd" d="M1295.37 254.28C1297.42 254.94 1299.65 253.8 1300.3 251.75C1300.96 249.69 1299.81 247.46 1297.75 246.8L1275.96 239.79C1273.91 239.13 1271.68 240.27 1271.03 242.33C1270.37 244.39 1271.52 246.62 1273.57 247.28L1295.36 254.29L1295.37 254.28Z" fill="#C5E3F6"/>
<path fill-rule="evenodd" clip-rule="evenodd" d="M1276.79 337.72C1277 339.86 1278.94 341.45 1281.08 341.24C1283.22 341.03 1284.82 339.08 1284.61 336.94L1282.4 314.15C1282.19 312.01 1280.25 310.42 1278.11 310.63C1275.97 310.84 1274.37 312.79 1274.58 314.92L1276.79 337.7V337.72Z" fill="#C5E3F6"/>
<path fill-rule="evenodd" clip-rule="evenodd" d="M1397.26 263.94C1396.39 265.9 1397.29 268.25 1399.26 269.11C1401.23 269.98 1403.58 269.07 1404.45 267.11L1413.73 246.18C1414.6 244.22 1413.69 241.87 1411.73 241C1409.76 240.13 1407.41 241.04 1406.54 243L1397.26 263.93V263.94Z" fill="#FCEFEE"/>
<path fill-rule="evenodd" clip-rule="evenodd" d="M1592.21 282.41L1581.59 302.69C1580.59 304.6 1581.33 307 1583.24 308C1585.15 309 1587.54 308.26 1588.54 306.35L1599.16 286.07C1600.16 284.16 1599.41 281.76 1597.5 280.76C1595.59 279.76 1593.21 280.5 1592.21 282.41Z" fill="#C5E3F6"/>
<path fill-rule="evenodd" clip-rule="evenodd" d="M1511.63 8.80018L1521.14 29.6202C1522.03 31.5802 1524.39 32.4602 1526.35 31.5702C1528.31 30.6802 1529.19 28.3302 1528.3 26.3702L1518.79 5.55018C1517.9 3.59018 1515.54 2.71018 1513.58 3.60018C1511.62 4.49018 1510.74 6.84018 1511.64 8.80018H1511.63Z" fill="#C5E3F6"/>
<path fill-rule="evenodd" clip-rule="evenodd" d="M1505.05 90.9203L1496.16 103.75C1494.93 105.52 1495.38 108 1497.15 109.23C1498.92 110.46 1501.38 110.01 1502.61 108.24L1511.5 95.4103C1512.73 93.6403 1512.28 91.1703 1510.51 89.9403C1508.74 88.7103 1506.28 89.1603 1505.05 90.9303V90.9203Z" fill="#C5E3F6"/>
<path fill-rule="evenodd" clip-rule="evenodd" d="M1329.53 12.6403L1352.41 12.1903C1354.57 12.1503 1356.31 10.3403 1356.27 8.18027C1356.23 6.03027 1354.43 4.29027 1352.27 4.33027L1329.38 4.78027C1327.22 4.82027 1325.48 6.63027 1325.52 8.79027C1325.56 10.9403 1327.36 12.6803 1329.52 12.6403H1329.53Z" fill="#FCEFEE"/>
</g>
<g clip-path="url(#clip4_418_2320)">
<path fill-rule="evenodd" clip-rule="evenodd" d="M1774.99 70.3502C1776.01 68.4502 1775.28 66.0502 1773.38 65.0302C1771.48 64.0202 1769.08 64.7402 1768.06 66.6502L1750.08 100.31C1749.07 102.21 1749.79 104.61 1751.7 105.63C1753.6 106.65 1756 105.92 1757.02 104.02L1774.99 70.3602V70.3502Z" fill="#FCEFEE"/>
<path fill-rule="evenodd" clip-rule="evenodd" d="M1764.75 150.24C1766.54 149.04 1767.03 146.58 1765.83 144.79C1764.63 143 1762.17 142.51 1760.38 143.71L1745.78 153.49C1743.99 154.69 1743.5 157.15 1744.7 158.94C1745.9 160.73 1748.36 161.22 1750.15 160.02L1764.75 150.24Z" fill="#C5E3F6"/>
<path fill-rule="evenodd" clip-rule="evenodd" d="M1804.22 281.2C1806.38 281.19 1808.14 279.41 1808.13 277.25C1808.12 275.09 1806.34 273.33 1804.18 273.35L1774.42 273.52C1772.26 273.53 1770.5 275.31 1770.51 277.47C1770.52 279.63 1772.3 281.39 1774.46 281.38L1804.22 281.21V281.2Z" fill="#FCCDE2"/>
<path fill-rule="evenodd" clip-rule="evenodd" d="M1803.09 97.4603L1840.99 101.93C1843.13 102.18 1845.1 100.63 1845.35 98.4903C1845.6 96.3503 1844.05 94.3803 1841.91 94.1303L1804.01 89.6603C1801.87 89.4103 1799.9 90.9603 1799.65 93.1003C1799.4 95.2403 1800.95 97.2103 1803.09 97.4603Z" fill="#C5E3F6"/>
<path fill-rule="evenodd" clip-rule="evenodd" d="M1899.87 301.37L1916.15 311.31C1917.98 312.43 1920.43 311.84 1921.55 310C1922.67 308.17 1922.08 305.72 1920.25 304.6L1903.96 294.66C1902.13 293.54 1899.68 294.13 1898.56 295.97C1897.44 297.8 1898.04 300.25 1899.87 301.37Z" fill="#FCEFEE"/>
<path fill-rule="evenodd" clip-rule="evenodd" d="M1759.59 26.3502L1773.12 31.6302C1775.12 32.4102 1777.43 31.4002 1778.21 29.4002C1778.99 27.4002 1777.98 25.0902 1775.98 24.3102L1762.45 19.0302C1760.45 18.2502 1758.14 19.2602 1757.36 21.2602C1756.58 23.2602 1757.59 25.5702 1759.59 26.3502Z" fill="#FCCDE2"/>
<path fill-rule="evenodd" clip-rule="evenodd" d="M1895.66 143.72L1870.14 155.69C1868.19 156.6 1867.34 158.96 1868.25 160.91C1869.17 162.86 1871.53 163.71 1873.48 162.8L1899 150.83C1900.95 149.92 1901.8 147.55 1900.89 145.6C1899.98 143.65 1897.62 142.8 1895.66 143.71V143.72Z" fill="#FCCDE2"/>
<path fill-rule="evenodd" clip-rule="evenodd" d="M1860.58 27.2202L1830.16 50.2602C1828.44 51.5602 1828.1 54.0402 1829.4 55.7602C1830.7 57.4802 1833.18 57.8202 1834.9 56.5202L1865.32 33.4802C1867.04 32.1802 1867.38 29.7002 1866.08 27.9802C1864.78 26.2602 1862.29 25.9202 1860.58 27.2202Z" fill="#C5E3F6"/>
<path fill-rule="evenodd" clip-rule="evenodd" d="M1926.41 250.87L1900.39 222.96C1898.92 221.38 1896.41 221.3 1894.84 222.76C1893.26 224.23 1893.18 226.74 1894.64 228.31L1920.66 256.22C1922.13 257.8 1924.64 257.89 1926.21 256.42C1927.78 254.95 1927.87 252.44 1926.4 250.87H1926.41Z" fill="#C5E3F6"/>
<path fill-rule="evenodd" clip-rule="evenodd" d="M1703.91 233.03C1702.08 234.15 1701.49 236.6 1702.61 238.43C1703.73 240.26 1706.17 240.86 1708.01 239.74L1733.75 224.03C1735.58 222.91 1736.17 220.46 1735.05 218.63C1733.93 216.8 1731.48 216.21 1729.65 217.33L1703.91 233.04V233.03Z" fill="#C5E3F6"/>
<path fill-rule="evenodd" clip-rule="evenodd" d="M1681.92 32.7202L1707.98 18.8002C1709.88 17.7802 1710.61 15.3902 1709.6 13.4802C1708.58 11.5802 1706.19 10.8502 1704.28 11.8702L1681.92 23.8202V32.7302V32.7202Z" fill="#FCEFEE"/>
<path fill-rule="evenodd" clip-rule="evenodd" d="M1717.2 119.87L1681.92 109.37V117.57L1714.96 127.41C1717.02 128.03 1719.23 126.83 1719.85 124.77C1720.46 122.71 1719.27 120.5 1717.2 119.88V119.87Z" fill="#FCEFEE"/>
<path fill-rule="evenodd" clip-rule="evenodd" d="M1800.57 217.77C1798.51 218.39 1797.32 220.59 1797.93 222.66C1798.55 224.72 1800.75 225.92 1802.82 225.3L1814.88 221.7C1816.94 221.08 1818.14 218.87 1817.52 216.81C1816.9 214.75 1814.69 213.55 1812.63 214.17L1800.57 217.77Z" fill="#C5E3F6"/>
<path fill-rule="evenodd" clip-rule="evenodd" d="M1691.13 304.05C1689.55 305.51 1689.45 308.02 1690.91 309.6C1692.37 311.18 1694.88 311.28 1696.46 309.82L1714.55 293.12C1716.13 291.66 1716.23 289.15 1714.77 287.57C1713.31 285.99 1710.8 285.89 1709.22 287.35L1691.13 304.06V304.05Z" fill="#FCEFEE"/>
<path fill-rule="evenodd" clip-rule="evenodd" d="M1931.32 185.73L1920.7 206.01C1919.7 207.92 1920.44 210.32 1922.35 211.32C1924.26 212.32 1926.64 211.58 1927.65 209.67L1938.27 189.39C1939.27 187.48 1938.52 185.08 1936.61 184.08C1934.7 183.08 1932.31 183.82 1931.31 185.73H1931.32Z" fill="#FCCDE2"/>
<path fill-rule="evenodd" clip-rule="evenodd" d="M1913.93 79.2503L1903.31 99.5303C1902.31 101.44 1903.05 103.84 1904.96 104.84C1906.87 105.84 1909.26 105.1 1910.26 103.19L1920.88 82.9103C1921.88 81.0003 1921.13 78.6003 1919.22 77.6003C1917.31 76.6003 1914.93 77.3403 1913.93 79.2503Z" fill="#FCEFEE"/>
<path fill-rule="evenodd" clip-rule="evenodd" d="M1681.92 223.2L1687.78 212.01C1688.78 210.1 1688.03 207.7 1686.12 206.7C1684.73 205.97 1683.09 206.17 1681.92 207.06V223.2Z" fill="#C5E3F6"/>
<path fill-rule="evenodd" clip-rule="evenodd" d="M1699.22 57.0903L1716.9 71.6403C1718.56 73.0103 1721.07 72.7603 1722.44 71.1103C1723.81 69.4503 1723.56 66.9503 1721.91 65.5903L1704.23 51.0503C1702.57 49.6803 1700.06 49.9303 1698.69 51.5803C1697.32 53.2403 1697.57 55.7403 1699.22 57.1003V57.0903Z" fill="#FCCDE2"/>
<path fill-rule="evenodd" clip-rule="evenodd" d="M1685.79 177.56L1702.19 193.52C1703.73 195.03 1706.25 194.99 1707.75 193.45C1709.25 191.91 1709.22 189.41 1707.68 187.9L1691.28 171.93C1689.73 170.43 1687.22 170.46 1685.72 172C1684.21 173.54 1684.25 176.04 1685.79 177.55V177.56Z" fill="#FCEFEE"/>
<path fill-rule="evenodd" clip-rule="evenodd" d="M1830.15 167.95C1831.15 169.86 1833.54 170.6 1835.45 169.6C1837.36 168.6 1838.11 166.2 1837.11 164.29L1826.49 144.01C1825.49 142.1 1823.1 141.36 1821.19 142.36C1819.28 143.36 1818.53 145.76 1819.54 147.67L1830.16 167.95H1830.15Z" fill="#FCEFEE"/>
<path fill-rule="evenodd" clip-rule="evenodd" d="M1862.3 254.28C1864.35 254.94 1866.58 253.8 1867.23 251.75C1867.89 249.69 1866.74 247.46 1864.68 246.8L1842.89 239.79C1840.84 239.13 1838.61 240.27 1837.96 242.33C1837.3 244.39 1838.45 246.62 1840.5 247.28L1862.29 254.29L1862.3 254.28Z" fill="#C5E3F6"/>
<path fill-rule="evenodd" clip-rule="evenodd" d="M1843.72 337.72C1843.93 339.86 1845.87 341.45 1848.01 341.24C1850.15 341.03 1851.75 339.08 1851.54 336.94L1849.33 314.15C1849.12 312.01 1847.18 310.42 1845.04 310.63C1842.9 310.84 1841.3 312.79 1841.51 314.92L1843.72 337.7V337.72Z" fill="#C5E3F6"/>
<path fill-rule="evenodd" clip-rule="evenodd" d="M1896.46 12.6403L1919.34 12.1903C1921.5 12.1503 1923.24 10.3403 1923.2 8.18027C1923.16 6.03027 1921.36 4.29027 1919.2 4.33027L1896.31 4.78027C1894.15 4.82027 1892.41 6.63027 1892.45 8.79027C1892.49 10.9403 1894.29 12.6803 1896.45 12.6403H1896.46Z" fill="#FCEFEE"/>
</g>
</g>
<defs>
<clipPath id="clip0_418_2320">
<rect width="1921" height="322" fill="white"/>
</clipPath>
<clipPath id="clip1_418_2320">
<rect width="566.93" height="566.93" fill="white" transform="translate(-19.0088 -0.0197754)"/>
</clipPath>
<clipPath id="clip2_418_2320">
<rect width="566.93" height="566.93" fill="white" transform="translate(547.921 -0.0197754)"/>
</clipPath>
<clipPath id="clip3_418_2320">
<rect width="566.93" height="566.93" fill="white" transform="translate(1114.99 -0.0197754)"/>
</clipPath>
<clipPath id="clip4_418_2320">
<rect width="566.93" height="566.93" fill="white" transform="translate(1681.92 -0.0197754)"/>
</clipPath>
</defs>
</svg>
