<svg xmlns="http://www.w3.org/2000/svg" version="1.1" xmlns:xlink="http://www.w3.org/1999/xlink" xmlns:svgjs="http://svgjs.dev/svgjs" width="2000" height="1500" viewBox="0 0 2000 1500"><rect width="2000" height="1500" fill="#ffffff"></rect><g transform="matrix(0.75,0,0,0.75,249.090909090909,427.0511378952601)"><svg viewBox="0 0 396 171" data-background-color="#ffffff" preserveAspectRatio="xMidYMid meet" height="863" width="2000" xmlns="http://www.w3.org/2000/svg" xmlns:xlink="http://www.w3.org/1999/xlink"><g id="tight-bounds" transform="matrix(1,0,0,1,0.2400000000000091,-0.17863196691843086)"><svg viewBox="0 0 395.52 171.35726158273383" height="171.35726158273383" width="395.52"><g><svg viewBox="0 0 395.52 171.35726158273383" height="171.35726158273383" width="395.52"><g transform="matrix(1,0,0,1,0,82.43639827338131)"><svg viewBox="0 0 395.52 88.92086330935253" height="88.92086330935253" width="395.52"><g id="textblocktransform"><svg viewBox="0 0 395.52 88.92086330935253" height="88.92086330935253" width="395.52" id="textblock"><g><svg viewBox="0 0 395.52 88.92086330935253" height="88.92086330935253" width="395.52"><g transform="matrix(1,0,0,1,0,0)"><svg width="395.52" viewBox="1.5 -55.400001525878906 256.8312683105469 56.25" height="88.92086330935253" data-palette-color="#e363aa"><g class="undefined-text-0" data-fill-palette-color="primary" id="text-0"><path d="M20.3 0.65Q18.05 0.65 16.35 0.28 14.65-0.1 12.35-0.8L12.35-0.8Q11.35-1.15 10.35-1.43 9.35-1.7 8.5-1.75L8.5-1.75Q7.85-1.8 7.55-1.9 7.25-2 6.45-2.5L6.45-2.5Q6.95-3.15 7.2-3.58 7.45-4 7.6-4.8L7.6-4.8Q8.5-8.8 10.65-19.75 12.8-30.7 12.8-32.15L12.8-32.15Q12.8-33.1 11.75-33.1L11.75-33.1Q10.95-33.1 8.7-32.75L8.7-32.75Q4.75-32.2 3.65-32.2L3.65-32.2Q2.55-32.2 2.02-32.6 1.5-33 1.5-34.05L1.5-34.05Q1.5-34.7 1.75-35.45L1.75-35.45Q2.7-35 3.45-34.85 4.2-34.7 5.95-34.7L5.95-34.7Q7.25-34.7 9.38-34.8 11.5-34.9 12.55-34.95L12.55-34.95Q17.55-35.25 19.6-35.25L19.6-35.25Q28.35-35.25 33.6-31.45 38.85-27.65 38.85-18.9L38.85-18.9Q38.85-12.95 36.38-8.5 33.9-4.05 29.68-1.7 25.45 0.65 20.3 0.65L20.3 0.65ZM20.3-1.5Q24.65-1.5 28.23-3.78 31.8-6.05 33.9-10.1 36-14.15 36-19.3L36-19.3Q36-27 31.48-30.2 26.95-33.4 19.8-33.4L19.8-33.4Q17.7-33.4 16.9-33.1 16.1-32.8 15.9-31.95L15.9-31.95Q13.5-20 11.05-7.35L11.05-7.35Q10.7-5.8 10.7-5.25L10.7-5.25Q10.7-4.6 11.55-4.05L11.55-4.05Q13.2-2.9 15.55-2.2 17.9-1.5 20.3-1.5L20.3-1.5ZM67.15-17.85Q67.35-17.8 67.5-17.55 67.65-17.3 67.65-17L67.65-17Q67.65-15.95 66.67-14.98 65.7-14 64.12-13.4 62.55-12.8 60.95-12.8L60.95-12.8Q58.45-12.8 56.67-14.1 54.9-15.4 54.4-17.75L54.4-17.75Q52.15-17.5 50.27-14.9 48.4-12.3 47.65-9.25L47.65-9.25Q47.55-8.75 46.9-6.18 46.25-3.6 45.65-0.1L45.65-0.1Q45.6 0.05 45.52 0.13 45.45 0.2 45.2 0.2L45.2 0.2Q44.85 0.2 44.15-0.1 43.45-0.4 43.45-0.75L43.45-0.75Q43.45-1.45 43.7-2.6L43.7-2.6Q46.75-16.7 47.65-20.05L47.65-20.05Q47.75-20.5 47.87-20.65 48-20.8 48.3-20.8L48.3-20.8Q48.5-20.8 49.15-20.48 49.8-20.15 50.2-19.8L50.2-19.8 49.3-16.9 49-15.9Q50.15-17.7 51.65-18.8 53.15-19.9 54.85-19.9L54.85-19.9Q55.35-19.9 55.85-19.8 56.35-19.7 56.55-19.55L56.55-19.55Q56.55-17.1 57.82-15.93 59.1-14.75 61.4-14.75L61.4-14.75Q63.45-14.75 64.8-15.45 66.15-16.15 67.15-17.85L67.15-17.85ZM84.05-11.95Q84.95-11.8 84.95-10.95L84.95-10.95Q84.95-8.95 82.37-6.28 79.8-3.6 76.3-1.68 72.8 0.25 70.45 0.25L70.45 0.25Q68.2 0.25 66.55-0.93 64.9-2.1 64.02-3.55 63.15-5 63.15-5.7L63.15-5.7Q63.95-8.55 64.9-13.6L64.9-13.6 65.45-16.4Q65.65-17.4 66.9-18.48 68.15-19.55 69.7-20.28 71.25-21 72.2-21L72.2-21Q72.95-21 74.02-20.53 75.09-20.05 75.92-19.05 76.75-18.05 76.75-16.5L76.75-16.5Q76.75-14.7 75.55-13.1 74.34-11.5 72-10.5 69.65-9.5 66.34-9.5L66.34-9.5 65.65-6.15Q65.65-5.7 66.17-4.65 66.7-3.6 67.87-2.75 69.05-1.9 70.84-1.9L70.84-1.9Q73.25-1.9 75.9-3.48 78.55-5.05 80.75-7.4 82.95-9.75 84.05-11.95L84.05-11.95ZM71.8-18.95Q71.2-18.95 70.25-18.45 69.3-17.95 68.52-17.2 67.75-16.45 67.59-15.8L67.59-15.8Q67.09-13.55 66.7-11.25L66.7-11.25Q70.55-11.4 72.5-12.78 74.45-14.15 74.45-15.9L74.45-15.9Q74.45-17.15 73.55-18.05 72.65-18.95 71.8-18.95L71.8-18.95ZM110.14-11.55Q110.79-11.55 110.79-10.25L110.79-10.25Q110.79-7.95 108.77-5.4 106.74-2.85 103.87-1.13 100.99 0.6 98.59 0.6L98.59 0.6Q96.64 0.6 95.59-0.6 94.54-1.8 94.34-3.7L94.34-3.7Q93.09-1.9 91.19-0.75 89.29 0.4 87.79 0.4L87.79 0.4Q86.49 0.4 85.22-0.48 83.94-1.35 83.14-2.63 82.34-3.9 82.29-5.05L82.29-5.05 84.74-15.15Q85.04-16.35 86.27-17.73 87.49-19.1 89.24-20 90.99-20.9 92.79-20.9L92.79-20.9Q95.09-20.9 96.84-19.35L96.84-19.35Q97.29-20.55 97.52-20.85 97.74-21.15 98.19-21.2L98.19-21.2 100.64-21.45 100.79-21.35Q99.79-20.55 99.34-18.85L99.34-18.85Q97.79-13.05 97.22-10.3 96.64-7.55 96.64-5.45L96.64-5.45Q96.64-3.35 97.19-2.38 97.74-1.4 99.04-1.4L99.04-1.4Q100.64-1.4 102.87-2.7 105.09-4 107.09-6.33 109.09-8.65 110.14-11.55L110.14-11.55ZM87.99-1.95Q88.84-1.95 90.07-2.55 91.29-3.15 92.37-4.28 93.44-5.4 93.84-6.85L93.84-6.85 94.79-10.95Q94.99-11.95 95.49-14.18 95.99-16.4 96.29-17.6L96.29-17.6Q94.89-19 92.89-19L92.89-19Q91.34-19 90.09-18.18 88.84-17.35 88.04-16.18 87.24-15 87.04-14.1L87.04-14.1 85.04-5.2Q85.14-3.95 86.04-2.95 86.94-1.95 87.99-1.95L87.99-1.95ZM143.09-11.55Q143.14-10 141.22-7.15 139.29-4.3 136.49-2.1 133.69 0.1 130.99 0.1L130.99 0.1Q129.09 0.1 127.87-1.13 126.64-2.35 126.64-4.85L126.64-4.85Q126.64-6.9 127.32-9.47 127.99-12.05 129.14-15.6L129.14-15.6Q129.49-16.55 129.79-17.6L129.79-17.6Q129.79-17.75 129.59-17.88 129.39-18 129.19-18L129.19-18Q128.54-18 126.62-16.13 124.69-14.25 122.72-11.83 120.74-9.4 120.09-8.15L120.09-8.15Q119.59-6.6 118.44-1.65L118.44-1.65Q118.24-0.8 118.12-0.5 117.99-0.2 117.69-0.2L117.69-0.2Q117.24-0.2 116.67-0.75 116.09-1.3 116.09-1.85L116.09-1.85Q116.09-2.4 116.59-4.25L116.59-4.25Q118.69-11.95 119.99-17.6L119.99-17.6Q119.69-18 119.24-18L119.24-18Q118.49-18 116.69-16.15 114.89-14.3 112.94-11.48 110.99-8.65 109.74-5.9L109.74-5.9Q108.99-3.45 108.39-0.25L108.39-0.25Q107.89-0.25 107.09-0.6 106.29-0.95 106.29-1.3L106.29-1.3Q106.29-1.7 106.79-3.55L106.79-3.55 111.04-20.1Q111.14-20.55 111.29-20.75 111.44-20.95 111.74-20.95L111.74-20.95Q112.04-20.95 112.77-20.65 113.49-20.35 113.69-20.15L113.69-20.15 113.24-18.55Q113.09-17.95 112.57-16.07 112.04-14.2 111.59-12.2L111.59-12.2Q113.14-14.9 114.82-16.68 116.49-18.45 117.89-19.28 119.29-20.1 120.04-20.1L120.04-20.1Q120.59-20.1 121.44-19.5 122.29-18.9 122.29-18.5L122.29-18.5Q121.84-15.75 120.99-12.3L120.99-12.3Q123.04-15.1 125.89-17.88 128.74-20.65 130.24-20.65L130.24-20.65Q130.94-20.65 131.74-20.1 132.54-19.55 132.59-18.8L132.59-18.8Q130.99-13.85 130.12-10.65 129.24-7.45 129.24-4.9L129.24-4.9Q129.24-3.4 129.74-2.73 130.24-2.05 131.54-2.05L131.54-2.05Q134.59-2.05 137.44-5.38 140.29-8.7 141.79-13.2L141.79-13.2Q142.34-13.2 142.72-12.7 143.09-12.2 143.09-11.55L143.09-11.55Z" fill="#e363aa" data-fill-palette-color="primary"></path><path d="M160.241 0.85Q156.591 0.85 153.541-0.63 150.491-2.1 148.671-5.15 146.841-8.2 146.841-12.75L146.841-12.75Q146.841-18.55 149.741-23.88 152.641-29.2 157.621-32.5 162.591-35.8 168.491-35.8L168.491-35.8Q171.691-35.8 174.491-34.83 177.291-33.85 178.391-32.2L178.391-32.2Q177.891-30.9 177.521-28.93 177.141-26.95 177.091-25.2L177.091-25.2 175.841-25Q175.841-25.75 175.771-26.85 175.691-27.95 175.541-28.85L175.541-28.85Q175.191-31.2 173.571-32.45 171.941-33.7 168.641-33.7L168.641-33.7Q163.291-33.7 158.971-30.6 154.641-27.5 152.191-22.65 149.741-17.8 149.741-12.85L149.741-12.85Q149.741-9.05 151.221-6.53 152.691-4 155.171-2.78 157.641-1.55 160.691-1.55L160.691-1.55Q165.941-1.55 170.491-4.98 175.041-8.4 177.391-14.75L177.391-14.75Q178.741-14.75 178.741-12.9L178.741-12.9Q178.741-10.3 176.141-7.03 173.541-3.75 169.271-1.45 164.991 0.85 160.241 0.85L160.241 0.85ZM212.841-11.55Q213.491-11.55 213.491-10.25L213.491-10.25Q213.491-7.95 211.461-5.4 209.441-2.85 206.561-1.13 203.691 0.6 201.291 0.6L201.291 0.6Q199.341 0.6 198.291-0.6 197.241-1.8 197.041-3.7L197.041-3.7Q195.791-1.9 193.891-0.75 191.991 0.4 190.491 0.4L190.491 0.4Q189.191 0.4 187.911-0.48 186.641-1.35 185.841-2.63 185.041-3.9 184.991-5.05L184.991-5.05 187.441-15.15Q187.741-16.35 188.961-17.73 190.191-19.1 191.941-20 193.691-20.9 195.491-20.9L195.491-20.9Q197.791-20.9 199.541-19.35L199.541-19.35Q199.991-20.55 200.211-20.85 200.441-21.15 200.891-21.2L200.891-21.2 203.341-21.45 203.491-21.35Q202.491-20.55 202.041-18.85L202.041-18.85Q200.491-13.05 199.911-10.3 199.341-7.55 199.341-5.45L199.341-5.45Q199.341-3.35 199.891-2.38 200.441-1.4 201.741-1.4L201.741-1.4Q203.341-1.4 205.561-2.7 207.791-4 209.791-6.33 211.791-8.65 212.841-11.55L212.841-11.55ZM190.691-1.95Q191.541-1.95 192.761-2.55 193.991-3.15 195.061-4.28 196.141-5.4 196.541-6.85L196.541-6.85 197.491-10.95Q197.691-11.95 198.191-14.18 198.691-16.4 198.991-17.6L198.991-17.6Q197.591-19 195.591-19L195.591-19Q194.041-19 192.791-18.18 191.541-17.35 190.741-16.18 189.941-15 189.741-14.1L189.741-14.1 187.741-5.2Q187.841-3.95 188.741-2.95 189.641-1.95 190.691-1.95L190.691-1.95ZM239.091-55.4Q242.991-55.4 245.681-53.03 248.391-50.65 248.391-45.85L248.391-45.85Q248.391-45.6 248.181-45.4L248.181-45.4Q246.681-48.9 244.211-50.4 241.741-51.9 238.291-51.9L238.291-51.9Q234.891-51.9 231.361-48.85 227.841-45.8 224.491-40.13 221.141-34.45 218.241-26.7L218.241-26.7Q216.791-22.85 215.681-18.28 214.591-13.7 212.931-6L212.931-6 212.491-3.95Q216.091-8.85 221.431-15.1 226.791-21.35 227.591-21.35L227.591-21.35Q229.241-21.35 230.241-20.35L230.241-20.35Q226.791-17.75 221.791-12.15L221.791-12.15Q222.641-8.85 223.461-6.7 224.291-4.55 225.641-3.03 226.991-1.5 228.991-1.5L228.991-1.5Q230.291-1.5 232.361-3.3 234.431-5.1 236.241-8 238.041-10.9 238.641-14.05L238.641-14.05Q239.091-14.05 239.391-13.48 239.681-12.9 239.681-11.95L239.681-11.95Q239.681-10.3 237.841-7.23 235.991-4.15 233.361-1.78 230.741 0.6 228.341 0.6L228.341 0.6Q225.291 0.6 223.461-1.98 221.641-4.55 219.841-9.9L219.841-9.9Q215.341-4.65 212.431-0.3L212.431-0.3Q211.791 0.7 211.541 0.7L211.541 0.7Q211.141 0.7 210.461 0.08 209.791-0.55 209.741-1L209.741-1Q209.681-2 210.741-7.03 211.791-12.05 213.311-17.9 214.841-23.75 216.091-27.3L216.091-27.3Q220.891-40.8 226.561-48.1 232.241-55.4 239.091-55.4L239.091-55.4ZM257.431-11.95Q258.331-11.8 258.331-10.95L258.331-10.95Q258.331-8.95 255.761-6.28 253.181-3.6 249.681-1.68 246.181 0.25 243.831 0.25L243.831 0.25Q241.581 0.25 239.931-0.93 238.281-2.1 237.411-3.55 236.531-5 236.531-5.7L236.531-5.7Q237.331-8.55 238.281-13.6L238.281-13.6 238.831-16.4Q239.031-17.4 240.281-18.48 241.531-19.55 243.081-20.28 244.631-21 245.581-21L245.581-21Q246.331-21 247.411-20.53 248.481-20.05 249.311-19.05 250.131-18.05 250.131-16.5L250.131-16.5Q250.131-14.7 248.931-13.1 247.731-11.5 245.381-10.5 243.031-9.5 239.731-9.5L239.731-9.5 239.031-6.15Q239.031-5.7 239.561-4.65 240.081-3.6 241.261-2.75 242.431-1.9 244.231-1.9L244.231-1.9Q246.631-1.9 249.281-3.48 251.931-5.05 254.131-7.4 256.331-9.75 257.431-11.95L257.431-11.95ZM245.181-18.95Q244.581-18.95 243.631-18.45 242.681-17.95 241.911-17.2 241.131-16.45 240.981-15.8L240.981-15.8Q240.481-13.55 240.081-11.25L240.081-11.25Q243.931-11.4 245.881-12.78 247.831-14.15 247.831-15.9L247.831-15.9Q247.831-17.15 246.931-18.05 246.031-18.95 245.181-18.95L245.181-18.95Z" fill="#9a1961" data-fill-palette-color="accent"></path></g></svg></g></svg></g></svg></g></svg></g><g transform="matrix(1,0,0,1,161.7631687142644,0)"><svg viewBox="0 0 71.9936625714712 61.4443165467626" height="61.4443165467626" width="71.9936625714712"><g><svg xmlns="http://www.w3.org/2000/svg" xmlns:xlink="http://www.w3.org/1999/xlink" version="1.1" x="0" y="0" viewBox="5 19.545000076293945 90 76.8121566772461" enable-background="new 0 0 100 100" xml:space="preserve" height="61.4443165467626" width="71.9936625714712" class="icon-icon-0" data-fill-palette-color="accent" id="icon-0"><path d="M92.5 19.545h-85c-1.354 0-2.5 1.149-2.5 2.5v40c0 0.926 0.512 1.776 1.33 2.209l60.104 31.82c0.782 0.421 1.676 0.348 2.441-0.057C85.721 87.072 95 75.01 95 62.045v-40C95 20.664 93.881 19.545 92.5 19.545zM89.841 24.545c-1.132 9.846-8.928 19.136-22.265 26.477L17.565 24.545H89.841zM10 26.197l55.104 29.173v14.341L10 40.539V26.197zM10 46.196L65.104 75.37v14.343L10 60.54V46.196zM90 62.045c0 10.122-7.039 19.788-19.896 27.524V55.334C79.095 50.365 85.825 44.49 90 38.056V62.045z" fill="#9a1961" data-fill-palette-color="accent"></path></svg></g></svg></g><g></g></svg></g><defs></defs></svg><rect width="395.52" height="171.35726158273383" fill="none" stroke="none" visibility="hidden"></rect></g></svg></g></svg>