<svg width="432" height="182" viewBox="0 0 432 182" fill="none" xmlns="http://www.w3.org/2000/svg">
<path d="M39.813 65.1943V59.2923H77.1926V103.885C77.1926 113.504 74.3072 120.586 68.5363 125.133C62.7654 129.767 54.9835 132.084 45.1904 132.084C39.4196 132.084 33.8673 130.598 28.5336 127.625C23.2873 124.739 20.6642 120.761 20.6642 115.69C20.6642 114.728 20.9702 113.329 21.5823 111.493L26.0416 99.9508C18.3471 96.5407 12.139 90.7698 7.41736 82.6381C2.78316 74.5064 0.466064 65.3692 0.466064 55.2264C0.466064 41.4113 4.40076 29.9569 12.2702 20.8634C20.227 11.7699 31.2441 7.22311 45.3216 7.22311C52.4041 7.22311 59.2242 8.62212 65.782 11.4201C72.3399 14.2181 75.6188 17.5408 75.6188 21.388C75.6188 22.8745 75.1379 24.5795 74.176 26.5031L66.8313 38.5695L62.1096 36.9956L62.7654 32.1429C63.1152 30.0444 63.2901 28.0333 63.2901 26.1097C63.2901 22.6996 61.6287 19.7267 58.3061 17.191C54.9835 14.6553 50.6553 13.3875 45.3216 13.3875C37.2773 13.3875 31.1567 17.3222 26.9597 25.1916C22.8501 32.9735 20.7953 42.7665 20.7953 54.5706C20.7953 66.2873 23.025 75.8617 27.4843 83.2939C32.0311 90.6387 38.6326 94.3111 47.2889 94.3111C50.7865 94.3111 54.1965 93.6116 57.5192 92.2126V65.1943H39.813ZM40.4688 102.967C37.4085 102.967 34.4793 102.574 31.6813 101.787V105.853C31.6813 115.821 33.7798 121.985 37.9768 124.346C39.9005 125.395 42.5236 125.92 45.8462 125.92C49.2563 125.92 52.0543 124.696 54.2402 122.247C56.4262 119.887 57.5192 116.302 57.5192 111.493V99.5573C52.2729 101.831 46.5894 102.967 40.4688 102.967Z" fill="#FC5C9C"/>
<path d="M164.044 35.4218V86.4417C164.044 88.8025 164.612 90.6824 165.749 92.0814C166.886 93.393 168.634 94.0487 170.995 94.0487C173.356 94.0487 176.067 92.7809 179.127 90.2452L181.488 93.393C174.493 99.7759 167.498 102.967 160.503 102.967C152.196 102.967 147.081 99.0764 145.157 91.2945C140.611 99.0764 133.922 102.967 125.09 102.967C115.035 102.967 107.384 99.7322 102.138 93.2618C96.8917 86.704 94.2686 78.3974 94.2686 68.3421C94.2686 58.1993 97.0666 49.849 102.663 43.2912C108.346 36.7333 116.259 33.4544 126.402 33.4544C134.184 33.4544 140.173 36.5585 144.37 42.7665V35.4218H164.044ZM118.27 48.2751C115.822 53.1716 114.598 59.8169 114.598 68.2109C114.598 76.6049 115.822 83.2502 118.27 88.1467C120.719 93.0432 124.435 95.4915 129.419 95.4915C134.49 95.4915 138.337 93.0432 140.96 88.1467C143.671 83.1628 145.026 76.5175 145.026 68.2109C145.026 59.9043 143.671 53.3028 140.96 48.4063C138.337 43.4223 134.49 40.9303 129.419 40.9303C124.435 40.9303 120.719 43.3786 118.27 48.2751Z" fill="#FC5C9C"/>
<path d="M178.859 9.32161C181.395 6.69848 184.587 4.59998 188.434 3.0261C192.369 1.45222 196.216 0.665283 199.976 0.665283C203.823 0.665283 206.971 1.45222 209.419 3.0261C211.867 4.51254 213.091 6.39245 213.091 8.66583V86.4417C213.091 88.8025 213.66 90.6824 214.796 92.0814C215.933 93.393 217.682 94.0487 220.043 94.0487C222.403 94.0487 225.114 92.7809 228.174 90.2452L230.535 93.393C223.54 99.7759 216.545 102.967 209.55 102.967C198.795 102.967 193.418 96.5407 193.418 83.6874V6.9608C188.609 8.18493 184.936 10.3272 182.401 13.3875L178.859 9.32161Z" fill="#FC5C9C"/>
<path d="M248.113 20.6011C246.102 18.5026 245.097 16.0106 245.097 13.1252C245.097 10.2397 246.102 7.79146 248.113 5.78039C250.212 3.68188 252.704 2.63263 255.589 2.63263C258.475 2.63263 260.923 3.68188 262.934 5.78039C265.032 7.79146 266.082 10.2397 266.082 13.1252C266.082 16.0106 265.032 18.5026 262.934 20.6011C260.923 22.6121 258.475 23.6177 255.589 23.6177C252.704 23.6177 250.212 22.6121 248.113 20.6011ZM253.097 33.4544C261.316 33.4544 265.426 36.9956 265.426 44.0781V86.4417C265.426 88.8025 265.994 90.6824 267.131 92.0814C268.268 93.393 270.016 94.0487 272.377 94.0487C274.738 94.0487 277.449 92.7809 280.509 90.2452L282.87 93.393C275.875 99.7759 268.88 102.967 261.885 102.967C251.13 102.967 245.752 96.5407 245.752 83.6874V39.7499C240.943 40.9741 237.271 43.1163 234.735 46.1766L231.194 42.1108C233.73 39.4876 236.921 37.3891 240.768 35.8152C244.703 34.2414 248.813 33.4544 253.097 33.4544Z" fill="#FC5C9C"/>
<path d="M285.416 42.6354V37.258H296.171V18.3714H315.844V37.258H330.665V42.6354H315.844V86.4417C315.844 88.8025 316.413 90.6824 317.549 92.0814C318.686 93.393 320.435 94.0487 322.796 94.0487C325.156 94.0487 327.867 92.7809 330.927 90.2452L333.288 93.393C326.293 99.7759 319.298 102.967 312.303 102.967C301.548 102.967 296.171 96.5407 296.171 83.6874V42.6354H285.416Z" fill="#FC5C9C"/>
<path d="M344.676 37.7826C348.523 33.3233 350.447 29.476 350.447 26.2408C350.447 22.9182 349.31 20.3388 347.037 18.5026C344.851 16.5789 343.758 14.1307 343.758 11.1578C343.758 8.09749 344.72 5.60551 346.644 3.68188C348.655 1.67082 351.059 0.665283 353.857 0.665283C356.743 0.665283 359.147 1.75826 361.071 3.9442C362.994 6.13014 363.956 9.10302 363.956 12.8628C363.956 22.6559 358.71 32.0554 348.217 41.0615L344.676 37.7826Z" fill="#FC5C9C"/>
<path d="M394.832 46.1766C392.734 42.9414 391.685 40.056 391.685 37.5203C391.685 34.9846 392.646 32.7549 394.57 30.8313C396.581 28.8202 398.986 27.8147 401.784 27.8147C404.582 27.8147 406.942 28.8202 408.866 30.8313C410.877 32.7549 411.883 35.072 411.883 37.7826C411.883 40.4932 410.527 43.3786 407.817 46.4389C414.987 51.6852 420.495 56.844 424.342 61.9154C428.19 66.8993 430.113 72.714 430.113 79.3592C430.113 85.917 427.621 91.513 422.637 96.1472C417.654 100.694 410.571 102.967 401.39 102.967C397.193 102.967 392.952 102.049 388.668 100.213C384.471 98.3769 381.279 96.1035 379.093 93.393L382.11 90.2452C385.957 93.3055 390.111 94.8357 394.57 94.8357C399.029 94.8357 402.658 93.6553 405.456 91.2945C408.341 88.8462 409.784 85.0864 409.784 80.015C409.784 71.9707 406.811 63.5767 400.865 54.8329L381.061 79.6215L377.782 76.7361C384.427 65.9812 390.111 55.7948 394.832 46.1766Z" fill="#FC5C9C"/>
<path d="M186.732 133.944C186.732 133.183 186.447 132.624 185.876 132.268C185.329 131.887 184.723 131.697 184.057 131.697C182.726 131.697 181.431 131.899 180.171 132.303C178.911 132.684 177.781 133.219 176.783 133.908C175.784 134.574 174.976 135.382 174.358 136.333C173.764 137.26 173.467 138.27 173.467 139.364C173.467 140.125 173.562 140.731 173.752 141.182C173.966 141.634 174.204 141.979 174.465 142.217C174.727 142.431 174.988 142.573 175.25 142.645C175.535 142.692 175.737 142.716 175.856 142.716C176.45 142.716 176.937 142.621 177.318 142.431C177.698 142.217 178.043 142.003 178.352 141.789C178.661 141.551 178.946 141.337 179.208 141.147C179.493 140.933 179.814 140.826 180.171 140.826C180.456 140.826 180.753 140.897 181.062 141.04C181.395 141.159 181.692 141.361 181.954 141.646C182.239 141.931 182.477 142.312 182.667 142.787C182.857 143.239 182.952 143.798 182.952 144.463C182.952 145.414 182.762 146.234 182.381 146.924C182.025 147.613 181.549 148.195 180.955 148.671C180.385 149.123 179.719 149.467 178.958 149.705C178.221 149.919 177.484 150.026 176.747 150.026C175.606 150.026 174.572 149.836 173.645 149.455C172.742 149.051 171.969 148.505 171.327 147.815C170.685 147.126 170.198 146.317 169.865 145.39C169.532 144.463 169.366 143.477 169.366 142.431C169.366 139.459 170.115 137.022 171.612 135.12C173.11 133.195 175.143 131.685 177.71 130.592C180.301 129.474 183.309 128.714 186.732 128.309C190.179 127.882 193.84 127.668 197.715 127.668C202.137 127.668 206.131 128.119 209.697 129.023C213.286 129.902 216.353 131.34 218.897 133.337C221.44 135.334 223.402 137.949 224.78 141.182C226.159 144.392 226.849 148.314 226.849 152.95C226.849 157.586 226.112 161.698 224.638 165.288C223.188 168.878 221.191 171.897 218.647 174.346C216.127 176.771 213.155 178.625 209.732 179.909C206.333 181.169 202.684 181.798 198.785 181.798C196.193 181.798 194.102 181.668 192.509 181.406C190.94 181.168 189.727 180.752 188.871 180.158C188.016 179.54 187.445 178.732 187.16 177.733C186.875 176.711 186.732 175.427 186.732 173.882V133.944ZM198.499 174.203C198.499 175.558 198.797 176.533 199.391 177.127C200.009 177.698 200.912 177.983 202.101 177.983C203.884 177.983 205.524 177.591 207.022 176.806C208.544 176.022 209.851 174.678 210.945 172.777C212.038 170.851 212.894 168.295 213.512 165.11C214.13 161.924 214.439 157.919 214.439 153.093C214.439 149.86 214.237 147.066 213.833 144.713C213.453 142.335 212.942 140.327 212.3 138.686C211.658 137.022 210.921 135.679 210.089 134.657C209.28 133.611 208.448 132.803 207.593 132.232C206.737 131.638 205.893 131.245 205.061 131.055C204.253 130.841 203.527 130.734 202.886 130.734C201.34 130.734 200.223 131.079 199.534 131.768C198.844 132.458 198.499 133.694 198.499 135.477V174.203Z" fill="#FFA1C6"/>
<path d="M243.43 164.611C243.43 165.371 243.537 166.203 243.751 167.107C243.989 167.986 244.322 168.878 244.75 169.781C245.178 170.685 245.701 171.552 246.319 172.384C246.961 173.193 247.686 173.918 248.494 174.56C249.326 175.201 250.241 175.713 251.24 176.093C252.238 176.473 253.332 176.664 254.52 176.664C255.352 176.664 256.125 176.568 256.838 176.378C257.551 176.188 258.217 175.927 258.835 175.594C259.453 175.261 260.048 174.881 260.618 174.453C261.189 174.001 261.759 173.526 262.33 173.026L263.221 173.882C262.674 174.619 261.973 175.427 261.117 176.307C260.261 177.187 259.227 178.019 258.015 178.803C256.802 179.564 255.388 180.206 253.771 180.729C252.155 181.228 250.313 181.478 248.244 181.478C246.176 181.478 244.155 181.109 242.182 180.372C240.233 179.611 238.497 178.482 236.976 176.984C235.454 175.487 234.23 173.621 233.303 171.386C232.4 169.151 231.948 166.536 231.948 163.541C231.948 161.378 232.221 159.393 232.768 157.586C233.315 155.779 234.052 154.151 234.979 152.7C235.93 151.25 237.023 149.978 238.26 148.885C239.52 147.791 240.839 146.888 242.218 146.175C243.597 145.438 244.999 144.891 246.426 144.534C247.876 144.154 249.267 143.964 250.598 143.964C252.357 143.964 253.89 144.154 255.198 144.534C256.505 144.915 257.587 145.426 258.443 146.068C259.322 146.71 259.976 147.459 260.404 148.314C260.832 149.146 261.046 150.026 261.046 150.953C261.046 152.07 260.725 153.081 260.083 153.984C259.441 154.864 258.586 155.636 257.516 156.302L243.43 164.611ZM250.598 157.372C250.907 157.182 251.156 157.003 251.347 156.837C251.561 156.647 251.727 156.433 251.846 156.195C251.965 155.934 252.048 155.625 252.095 155.268C252.167 154.888 252.202 154.424 252.202 153.877C252.202 153.283 252.131 152.629 251.989 151.916C251.87 151.179 251.656 150.49 251.347 149.848C251.038 149.206 250.645 148.671 250.17 148.243C249.694 147.815 249.124 147.601 248.458 147.601C247.602 147.601 246.865 147.863 246.247 148.386C245.653 148.885 245.154 149.539 244.75 150.347C244.369 151.155 244.06 152.082 243.823 153.128C243.609 154.151 243.442 155.185 243.323 156.231C243.204 157.277 243.133 158.287 243.109 159.262C243.086 160.213 243.074 161.021 243.074 161.687L250.598 157.372Z" fill="#FFA1C6"/>
<path d="M279.482 146.817C278.935 146.817 278.412 146.888 277.913 147.031C277.437 147.173 277.009 147.411 276.629 147.744C276.249 148.053 275.952 148.457 275.738 148.956C275.524 149.432 275.417 150.002 275.417 150.668C275.417 151.595 275.75 152.522 276.415 153.449C277.105 154.353 277.948 155.304 278.947 156.302C279.969 157.277 281.063 158.299 282.228 159.369C283.416 160.415 284.51 161.532 285.508 162.721C286.531 163.886 287.374 165.134 288.04 166.465C288.73 167.796 289.074 169.223 289.074 170.744C289.074 172.456 288.777 173.977 288.183 175.308C287.612 176.64 286.78 177.769 285.687 178.696C284.617 179.623 283.309 180.336 281.764 180.836C280.243 181.311 278.543 181.549 276.665 181.549C275.024 181.549 273.539 181.323 272.207 180.871C270.876 180.396 269.687 179.825 268.641 179.16C267.619 178.47 266.74 177.745 266.003 176.984C265.266 176.224 264.695 175.534 264.291 174.916L265.539 174.025C265.848 174.381 266.24 174.774 266.716 175.201C267.191 175.606 267.714 175.986 268.285 176.343C268.879 176.699 269.509 176.996 270.175 177.234C270.84 177.448 271.518 177.555 272.207 177.555C273.919 177.555 275.322 177.151 276.415 176.343C277.509 175.511 278.055 174.286 278.055 172.67C278.055 171.766 277.758 170.839 277.164 169.888C276.57 168.914 275.821 167.915 274.917 166.893C274.014 165.871 273.039 164.813 271.993 163.719C270.947 162.626 269.973 161.496 269.069 160.332C268.166 159.167 267.417 157.966 266.823 156.73C266.228 155.494 265.931 154.21 265.931 152.879C265.931 151.381 266.228 150.074 266.823 148.956C267.441 147.839 268.249 146.912 269.248 146.175C270.27 145.438 271.423 144.891 272.707 144.534C274.014 144.154 275.357 143.964 276.736 143.964C278.329 143.964 279.779 144.107 281.087 144.392C282.394 144.677 283.511 145.117 284.439 145.711C285.389 146.282 286.115 147.007 286.614 147.886C287.137 148.766 287.398 149.788 287.398 150.953C287.398 151.857 287.101 152.641 286.507 153.307C285.912 153.972 285.08 154.305 284.011 154.305C282.988 154.305 282.204 154.091 281.657 153.663C281.134 153.212 280.873 152.605 280.873 151.845C280.873 151.345 280.991 150.953 281.229 150.668C281.491 150.383 281.776 150.157 282.085 149.99C282.394 149.8 282.667 149.646 282.905 149.527C283.167 149.384 283.297 149.206 283.297 148.992C283.297 148.326 282.941 147.803 282.228 147.423C281.514 147.019 280.599 146.817 279.482 146.817Z" fill="#FFA1C6"/>
<path d="M306.44 146.817C305.894 146.817 305.371 146.888 304.871 147.031C304.396 147.173 303.968 147.411 303.588 147.744C303.207 148.053 302.91 148.457 302.696 148.956C302.482 149.432 302.375 150.002 302.375 150.668C302.375 151.595 302.708 152.522 303.374 153.449C304.063 154.353 304.907 155.304 305.905 156.302C306.928 157.277 308.021 158.299 309.186 159.369C310.375 160.415 311.468 161.532 312.467 162.721C313.489 163.886 314.333 165.134 314.999 166.465C315.688 167.796 316.033 169.223 316.033 170.744C316.033 172.456 315.736 173.977 315.141 175.308C314.571 176.64 313.739 177.769 312.645 178.696C311.575 179.623 310.268 180.336 308.723 180.836C307.201 181.311 305.501 181.549 303.623 181.549C301.983 181.549 300.497 181.323 299.166 180.871C297.835 180.396 296.646 179.825 295.6 179.16C294.578 178.47 293.698 177.745 292.961 176.984C292.224 176.224 291.654 175.534 291.249 174.916L292.498 174.025C292.807 174.381 293.199 174.774 293.674 175.201C294.15 175.606 294.673 175.986 295.243 176.343C295.838 176.699 296.468 176.996 297.133 177.234C297.799 177.448 298.476 177.555 299.166 177.555C300.877 177.555 302.28 177.151 303.374 176.343C304.467 175.511 305.014 174.286 305.014 172.67C305.014 171.766 304.717 170.839 304.122 169.888C303.528 168.914 302.779 167.915 301.876 166.893C300.973 165.871 299.998 164.813 298.952 163.719C297.906 162.626 296.931 161.496 296.028 160.332C295.124 159.167 294.376 157.966 293.781 156.73C293.187 155.494 292.89 154.21 292.89 152.879C292.89 151.381 293.187 150.074 293.781 148.956C294.399 147.839 295.208 146.912 296.206 146.175C297.228 145.438 298.381 144.891 299.665 144.534C300.973 144.154 302.316 143.964 303.695 143.964C305.287 143.964 306.738 144.107 308.045 144.392C309.353 144.677 310.47 145.117 311.397 145.711C312.348 146.282 313.073 147.007 313.572 147.886C314.095 148.766 314.357 149.788 314.357 150.953C314.357 151.857 314.06 152.641 313.465 153.307C312.871 153.972 312.039 154.305 310.969 154.305C309.947 154.305 309.162 154.091 308.616 153.663C308.093 153.212 307.831 152.605 307.831 151.845C307.831 151.345 307.95 150.953 308.188 150.668C308.449 150.383 308.734 150.157 309.043 149.99C309.353 149.8 309.626 149.646 309.864 149.527C310.125 149.384 310.256 149.206 310.256 148.992C310.256 148.326 309.899 147.803 309.186 147.423C308.473 147.019 307.558 146.817 306.44 146.817Z" fill="#FFA1C6"/>
<path d="M331.865 164.611C331.865 165.371 331.972 166.203 332.186 167.107C332.424 167.986 332.757 168.878 333.185 169.781C333.613 170.685 334.136 171.552 334.754 172.384C335.396 173.193 336.121 173.918 336.929 174.56C337.761 175.201 338.676 175.713 339.675 176.093C340.673 176.473 341.767 176.664 342.956 176.664C343.788 176.664 344.56 176.568 345.273 176.378C345.987 176.188 346.652 175.927 347.27 175.594C347.888 175.261 348.483 174.881 349.053 174.453C349.624 174.001 350.194 173.526 350.765 173.026L351.656 173.882C351.11 174.619 350.408 175.427 349.552 176.307C348.697 177.187 347.663 178.019 346.45 178.803C345.238 179.564 343.823 180.206 342.207 180.729C340.59 181.228 338.748 181.478 336.679 181.478C334.611 181.478 332.591 181.109 330.617 180.372C328.668 179.611 326.933 178.482 325.411 176.984C323.89 175.487 322.665 173.621 321.738 171.386C320.835 169.151 320.383 166.536 320.383 163.541C320.383 161.378 320.657 159.393 321.203 157.586C321.75 155.779 322.487 154.151 323.414 152.7C324.365 151.25 325.459 149.978 326.695 148.885C327.955 147.791 329.274 146.888 330.653 146.175C332.032 145.438 333.434 144.891 334.861 144.534C336.311 144.154 337.702 143.964 339.033 143.964C340.792 143.964 342.326 144.154 343.633 144.534C344.941 144.915 346.022 145.426 346.878 146.068C347.758 146.71 348.411 147.459 348.839 148.314C349.267 149.146 349.481 150.026 349.481 150.953C349.481 152.07 349.16 153.081 348.518 153.984C347.876 154.864 347.021 155.636 345.951 156.302L331.865 164.611ZM339.033 157.372C339.342 157.182 339.592 157.003 339.782 156.837C339.996 156.647 340.162 156.433 340.281 156.195C340.4 155.934 340.483 155.625 340.531 155.268C340.602 154.888 340.638 154.424 340.638 153.877C340.638 153.283 340.566 152.629 340.424 151.916C340.305 151.179 340.091 150.49 339.782 149.848C339.473 149.206 339.081 148.671 338.605 148.243C338.13 147.815 337.559 147.601 336.893 147.601C336.038 147.601 335.301 147.863 334.683 148.386C334.088 148.885 333.589 149.539 333.185 150.347C332.804 151.155 332.495 152.082 332.258 153.128C332.044 154.151 331.877 155.185 331.758 156.231C331.64 157.277 331.568 158.287 331.545 159.262C331.521 160.213 331.509 161.021 331.509 161.687L339.033 157.372Z" fill="#FFA1C6"/>
<path d="M367.846 151.488C368.749 150.109 369.712 148.861 370.734 147.744C371.162 147.268 371.626 146.805 372.125 146.353C372.624 145.901 373.135 145.497 373.658 145.141C374.205 144.784 374.764 144.499 375.334 144.285C375.905 144.071 376.475 143.964 377.046 143.964C378.258 143.964 379.209 144.332 379.899 145.069C380.588 145.783 380.933 146.793 380.933 148.1C380.933 148.909 380.861 149.693 380.719 150.454C380.6 151.191 380.35 152.094 379.97 153.164H378.971C378.829 152.427 378.496 151.821 377.973 151.345C377.45 150.846 376.689 150.597 375.691 150.597C374.954 150.597 374.229 150.739 373.516 151.024C372.802 151.286 372.101 151.619 371.412 152.023C370.746 152.427 370.104 152.867 369.486 153.342C368.892 153.818 368.345 154.269 367.846 154.697V177.84C367.846 178.149 367.798 178.518 367.703 178.946C367.608 179.374 367.37 179.778 366.99 180.158C366.633 180.539 366.087 180.859 365.35 181.121C364.636 181.406 363.65 181.549 362.39 181.549C361.13 181.549 360.131 181.394 359.394 181.085C358.681 180.8 358.135 180.455 357.754 180.051C357.374 179.647 357.136 179.231 357.041 178.803C356.946 178.375 356.898 178.03 356.898 177.769V150.24C356.898 149.551 356.732 148.956 356.399 148.457C356.09 147.934 355.555 147.672 354.794 147.672C354.39 147.672 354.046 147.744 353.76 147.886C353.475 148.029 353.166 148.231 352.833 148.493L352.084 147.601C352.631 147.149 353.237 146.71 353.903 146.282C354.592 145.83 355.329 145.438 356.114 145.105C356.898 144.772 357.742 144.499 358.646 144.285C359.549 144.071 360.5 143.964 361.498 143.964C362.521 143.964 363.388 144.107 364.102 144.392C364.838 144.653 365.433 145.01 365.884 145.462C366.36 145.89 366.728 146.377 366.99 146.924C367.251 147.47 367.442 148.029 367.56 148.6C367.703 149.146 367.786 149.681 367.81 150.204C367.834 150.704 367.846 151.131 367.846 151.488Z" fill="#FFA1C6"/>
<path d="M397.051 147.031V173.383C397.051 174.643 397.288 175.522 397.764 176.022C398.239 176.497 398.893 176.735 399.725 176.735C400.367 176.735 400.938 176.557 401.437 176.2C401.936 175.843 402.364 175.439 402.721 174.988C403.148 174.488 403.517 173.906 403.826 173.24L404.931 173.739C404.575 174.5 404.147 175.332 403.648 176.236C403.172 177.139 402.53 177.983 401.722 178.767C400.914 179.528 399.892 180.17 398.655 180.693C397.443 181.216 395.91 181.478 394.055 181.478C393.009 181.478 391.999 181.323 391.024 181.014C390.073 180.705 389.218 180.218 388.457 179.552C387.72 178.886 387.126 178.054 386.674 177.056C386.222 176.057 385.996 174.857 385.996 173.454V147.031H382.003V144.463C382.668 144.463 383.595 144.297 384.784 143.964C385.973 143.607 387.185 143.025 388.421 142.217C389.681 141.408 390.846 140.327 391.916 138.972C392.986 137.617 393.746 135.941 394.198 133.944H397.051V144.463H402.863C404.765 144.463 405.716 144.142 405.716 143.5C405.716 143.263 405.597 143.108 405.359 143.037C405.122 142.942 404.848 142.835 404.539 142.716C404.254 142.573 403.992 142.383 403.755 142.145C403.517 141.908 403.398 141.515 403.398 140.969C403.398 140.303 403.6 139.78 404.004 139.4C404.432 139.019 404.979 138.829 405.645 138.829C406.073 138.829 406.441 138.924 406.75 139.114C407.083 139.281 407.356 139.518 407.57 139.827C407.784 140.113 407.939 140.446 408.034 140.826C408.153 141.206 408.212 141.587 408.212 141.967C408.212 143.512 407.76 144.748 406.857 145.676C405.977 146.579 404.551 147.031 402.578 147.031H397.051Z" fill="#FFA1C6"/>
<path d="M421.549 146.817C421.002 146.817 420.479 146.888 419.98 147.031C419.504 147.173 419.076 147.411 418.696 147.744C418.316 148.053 418.018 148.457 417.804 148.956C417.591 149.432 417.484 150.002 417.484 150.668C417.484 151.595 417.816 152.522 418.482 153.449C419.171 154.353 420.015 155.304 421.014 156.302C422.036 157.277 423.13 158.299 424.294 159.369C425.483 160.415 426.577 161.532 427.575 162.721C428.597 163.886 429.441 165.134 430.107 166.465C430.796 167.796 431.141 169.223 431.141 170.744C431.141 172.456 430.844 173.977 430.25 175.308C429.679 176.64 428.847 177.769 427.753 178.696C426.684 179.623 425.376 180.336 423.831 180.836C422.309 181.311 420.61 181.549 418.732 181.549C417.091 181.549 415.605 181.323 414.274 180.871C412.943 180.396 411.754 179.825 410.708 179.16C409.686 178.47 408.806 177.745 408.069 176.984C407.333 176.224 406.762 175.534 406.358 174.916L407.606 174.025C407.915 174.381 408.307 174.774 408.783 175.201C409.258 175.606 409.781 175.986 410.352 176.343C410.946 176.699 411.576 176.996 412.242 177.234C412.907 177.448 413.585 177.555 414.274 177.555C415.986 177.555 417.388 177.151 418.482 176.343C419.576 175.511 420.122 174.286 420.122 172.67C420.122 171.766 419.825 170.839 419.231 169.888C418.637 168.914 417.888 167.915 416.984 166.893C416.081 165.871 415.106 164.813 414.06 163.719C413.014 162.626 412.04 161.496 411.136 160.332C410.233 159.167 409.484 157.966 408.89 156.73C408.295 155.494 407.998 154.21 407.998 152.879C407.998 151.381 408.295 150.074 408.89 148.956C409.508 147.839 410.316 146.912 411.314 146.175C412.337 145.438 413.49 144.891 414.773 144.534C416.081 144.154 417.424 143.964 418.803 143.964C420.396 143.964 421.846 144.107 423.153 144.392C424.461 144.677 425.578 145.117 426.505 145.711C427.456 146.282 428.181 147.007 428.681 147.886C429.204 148.766 429.465 149.788 429.465 150.953C429.465 151.857 429.168 152.641 428.574 153.307C427.979 153.972 427.147 154.305 426.077 154.305C425.055 154.305 424.271 154.091 423.724 153.663C423.201 153.212 422.939 152.605 422.939 151.845C422.939 151.345 423.058 150.953 423.296 150.668C423.558 150.383 423.843 150.157 424.152 149.99C424.461 149.8 424.734 149.646 424.972 149.527C425.234 149.384 425.364 149.206 425.364 148.992C425.364 148.326 425.008 147.803 424.294 147.423C423.581 147.019 422.666 146.817 421.549 146.817Z" fill="#FFA1C6"/>
</svg>
