<svg xmlns="http://www.w3.org/2000/svg" version="1.1" xmlns:xlink="http://www.w3.org/1999/xlink" xmlns:svgjs="http://svgjs.dev/svgjs" width="128" height="128" viewBox="0 0 128 128"><g transform="matrix(0.8046875,0,0,0.8046875,12.760752631578946,20.40983995380776)"><svg viewBox="0 0 95 81" data-background-color="#ffffff" preserveAspectRatio="xMidYMid meet" height="109" width="128" xmlns="http://www.w3.org/2000/svg" xmlns:xlink="http://www.w3.org/1999/xlink"><g id="tight-bounds" transform="matrix(1,0,0,1,-0.24049999999999727,-0.24500940955543626)"><svg viewBox="0 0 95.481 81.49001881911086" height="81.49001881911086" width="95.481"><g><svg viewBox="0 0 95.481 81.49001881911086" height="81.49001881911086" width="95.481"><g><svg viewBox="0 0 95.481 81.49001881911086" height="81.49001881911086" width="95.481"><g id="textblocktransform"><svg viewBox="0 0 95.481 81.49001881911086" height="81.49001881911086" width="95.481" id="textblock"><g><svg viewBox="0 0 95.481 81.49001881911086" height="81.49001881911086" width="95.481"><g><svg viewBox="0 0 95.481 81.49001881911086" height="81.49001881911086" width="95.481"><g><svg xmlns="http://www.w3.org/2000/svg" xmlns:xlink="http://www.w3.org/1999/xlink" version="1.1" x="0" y="0" viewBox="5 19.545 90 76.81215837412655" enable-background="new 0 0 100 100" xml:space="preserve" height="81.49001881911086" width="95.481" class="icon-icon-0" data-fill-palette-color="accent" id="icon-0"><path d="M92.5 19.545h-85c-1.354 0-2.5 1.149-2.5 2.5v40c0 0.926 0.512 1.776 1.33 2.209l60.104 31.82c0.782 0.421 1.676 0.348 2.441-0.057C85.721 87.072 95 75.01 95 62.045v-40C95 20.664 93.881 19.545 92.5 19.545zM89.841 24.545c-1.132 9.846-8.928 19.136-22.265 26.477L17.565 24.545H89.841zM10 26.197l55.104 29.173v14.341L10 40.539V26.197zM10 46.196L65.104 75.37v14.343L10 60.54V46.196zM90 62.045c0 10.122-7.039 19.788-19.896 27.524V55.334C79.095 50.365 85.825 44.49 90 38.056V62.045z" fill="#9a1961" data-fill-palette-color="accent"></path></svg></g></svg></g></svg></g></svg></g></svg></g><g></g></svg></g><defs></defs></svg><rect width="95.481" height="81.49001881911086" fill="none" stroke="none" visibility="hidden"></rect></g></svg></g></svg>