<svg width="50" height="86" viewBox="0 0 50 86" fill="none" xmlns="http://www.w3.org/2000/svg">
<path d="M16.97 71.3283C16.602 71.3543 16.6588 71.3851 16.9116 71.4175C17.0381 71.4321 17.2245 71.4418 17.4304 71.4386C17.5341 71.4305 17.6427 71.4224 17.7529 71.4143C17.8632 71.4013 17.9734 71.377 18.082 71.3575C18.3203 71.2214 18.5375 71.0609 18.7336 70.8875C18.1922 71.1679 17.5827 71.3203 16.97 71.3267V71.3283Z" fill="#202020"/>
<path d="M20.4079 69.3573C20.6818 68.7056 20.7807 68.007 20.6932 67.3375C20.7288 67.8222 20.6932 68.3117 20.5505 68.7867C20.3787 69.1611 20.2506 69.307 20.2053 69.3329C20.1826 69.3459 20.1777 69.3281 20.1874 69.2892C20.1972 69.2503 20.2198 69.1887 20.2425 69.1092C20.2652 69.0298 20.3025 68.939 20.3333 68.8385C20.3609 68.7364 20.39 68.6278 20.4192 68.5192C20.4387 68.409 20.4581 68.3004 20.476 68.2015C20.4905 68.1026 20.4938 68.0102 20.5003 67.9389C20.4905 68.0167 20.4808 68.0913 20.4727 68.161C20.4581 68.2307 20.4435 68.2955 20.4289 68.3571C20.4144 68.4187 20.4046 68.4771 20.39 68.5322C20.3738 68.5857 20.3576 68.6359 20.343 68.6829C20.2912 68.8758 20.2279 69.0087 20.1955 69.1125C20.1226 69.3135 20.1145 69.3702 20.1566 69.3735C20.1955 69.3767 20.2733 69.32 20.3349 69.2859C20.3917 69.2519 20.4371 69.2438 20.4095 69.354L20.4079 69.3573Z" fill="#202020"/>
<path d="M20.7387 65.36C20.7532 64.0486 20.6187 64.4149 20.575 64.9661C20.6333 65.052 20.6965 65.9095 20.7387 65.36Z" fill="#202020"/>
<path d="M0.693848 23.7659C0.723025 23.398 0.742471 22.9652 0.779754 23.0268C0.740851 22.6167 0.708436 22.5292 0.693848 23.7659Z" fill="#202020"/>
<path d="M0.779785 23.0269C0.786269 23.1063 0.794376 23.1906 0.802481 23.2911C0.799239 23.2084 0.795998 23.1387 0.792756 23.0447C0.787893 23.0204 0.784648 23.035 0.779785 23.0269Z" fill="#202020"/>
<path d="M17.8598 13.3416C18.3607 13.4647 18.7059 13.7257 18.9766 14.0175C19.2441 14.3158 19.4581 14.6594 19.6023 15.1343L19.5975 15.277C19.5926 15.324 19.5829 15.3726 19.5764 15.418L19.557 15.5558L19.5213 15.692C19.5245 15.7244 19.5278 15.7535 19.531 15.7827C19.5326 15.7973 19.5343 15.8119 19.5359 15.8249C19.5359 15.8443 19.5375 15.8638 19.5391 15.8832C19.544 15.961 19.5472 16.0291 19.5505 16.0907C19.5586 16.2139 19.5667 16.3095 19.5748 16.3841C19.5926 16.5349 19.6104 16.6046 19.6299 16.6629C19.6688 16.778 19.7126 16.8412 19.7563 17.3891C19.6493 18.7669 19.7482 21.6717 19.7401 22.3249C19.6623 22.7788 19.6331 21.7608 19.5861 21.5404C19.6429 23.3105 19.8033 23.1857 19.805 25.3853L19.7596 25.4226C19.9979 30.6778 19.9363 37.3399 20.087 43.1851C20.0951 42.788 20.1308 42.8885 20.1648 42.7361C20.2264 48.9072 20.2345 56.028 20.6317 60.9072C20.5879 57.5712 20.8521 51.9221 20.5555 48.523C20.6738 47.2651 20.502 45.3264 20.6706 44.8045C20.7435 39.9546 20.4452 37.9835 20.4404 33.3199C20.4712 32.6521 20.5538 32.9763 20.6317 32.7834L20.7111 36.4792L20.7775 34.2261C20.8521 35.2003 20.7986 37.5766 20.9494 37.8473C20.7694 34.62 20.9105 29.4556 20.6981 26.6383C20.6608 27.9627 20.7046 29.616 20.6916 31.1851C20.6381 31.8741 20.5992 32.9423 20.5182 32.8726C20.2831 28.389 20.3999 24.6705 20.3253 20.0637C20.3075 18.9096 20.3204 17.3421 20.3999 17.1524C20.4274 17.9094 20.4939 17.3389 20.5312 17.9597C20.4971 17.1427 20.4258 17.1022 20.3658 16.9709C20.3366 16.9044 20.3091 16.8169 20.2913 16.5965C20.2832 16.4862 20.2767 16.3436 20.2734 16.1556C20.2734 16.0615 20.2734 15.9546 20.2718 15.8362C20.2669 15.7325 20.2621 15.6174 20.2572 15.4893C20.3545 15.5671 20.4501 15.6531 20.5474 15.7454C20.4663 15.5266 20.4128 15.2608 20.3188 14.9641C20.2815 14.8134 20.2183 14.6626 20.1632 14.4989C20.0919 14.3433 20.027 14.1747 19.9298 14.0159C19.7482 13.6933 19.5018 13.3756 19.1955 13.1162C18.8891 12.8601 18.5228 12.6705 18.1483 12.5813C17.9084 12.4338 18.0251 12.4306 18.3607 12.5197C18.6849 12.6251 19.2149 12.8893 19.6331 13.3497C19.604 13.3156 19.5764 13.2832 19.5505 13.2524C19.5197 13.2232 19.4905 13.1957 19.4629 13.1697C19.4062 13.1162 19.3511 13.066 19.2992 13.019C19.1874 12.9347 19.0869 12.8601 18.9912 12.7985C18.8924 12.7434 18.8016 12.6948 18.7173 12.6526C18.6298 12.6137 18.5455 12.5862 18.4644 12.5554C18.385 12.523 18.3023 12.5035 18.2197 12.4824C18.1354 12.4646 18.0543 12.4322 17.9603 12.4192C17.8695 12.4014 17.7707 12.3819 17.662 12.3625C17.5534 12.3479 17.4335 12.3333 17.299 12.3155C17.6458 12.2766 18.0154 12.2717 18.3834 12.3382C17.769 12.2134 17.2552 12.1599 16.7624 12.1145C16.2713 12.0659 15.8466 11.9799 15.4948 11.941C15.4105 11.9994 16.0686 12.1793 14.5044 12.1647C13.8333 12.1339 14.177 12.0756 14.0181 12.0415C13.9322 12.0999 13.3697 12.2069 12.3356 12.2134C12.1459 12.1339 13.0212 12.095 13.0893 12.014C12.3112 12.0188 11.6758 12.0334 11.1117 11.9686C9.73391 12.0351 11.2009 12.0821 10.358 12.168C8.24262 12.1112 10.1473 11.894 9.36757 11.7255C10.961 11.612 13.0115 11.5763 13.8641 11.5147L10.807 11.5796C10.9918 11.4872 8.74025 11.4207 10.3531 11.3299C8.83102 11.2878 7.14846 11.291 5.48211 11.317C5.09956 11.317 4.56465 11.3316 4.09781 11.445C3.62287 11.552 3.17872 11.7514 2.77834 11.9994C2.37796 12.2474 2.0246 12.5538 1.73931 12.9006C1.45402 13.2459 1.21249 13.6171 1.05363 14.0094C1.11523 13.9056 1.17035 13.7906 1.24005 13.6884C1.30975 13.5863 1.37783 13.4891 1.43619 13.4096C1.56586 13.2556 1.65825 13.1697 1.65177 13.2265C1.59179 13.314 1.5302 13.3934 1.48481 13.4728C1.43781 13.5523 1.39566 13.6268 1.35514 13.6949C1.26923 13.8278 1.22384 13.9543 1.16872 14.0548C1.11523 14.1553 1.08119 14.2412 1.04877 14.3141C1.01635 14.3855 0.988795 14.4422 0.964481 14.4892C0.870465 14.6805 0.825082 14.7096 0.745654 14.8766C0.697025 15.1976 0.690539 15.4326 0.713233 15.6125C0.721338 15.7017 0.731064 15.7795 0.744032 15.8443C0.75862 15.9043 0.773204 15.9562 0.789414 16.0048C0.852631 16.1993 0.922333 16.3403 0.982309 16.6824C0.847769 18.989 0.928822 19.3132 0.734306 21.2778L0.89478 21.1562C0.765103 22.5486 1.00825 22.7529 0.914231 24.2523C0.880191 24.3349 0.838044 23.7611 0.800762 23.2991C0.852632 24.6283 0.666229 24.523 0.727826 25.8197L0.549514 24.7921C0.555998 25.8246 0.611111 27.3386 0.45874 26.8069C0.641909 28.611 0.568969 31.7752 0.674331 34.0267L0.534931 33.8776C0.703511 35.0414 0.526826 38.1585 0.727826 39.17L0.671086 39.3418L0.857501 41.6598C0.841292 42.7102 0.632182 42.3536 0.690537 42.4379C0.727819 44.7413 0.739172 46.5486 0.666229 48.0302C0.85264 48.403 0.901265 50.8264 0.925579 52.7553C0.867224 57.3994 0.883437 62.2153 0.93855 66.9517L0.943407 67.3959C0.945028 67.545 0.959622 67.712 0.969348 67.8676C0.993663 68.0248 1.01474 68.1837 1.0504 68.3377L1.11199 68.5678L1.14279 68.6829L1.18493 68.7948C1.40052 69.3913 1.75065 69.9343 2.2029 70.3671C2.65677 70.7967 3.20466 71.1192 3.79307 71.3056C3.93895 71.3543 4.09132 71.3818 4.23883 71.4191C4.3912 71.4402 4.54195 71.4645 4.69432 71.4775C4.84507 71.4807 5.00392 71.4921 5.14657 71.4872L5.57775 71.4791C7.87304 71.4272 10.1165 71.3786 12.2772 71.33C13.5707 71.3219 15.3522 71.116 16.9667 71.0252C14.9891 70.9798 14.801 71.0722 12.8559 71.0739C11.3938 71.0252 10.8556 70.8339 9.59774 70.714L10.2364 70.8712C8.26207 70.9977 8.87479 70.7869 7.31542 70.9474L7.38026 70.6945C7.10632 70.7594 6.62327 70.7659 6.1386 70.7464C5.89708 70.7367 5.65394 70.7221 5.43673 70.7043C5.32812 70.6945 5.226 70.6864 5.13199 70.6783C5.10929 70.6767 5.0866 70.6735 5.06391 70.6718C5.04608 70.6686 5.02662 70.6654 5.01041 70.6621C4.97637 70.6556 4.94395 70.6492 4.91477 70.6443C4.84183 70.6686 4.76726 70.6994 4.69108 70.7172L4.45928 70.7707C3.9276 70.6281 3.5402 70.3898 3.2776 70.1645C3.01987 69.9311 2.86911 69.7252 2.82697 69.5566C2.80914 69.6166 2.79293 69.6798 2.77834 69.743C2.75403 69.6977 2.69405 69.6166 2.60814 69.5129C2.5352 69.401 2.4266 69.2697 2.33907 69.1044C2.14941 68.7834 1.9938 68.3571 1.94355 67.9648C1.93058 67.8676 1.91599 67.7719 1.91923 67.6812C1.91923 67.5872 1.91437 67.5126 1.91923 67.4186C1.92734 67.2289 1.93869 67.0749 1.95328 66.9728C1.98245 66.7686 2.02622 66.775 2.0943 67.1446C2.05864 66.7848 1.97435 66.4557 1.9938 65.6647L2.15427 65.5447C2.11375 64.4052 2.08133 63.1344 2.1721 62.8053C2.211 63.4229 2.2807 63.6304 2.3504 63.833C2.37796 59.0155 1.82684 62.815 1.81225 58.5487L1.91599 58.5989L1.80576 57.5161L1.93706 56.3814C1.58207 54.8431 1.96949 50.3936 1.78145 47.8162C1.75228 46.8031 1.963 45.4691 1.93868 43.545L1.77821 43.6698C1.9403 42.1169 2.04404 36.3333 2.41362 34.8842C2.29043 33.4237 2.37959 35.0382 2.25315 35.0058C2.08619 32.1561 2.33744 31.9583 2.43307 30.4638C2.35365 28.7083 2.37148 31.806 2.25153 30.8626C2.3731 28.175 2.05377 28.6807 2.16075 25.3594C2.24991 25.0303 2.22397 26.2169 2.28233 26.5589C2.11861 24.2231 2.21911 19.8692 2.18669 16.3954C2.18994 16.2706 2.19318 16.1458 2.19642 16.0178C2.19804 15.9545 2.19966 15.8913 2.2029 15.8281C2.20776 15.7795 2.21101 15.7309 2.21587 15.6806C2.22073 15.632 2.22235 15.5817 2.22883 15.5331C2.23856 15.4845 2.24829 15.4358 2.25802 15.3856C2.27099 15.2851 2.30178 15.1895 2.33095 15.0906C2.44928 14.6999 2.65515 14.3174 2.95503 13.9997C3.25167 13.6836 3.62287 13.4113 4.04918 13.2637C4.15617 13.2281 4.26153 13.1876 4.37338 13.1681C4.42849 13.1568 4.48197 13.1389 4.53871 13.1308L4.70729 13.1098C4.76241 13.0984 4.82076 13.0968 4.87749 13.0968L5.04931 13.0919C5.20493 13.0935 5.36216 13.0968 5.51778 13.0984C8.06269 13.1422 10.6919 13.1892 13.0147 13.2605L13.1006 13.2022C14.0667 13.2767 15.0717 13.28 16.1189 13.2719C16.3799 13.2702 16.6441 13.267 16.9115 13.2654C16.9877 13.2637 17.0153 13.2686 17.0655 13.2702L17.2017 13.2751C17.2925 13.2816 17.3816 13.301 17.474 13.3108C17.8339 13.3772 18.184 13.5393 18.479 13.7776C18.2975 13.609 18.09 13.4583 17.8582 13.3513L17.8598 13.3416Z" fill="#202020"/>
<path d="M21.1276 38.8783L21.2638 38.5087L21.1698 36.3787C21.0596 37.2427 21.1552 37.6901 21.1276 38.8783Z" fill="#202020"/>
<path d="M20.7109 38.4211L20.7758 39.5348L20.7644 37.7322L20.7109 38.4211Z" fill="#202020"/>
<path d="M18.5664 12.2101L18.8144 12.3528C19.4352 12.6689 19.9896 13.1422 20.3705 13.7419C20.7644 14.332 20.9833 15.0403 21.0173 15.7568C21.006 15.3726 20.9282 14.9949 20.8163 14.6302C20.6883 14.2704 20.5197 13.9267 20.3041 13.6123C20.082 13.3043 19.8275 13.0222 19.5325 12.7839C19.2342 12.5521 18.9149 12.3511 18.5664 12.2085V12.2101Z" fill="#202020"/>
<path d="M0.554397 23.6169C0.483074 23.1516 0.512252 22.4854 0.463623 22.0024L0.533323 23.8924L0.554397 23.6169Z" fill="#202020"/>
<path d="M0 41.9289C0.246387 42.647 -0.00323441 43.3586 0.220459 42.4038C0.179935 41.2724 0.0826692 42.2531 0 41.9289Z" fill="#202020"/>
<path d="M0.359795 46.1872C0.3679 45.5356 0.330612 45.1741 0.29333 44.8159C0.183104 45.6766 0.309545 45.7058 0.359795 46.1872Z" fill="#202020"/>
<path d="M13.6843 12.0302C13.7345 12.1907 13.8091 11.98 13.8739 11.7984L13.6746 11.6347L13.6859 12.0302H13.6843Z" fill="#202020"/>
<path d="M13.7409 11.1419L13.5335 10.6945L13.634 11.0171C13.5286 11.3753 13.4135 10.9701 13.3762 10.8339C13.4281 11.4207 13.6242 11.0479 13.7409 11.1403V11.1419Z" fill="#202020"/>
<path d="M13.5788 10.2633C13.5933 9.97643 13.4588 10.0575 13.415 10.1774C13.4734 10.1969 13.5366 10.3833 13.5788 10.2633Z" fill="#202020"/>
<path d="M7.85352 3.76816C7.88269 3.68711 7.90215 3.5931 7.93943 3.60607C7.90053 3.51691 7.8681 3.49746 7.85352 3.76816Z" fill="#202020"/>
<path d="M7.93945 3.60602C7.94594 3.62385 7.95403 3.64168 7.96214 3.66437C7.9589 3.64654 7.95728 3.63033 7.95241 3.61088C7.94755 3.60602 7.94432 3.60926 7.93945 3.60764V3.60602Z" fill="#202020"/>
<path d="M11.3063 1.89106C11.6289 1.79056 11.8104 1.85378 12.1152 1.81163L12.2854 1.97859C12.3064 1.97535 12.3243 1.97049 12.3421 1.96725C12.3502 1.96563 12.3583 1.964 12.3664 1.96238C12.3713 1.96076 12.368 1.95914 12.3696 1.9559C12.3696 1.94617 12.3713 1.93807 12.3729 1.93159C12.3761 1.90727 12.3794 1.89106 12.381 1.87647C12.3891 1.83757 12.3923 1.7938 12.4248 1.75004C12.4361 1.7938 12.4539 1.80353 12.4815 1.79867C12.509 1.79542 12.5496 1.7776 12.5771 1.76949C12.5804 1.77597 12.5836 1.78084 12.582 1.78732C12.5188 1.85378 12.488 1.8635 12.4539 1.8943C12.4426 1.90565 12.4329 1.91376 12.4264 1.92024C12.4296 1.917 12.4345 1.91375 12.4361 1.91213C12.4977 1.86837 12.6452 1.77111 12.6468 1.87809L12.6015 1.89593C12.6306 1.91214 12.6566 1.93969 12.6776 1.97697C12.6987 2.11962 12.7165 2.28333 12.7311 2.43895C12.7619 2.75666 12.7798 3.08733 12.7976 3.42125C12.83 4.08909 12.8527 4.77314 12.9273 5.4118C12.9354 5.32589 12.971 5.34696 13.0051 5.31292C13.0667 6.66318 13.0748 8.22093 13.4719 9.28753C13.4281 8.55809 13.6924 7.32292 13.3957 6.57889C13.514 6.30333 13.3422 5.88026 13.5108 5.76517C13.5838 4.70506 13.2855 4.27388 13.2806 3.25267C13.3114 3.10679 13.3941 3.17811 13.4719 3.13596L13.5513 3.94483L13.6178 3.45205C13.6924 3.66602 13.6389 4.18473 13.7896 4.2447C13.6988 3.89133 13.6891 3.4326 13.6761 2.98521C13.6697 2.76152 13.6616 2.54107 13.6421 2.33683C13.6227 2.13583 13.5919 1.93969 13.5384 1.80515C13.5286 1.87485 13.5238 1.94131 13.5238 2.02236C13.5238 2.10179 13.5238 2.18608 13.527 2.27037C13.5319 2.44057 13.54 2.61563 13.5335 2.78746C13.48 2.93821 13.4411 3.17162 13.3601 3.15704C13.3082 2.94307 13.2741 2.73558 13.2515 2.53296C13.2401 2.43246 13.2304 2.33196 13.2239 2.23146C13.219 2.13745 13.2142 2.04343 13.2093 1.94942C13.1963 1.68844 13.2028 1.42422 13.1882 1.16163C13.1056 1.16649 13.0213 1.17297 12.9354 1.18108C12.7635 1.19891 12.5642 1.18594 12.5463 1.10651C12.6695 1.07896 12.595 1.0125 12.7133 0.975216C12.5593 1.00926 12.5431 1.08058 12.5123 1.14056C12.4977 1.16973 12.4815 1.19729 12.4507 1.21512C12.4345 1.22322 12.4167 1.22971 12.3923 1.23295C12.3859 1.23295 12.3794 1.23295 12.3729 1.23457C12.3615 1.23457 12.3486 1.23457 12.3356 1.23457C12.3097 1.23457 12.2805 1.23457 12.2481 1.23133L12.3145 0.954145C12.1087 1.24754 11.6824 0.902273 11.3144 1.07409C11.1815 0.962248 11.4263 0.89903 11.7083 0.890925C11.3873 0.842296 11.3582 1.00439 11.1021 0.999532L11.3452 0.76287C11.0729 0.988184 10.8557 0.719103 10.7017 0.642917C10.6838 0.701272 10.8265 0.8812 10.4845 0.866612C10.337 0.835813 10.4131 0.777459 10.3775 0.743419C10.358 0.801774 10.2348 0.908757 10.0095 0.915241C9.969 0.835814 10.1603 0.796911 10.1749 0.715863C10.0047 0.720726 9.86526 0.735315 9.74207 0.670476C9.5897 0.702895 9.59618 0.732072 9.61725 0.76287C9.63832 0.793668 9.6675 0.827709 9.58807 0.869854C9.38221 0.842298 9.34492 0.772596 9.35141 0.689927C9.35303 0.607258 9.40977 0.511621 9.28658 0.427331C9.38708 0.399775 9.50216 0.37546 9.62373 0.356008C9.72261 0.338178 9.81987 0.320346 9.91389 0.304136C10.0922 0.273338 10.251 0.249025 10.3451 0.216605L9.6756 0.281443C9.70478 0.234435 9.54755 0.195532 9.43408 0.155008C9.32223 0.116105 9.25416 0.0755814 9.52162 0.0318154C8.95752 -0.0135717 8.30265 -0.00546823 7.72234 0.0253301C7.74828 0.571595 7.78718 1.09355 7.82284 1.53283C7.85526 1.40639 7.87471 1.24754 7.93306 1.29779C7.98818 1.76787 7.87147 1.69168 7.80501 1.78732C7.82122 1.8781 7.84392 1.95104 7.86985 1.98994C7.89579 2.02398 7.92496 2.04829 7.95738 2.06937C8.0206 2.11151 8.0903 2.14231 8.15028 2.21688C8.01574 2.721 8.09678 2.79232 7.90227 3.22187L8.06275 3.19594C7.93307 3.50068 8.17622 3.54445 8.0822 3.8735C8.04816 3.89133 8.00763 3.76652 7.96873 3.6644C8.0206 3.95455 7.83419 3.93186 7.89578 4.21553L7.71748 3.99021C7.72397 4.21553 7.77908 4.54782 7.62671 4.43112C7.80988 4.82501 7.73693 5.51716 7.84229 6.00993L7.70289 5.97751C7.87147 6.23201 7.69479 6.91443 7.89578 7.13488L7.83906 7.17217L8.02546 7.67953C8.00925 7.90971 7.80015 7.8319 7.85851 7.84973C7.89579 8.35385 7.90713 8.74937 7.83419 9.07356C8.0206 9.15461 8.06923 9.68466 8.09355 10.1077C8.08706 10.265 8.07896 10.4238 8.07247 10.5827L8.06598 10.8355L8.06113 11.1452C8.05626 11.5601 8.05788 11.9783 8.06436 12.3884C8.53282 12.3819 9.00128 12.3674 9.45353 12.3495C9.6983 12.3398 9.85067 12.3301 10.0338 12.3187C10.2105 12.3058 10.3888 12.2928 10.5639 12.2814C11.2674 12.228 11.9531 12.1583 12.6047 12.0837C12.8867 12.0756 13.2774 11.8697 13.6308 11.779C13.198 11.7336 13.1574 11.826 12.7311 11.8276C12.4118 11.7789 12.2935 11.5877 12.0179 11.4677L12.1573 11.625C11.7245 11.7514 11.859 11.5407 11.5186 11.7011L11.5332 11.4483C11.4133 11.5779 11.1118 11.4726 10.987 11.4061L10.8751 11.5812C10.6028 11.4856 10.4261 11.445 10.3434 11.2862L10.3694 11.4467C10.3175 11.3964 10.0565 11.4013 9.84905 11.3834C9.79718 11.3786 9.74855 11.3737 9.7064 11.3656C9.69667 11.364 9.68695 11.3607 9.67722 11.3591C9.67236 11.3575 9.66912 11.3543 9.66588 11.351C9.65777 11.3462 9.65291 11.3397 9.64805 11.3316C9.6286 11.3024 9.63832 11.2586 9.6675 11.1905C9.64318 11.2262 9.60104 11.3105 9.53134 11.291L9.56862 11.1306C9.48757 11.1711 9.35951 11.2035 9.41301 11.1127C9.47947 11.0738 9.53296 11.0041 9.58159 10.9344C9.55404 10.9279 9.51026 10.9587 9.4438 11.009C9.37086 11.0576 9.2574 11.1581 9.16176 11.2262C9.06612 11.2927 8.98507 11.3024 8.98021 11.1079L9.08396 11.0641C9.04667 11.0447 9.01101 11.0187 8.97373 10.9847C9.0175 10.9247 9.06126 10.8745 9.10503 10.8323C9.08233 10.8242 9.06288 10.8145 9.04667 10.8031C9.03046 10.7885 9.01588 10.7821 9.00453 10.7464C8.98021 10.6864 8.96562 10.6183 8.95752 10.5454C8.94131 10.3979 8.95104 10.2277 8.96401 10.0494C8.99318 9.69277 9.04181 9.3086 8.94779 9.02817C8.91861 8.8061 9.12934 8.51433 9.10503 8.09449L8.94455 8.12205C9.10665 7.78165 9.21039 6.5173 9.57997 6.19959C9.45678 5.88026 9.54593 6.23363 9.4195 6.22552C9.25254 5.60145 9.50378 5.55931 9.59942 5.23187C9.51999 4.8477 9.53945 5.52527 9.41787 5.3194C9.53945 4.73099 9.22012 4.84122 9.3271 4.11503C9.41625 4.0437 9.39032 4.30306 9.44867 4.37762C9.28495 3.86702 9.38545 2.91389 9.35303 2.15366C9.35951 2.10179 9.366 2.04992 9.37248 1.99642V1.97697L9.37735 1.97211L9.38221 1.96238L9.39032 1.94455C9.40167 1.92348 9.41139 1.90079 9.42435 1.87809C9.44543 1.83757 9.46488 1.80677 9.48595 1.78732C9.55241 1.81001 9.60753 1.83433 9.64319 1.86026C9.65129 1.86675 9.65939 1.87485 9.66588 1.88133L9.67399 1.89268V1.89593H9.67722H9.69019L9.74369 1.90403C9.88633 1.92024 10.0257 1.93807 10.1603 1.9559L10.1797 1.89755C10.6028 2.04667 11.0599 1.90727 11.5543 1.97373L11.3128 1.88782L11.3063 1.89106Z" fill="#202020"/>
<path d="M13.968 4.47003L14.1041 4.38898L14.0101 3.92377C13.8999 4.11342 13.9955 4.21068 13.968 4.47003Z" fill="#202020"/>
<path d="M13.5513 4.3695L13.6161 4.61426L13.6048 4.21875L13.5513 4.3695Z" fill="#202020"/>
<path d="M11.3662 0.578086L11.4262 0.60078L12.3145 0.48407L11.3662 0.578086Z" fill="#202020"/>
<path d="M7.71431 3.73575C7.64299 3.63363 7.67216 3.48775 7.62354 3.38239L7.69324 3.79573L7.71431 3.73575Z" fill="#202020"/>
<path d="M7.15991 7.74115C7.4063 7.89838 7.15667 8.054 7.38036 7.84489C7.33984 7.59688 7.24258 7.81247 7.15991 7.74115Z" fill="#202020"/>
<path d="M7.51966 8.67317C7.52776 8.53053 7.49049 8.4511 7.4532 8.37329C7.34298 8.56132 7.47103 8.56781 7.51966 8.67317Z" fill="#202020"/>
<path d="M13.6843 82.6524C13.7345 82.8129 13.8091 82.6022 13.8739 82.4206L13.6746 82.2569L13.6859 82.6524H13.6843Z" fill="#202020"/>
<path d="M13.7409 81.7642L13.5335 81.3168L13.634 81.6393C13.5286 81.9976 13.4135 81.5923 13.3762 81.4562C13.4281 82.043 13.6242 81.6701 13.7409 81.7625V81.7642Z" fill="#202020"/>
<path d="M13.5788 80.8856C13.5933 80.5987 13.4588 80.6797 13.415 80.7997C13.4734 80.8191 13.5366 81.0055 13.5788 80.8856Z" fill="#202020"/>
<path d="M7.85352 74.3904C7.88269 74.3093 7.90215 74.2153 7.93943 74.2283C7.90053 74.1391 7.8681 74.1197 7.85352 74.3904Z" fill="#202020"/>
<path d="M7.93945 74.2283C7.94594 74.2461 7.95403 74.2639 7.96214 74.2866C7.9589 74.2688 7.95728 74.2526 7.95241 74.2331C7.94755 74.2283 7.94432 74.2315 7.93945 74.2299V74.2283Z" fill="#202020"/>
<path d="M11.3063 72.5133C11.6289 72.4128 11.8104 72.476 12.1152 72.4338L12.2854 72.6008C12.3064 72.5975 12.3243 72.5927 12.3421 72.5894C12.3502 72.5878 12.3583 72.5862 12.3664 72.5846C12.3713 72.5829 12.368 72.5813 12.3696 72.5781C12.3696 72.5684 12.3713 72.5603 12.3729 72.5538C12.3761 72.5295 12.3794 72.5133 12.381 72.4987C12.3891 72.4598 12.3923 72.416 12.4248 72.3722C12.4361 72.416 12.4539 72.4257 12.4815 72.4209C12.509 72.4176 12.5496 72.3998 12.5771 72.3917C12.5804 72.3982 12.5836 72.403 12.582 72.4095C12.5188 72.476 12.488 72.4857 12.4539 72.5165C12.4426 72.5278 12.4329 72.536 12.4264 72.5424C12.4296 72.5392 12.4345 72.5359 12.4361 72.5343C12.4977 72.4906 12.6452 72.3933 12.6468 72.5003L12.6015 72.5181C12.6306 72.5343 12.6566 72.5619 12.6776 72.5992C12.6987 72.7418 12.7165 72.9055 12.7311 73.0611C12.7619 73.3788 12.7798 73.7095 12.7976 74.0434C12.83 74.7113 12.8527 75.3953 12.9273 76.034C12.9354 75.9481 12.971 75.9692 13.0051 75.9351C13.0667 77.2854 13.0748 78.8431 13.4719 79.9097C13.4281 79.1803 13.6924 77.9451 13.3957 77.2011C13.514 76.9255 13.3422 76.5024 13.5108 76.3874C13.5838 75.3272 13.2855 74.8961 13.2806 73.8749C13.3114 73.729 13.3941 73.8003 13.4719 73.7582L13.5513 74.567L13.6178 74.0742C13.6924 74.2882 13.6389 74.8069 13.7896 74.8669C13.6988 74.5135 13.6891 74.0548 13.6761 73.6074C13.6697 73.3837 13.6616 73.1633 13.6421 72.959C13.6227 72.758 13.5919 72.5619 13.5384 72.4273C13.5286 72.497 13.5238 72.5635 13.5238 72.6446C13.5238 72.724 13.5238 72.8083 13.527 72.8926C13.5319 73.0628 13.54 73.2378 13.5335 73.4096C13.48 73.5604 13.4411 73.7938 13.3601 73.7792C13.3082 73.5653 13.2741 73.3578 13.2515 73.1552C13.2401 73.0547 13.2304 72.9542 13.2239 72.8537C13.219 72.7596 13.2142 72.6656 13.2093 72.5716C13.1963 72.3106 13.2028 72.0464 13.1882 71.7838C13.1056 71.7887 13.0213 71.7952 12.9354 71.8033C12.7635 71.8211 12.5642 71.8081 12.5463 71.7287C12.6695 71.7011 12.595 71.6347 12.7133 71.5974C12.5593 71.6314 12.5431 71.7028 12.5123 71.7627C12.4977 71.7919 12.4815 71.8195 12.4507 71.8373C12.4345 71.8454 12.4167 71.8519 12.3923 71.8551C12.3859 71.8551 12.3794 71.8551 12.3729 71.8568C12.3615 71.8568 12.3486 71.8568 12.3356 71.8568C12.3097 71.8568 12.2805 71.8568 12.2481 71.8535L12.3145 71.5763C12.1087 71.8697 11.6824 71.5245 11.3144 71.6963C11.1815 71.5844 11.4263 71.5212 11.7083 71.5131C11.3873 71.4645 11.3582 71.6266 11.1021 71.6217L11.3452 71.3851C11.0729 71.6104 10.8557 71.3413 10.7017 71.2651C10.6838 71.3235 10.8265 71.5034 10.4845 71.4888C10.337 71.458 10.4131 71.3997 10.3775 71.3656C10.358 71.424 10.2348 71.5309 10.0095 71.5374C9.969 71.458 10.1603 71.4191 10.1749 71.3381C10.0047 71.3429 9.86526 71.3575 9.74207 71.2927C9.5897 71.3251 9.59618 71.3543 9.61725 71.3851C9.63832 71.4159 9.6675 71.4499 9.58807 71.492C9.38221 71.4645 9.34492 71.3948 9.35141 71.3121C9.35303 71.2294 9.40977 71.1338 9.28658 71.0495C9.38708 71.022 9.50216 70.9976 9.62373 70.9782C9.72261 70.9604 9.81987 70.9425 9.91389 70.9263C10.0922 70.8955 10.251 70.8712 10.3451 70.8388L9.6756 70.9036C9.70478 70.8566 9.54755 70.8177 9.43408 70.7772C9.32223 70.7383 9.25416 70.6978 9.52162 70.654C8.95752 70.6086 8.30265 70.6167 7.72234 70.6475C7.74828 71.1938 7.78718 71.7157 7.82284 72.155C7.85526 72.0286 7.87471 71.8697 7.93306 71.92C7.98818 72.3901 7.87147 72.3139 7.80501 72.4095C7.82122 72.5003 7.84392 72.5732 7.86985 72.6121C7.89579 72.6462 7.92496 72.6705 7.95738 72.6916C8.0206 72.7337 8.0903 72.7645 8.15028 72.8391C8.01574 73.3432 8.09678 73.4145 7.90227 73.8441L8.06275 73.8181C7.93307 74.1229 8.17622 74.1666 8.0822 74.4957C8.04816 74.5135 8.00763 74.3887 7.96873 74.2866C8.0206 74.5767 7.83419 74.554 7.89578 74.8377L7.71748 74.6124C7.72397 74.8377 7.77908 75.17 7.62671 75.0533C7.80988 75.4472 7.73693 76.1394 7.84229 76.6321L7.70289 76.5997C7.87147 76.8542 7.69479 77.5366 7.89578 77.7571L7.83906 77.7944L8.02546 78.3017C8.00925 78.5319 7.80015 78.4541 7.85851 78.4719C7.89579 78.976 7.90713 79.3716 7.83419 79.6958C8.0206 79.7768 8.06923 80.3068 8.09355 80.7299C8.08706 80.8872 8.07896 81.046 8.07247 81.2049L8.06598 81.4577L8.06113 81.7673C8.05626 82.1823 8.05788 82.6005 8.06436 83.0106C8.53282 83.0041 9.00128 82.9895 9.45353 82.9717C9.6983 82.962 9.85067 82.9523 10.0338 82.9409C10.2105 82.928 10.3888 82.915 10.5639 82.9036C11.2674 82.8501 11.9531 82.7804 12.6047 82.7059C12.8867 82.6978 13.2774 82.4919 13.6308 82.4011C13.198 82.3558 13.1574 82.4482 12.7311 82.4498C12.4118 82.4011 12.2935 82.2099 12.0179 82.0899L12.1573 82.2472C11.7245 82.3736 11.859 82.1629 11.5186 82.3233L11.5332 82.0705C11.4133 82.2001 11.1118 82.0948 10.987 82.0283L10.8751 82.2034C10.6028 82.1077 10.4261 82.0672 10.3434 81.9084L10.3694 82.0688C10.3175 82.0186 10.0565 82.0235 9.84905 82.0056C9.79718 82.0008 9.74855 81.9959 9.7064 81.9878C9.69667 81.9862 9.68695 81.9829 9.67722 81.9813C9.67236 81.9797 9.66912 81.9765 9.66588 81.9732C9.65777 81.9683 9.65291 81.9619 9.64805 81.9538C9.6286 81.9246 9.63832 81.8808 9.6675 81.8127C9.64318 81.8484 9.60104 81.9327 9.53134 81.9132L9.56862 81.7528C9.48757 81.7933 9.35951 81.8257 9.41301 81.7349C9.47947 81.696 9.53296 81.6263 9.58159 81.5566C9.55404 81.5501 9.51026 81.5809 9.4438 81.6312C9.37086 81.6798 9.2574 81.7803 9.16176 81.8484C9.06612 81.9149 8.98507 81.9246 8.98021 81.7301L9.08396 81.6863C9.04667 81.6668 9.01101 81.6409 8.97373 81.6069C9.0175 81.5469 9.06126 81.4966 9.10503 81.4545C9.08233 81.4464 9.06288 81.4367 9.04667 81.4253C9.03046 81.4107 9.01588 81.4042 9.00453 81.3686C8.98021 81.3086 8.96562 81.2405 8.95752 81.1676C8.94131 81.0201 8.95104 80.8499 8.96401 80.6716C8.99318 80.315 9.04181 79.9308 8.94779 79.6504C8.91861 79.4283 9.12934 79.1365 9.10503 78.7167L8.94455 78.7442C9.10665 78.4038 9.21039 77.1395 9.57997 76.8218C9.45678 76.5024 9.54593 76.8558 9.4195 76.8477C9.25254 76.2253 9.50378 76.1815 9.59942 75.8541C9.51999 75.4699 9.53945 76.1475 9.41787 75.9416C9.53945 75.3532 9.22012 75.4634 9.3271 74.7372C9.41625 74.6659 9.39032 74.9252 9.44867 74.9998C9.28495 74.4892 9.38545 73.5361 9.35303 72.7759C9.35951 72.724 9.366 72.6721 9.37248 72.6186V72.5992L9.37735 72.5943L9.38221 72.5846L9.39032 72.5667C9.40167 72.5457 9.41139 72.523 9.42435 72.5003C9.44543 72.4598 9.46488 72.429 9.48595 72.4095C9.55241 72.4322 9.60753 72.4565 9.64319 72.4825C9.65129 72.4889 9.65939 72.497 9.66588 72.5035L9.67399 72.5149V72.5181H9.67722H9.69019L9.74369 72.5262C9.88633 72.5424 10.0257 72.5603 10.1603 72.5781L10.1797 72.5197C10.6028 72.6689 11.0599 72.5295 11.5543 72.5959L11.3128 72.51L11.3063 72.5133Z" fill="#202020"/>
<path d="M13.968 75.0922L14.1041 75.0112L14.0101 74.546C13.8999 74.7356 13.9955 74.8329 13.968 75.0922Z" fill="#202020"/>
<path d="M13.5513 74.9918L13.6161 75.2365L13.6048 74.841L13.5513 74.9918Z" fill="#202020"/>
<path d="M11.3662 71.2003L11.4262 71.223L12.3145 71.1063L11.3662 71.2003Z" fill="#202020"/>
<path d="M7.71431 74.3579C7.64299 74.2558 7.67216 74.1099 7.62354 74.0046L7.69324 74.4179L7.71431 74.3579Z" fill="#202020"/>
<path d="M7.15991 78.3633C7.4063 78.5206 7.15667 78.6762 7.38036 78.4671C7.33984 78.2191 7.24258 78.4347 7.15991 78.3633Z" fill="#202020"/>
<path d="M7.51966 79.2954C7.52776 79.1528 7.49049 79.0734 7.4532 78.9955C7.34298 79.1836 7.47103 79.1901 7.51966 79.2954Z" fill="#202020"/>
<path d="M4.61972 37.2897C4.67321 37.3934 4.74454 37.254 4.80614 37.1357L4.60352 37.0336L4.61972 37.2897Z" fill="#202020"/>
<path d="M4.66352 36.711L4.44955 36.4257L4.55492 36.6332C4.45442 36.8682 4.33447 36.6073 4.29395 36.5197C4.35392 36.9007 4.54357 36.6527 4.66352 36.711Z" fill="#202020"/>
<path d="M4.48842 36.142C4.49976 35.9556 4.36523 36.0107 4.32471 36.0902C4.38306 36.1015 4.44789 36.2215 4.48842 36.142Z" fill="#202020"/>
<path d="M4.84341 24.5602C4.81586 24.6137 4.79802 24.6753 4.76074 24.6672C4.80127 24.7256 4.83369 24.7369 4.84341 24.5602Z" fill="#202020"/>
<path d="M4.75972 24.6681C4.75144 24.6565 4.74315 24.6449 4.73486 24.6299C4.73818 24.6415 4.73984 24.6515 4.74646 24.6664C4.75143 24.6697 4.75475 24.6664 4.75972 24.6681Z" fill="#202020"/>
<path d="M3.19825 28.4571C3.30361 28.6645 3.24202 28.7845 3.28902 28.9806L3.12368 29.0957C3.18366 29.3097 3.26795 29.1881 3.35872 29.3421C3.2566 29.5399 3.36359 29.9516 3.35872 30.044C3.28254 30.1104 3.25011 29.9662 3.20148 29.9354C3.26308 30.1866 3.42356 30.1639 3.43167 30.4768L3.38628 30.4833C3.64077 31.2257 3.59863 32.1739 3.76721 33.0022C3.77531 32.9455 3.81097 32.9585 3.84339 32.9374C3.92282 33.8143 3.95361 34.8258 4.36696 35.5115C4.31347 35.0382 4.55986 34.2293 4.2535 33.7511C4.36859 33.5696 4.19027 33.2973 4.35723 33.2195C4.41559 32.5289 4.11085 32.255 4.0914 31.5904C4.11896 31.4947 4.20325 31.5385 4.28105 31.5093L4.37183 32.0329L4.4318 31.7103C4.50961 31.8481 4.4626 32.1869 4.61497 32.2209C4.42532 31.7654 4.55013 31.0279 4.32806 30.6324C4.29402 30.822 4.34427 31.0555 4.33616 31.2792C4.28429 31.378 4.24863 31.5304 4.16758 31.5223C3.91958 30.8901 4.02332 30.3584 3.93579 29.7052C3.91309 29.5415 3.92282 29.3178 4.00063 29.2902C4.03143 29.3972 4.09464 29.3145 4.13516 29.4021C4.06222 29.1719 3.84663 29.3859 3.87094 29.0487L4.14976 29.086C3.85312 28.9596 4.1919 28.6743 4.01521 28.4392C4.12382 28.3501 4.19189 28.5073 4.20486 28.6921C4.24863 28.483 4.08654 28.4668 4.08816 28.2998L4.32806 28.4522C4.09788 28.2804 4.36534 28.1329 4.43828 28.0307C4.37993 28.0194 4.20163 28.1167 4.21135 27.8946C4.23891 27.7989 4.30051 27.846 4.33293 27.8233C4.27457 27.8119 4.16596 27.7341 4.15624 27.5882C4.23404 27.559 4.27781 27.6839 4.35886 27.6903C4.35237 27.5801 4.33454 27.4893 4.39776 27.4083C4.32806 27.2138 4.28429 27.4229 4.19514 27.3062C4.24539 27.0047 4.46908 27.2705 4.63442 27.1554C4.75275 27.3791 4.7949 27.6709 4.85974 27.7908L4.78517 27.358C4.87919 27.3824 4.93917 27.0598 5.03318 27.2883C5.10937 26.8539 4.99428 26.332 4.90999 25.9186C4.87919 25.9786 4.86135 26.0548 4.803 26.0434C4.74302 25.8295 4.85973 25.8505 4.92619 25.8052C4.85811 25.6479 4.69926 25.669 4.57769 25.5734C4.70575 25.2427 4.62308 25.1973 4.81111 24.9136L4.65063 24.9347C4.77544 24.7337 4.5323 24.7094 4.62145 24.4954C4.65549 24.4824 4.69764 24.5635 4.73654 24.6283C4.67981 24.4403 4.86784 24.4517 4.80138 24.2685L4.98293 24.4111C4.97321 24.2636 4.91323 24.0497 5.06722 24.1226C4.87756 23.8697 4.94079 23.4191 4.82894 23.0998L4.96834 23.1176C4.79652 22.9555 4.96348 22.5081 4.75924 22.3687L4.81435 22.3428L4.62145 22.017C4.63442 21.8678 4.84515 21.9132 4.78679 21.9019C4.74303 21.5744 4.72519 21.3183 4.79327 21.106C4.60524 21.0574 4.55013 20.7137 4.51933 20.4398C4.60686 19.1154 4.39938 17.702 4.15948 16.4765C4.14813 16.2933 3.93578 16.0437 3.84015 15.8168C3.80124 16.0988 3.89526 16.1231 3.90012 16.4003C3.85635 16.6094 3.66509 16.6905 3.55162 16.872L3.70722 16.778C3.84014 17.0568 3.6278 16.9741 3.79152 17.1913L3.53865 17.1881C3.66995 17.2627 3.56782 17.4621 3.5046 17.5447L3.68129 17.6128C3.5889 17.7911 3.55162 17.9078 3.39277 17.9646L3.55324 17.9435C3.45436 18.0116 3.58566 18.6227 3.30847 18.42C3.34576 18.4703 3.43004 18.5157 3.41383 18.6291L3.25498 18.6502C3.30037 18.8107 3.33441 18.9922 3.24525 19.0409C3.20473 18.9533 3.13341 18.9258 3.06371 18.8982C3.05074 19.5839 3.59052 19.0311 3.61807 19.639L3.51434 19.6341L3.6278 19.7865L3.49975 19.9502C3.85798 20.161 3.48678 20.8029 3.68129 21.1643C3.71371 21.3086 3.50785 21.5015 3.53703 21.7754L3.69589 21.7544C3.53865 21.9781 3.45274 22.8031 3.08802 23.0171C3.21608 23.2213 3.12044 22.9944 3.2485 22.996C3.42356 23.398 3.17393 23.4321 3.08316 23.646C3.16907 23.894 3.13989 23.4531 3.26308 23.5861C3.14961 23.9702 3.46733 23.8924 3.37169 24.3674C3.28254 24.416 3.30685 24.2474 3.24525 24.1988C3.41546 24.5278 3.32954 25.1487 3.37331 25.6414C3.27281 26.2088 3.24526 27.0452 3.11558 27.7082L3.17393 27.7195C3.03129 27.9967 3.17718 28.2917 3.1172 28.6143L3.19825 28.4554V28.4571Z" fill="#202020"/>
<path d="M4.79657 32.3669L4.93111 32.3118L4.83061 32.0103C4.72363 32.1351 4.81926 32.1967 4.79657 32.3669Z" fill="#202020"/>
<path d="M4.37817 32.3117L4.44626 32.4689L4.43005 32.2128L4.37817 32.3117Z" fill="#202020"/>
<path d="M4.5096 28.4668L4.48853 28.5073L4.61821 29.0828L4.5096 28.4668Z" fill="#202020"/>
<path d="M4.98291 24.5781C5.05585 24.643 5.02829 24.7386 5.07854 24.8051L5.00397 24.5376L4.98291 24.5765V24.5781Z" fill="#202020"/>
<path d="M5.48037 21.9618C5.23236 21.8646 5.47875 21.7592 5.2583 21.8986C5.30369 22.0591 5.3977 21.9165 5.48037 21.9618Z" fill="#202020"/>
<path d="M5.10761 21.3637C5.10274 21.4561 5.14003 21.508 5.17731 21.5566C5.28429 21.4318 5.15786 21.4302 5.10761 21.3637Z" fill="#202020"/>
<path d="M7.25537 62.5849C7.29752 62.7486 7.38343 62.5427 7.45313 62.3628L7.26024 62.1877L7.25537 62.5849Z" fill="#202020"/>
<path d="M7.34784 61.695L7.15819 61.2379L7.24572 61.5653C7.12577 61.9203 7.02851 61.5086 6.99609 61.3724C7.02365 61.9608 7.23437 61.5961 7.34784 61.695Z" fill="#202020"/>
<path d="M7.22306 60.8067C7.25062 60.5197 7.11122 60.5959 7.06421 60.7159C7.12094 60.737 7.17605 60.9266 7.22306 60.8067Z" fill="#202020"/>
<path d="M7.03981 42.9453C7.0155 43.0263 7.00091 43.1236 6.96362 43.1122C7.00739 43.1997 7.04143 43.2176 7.03981 42.9453Z" fill="#202020"/>
<path d="M6.96368 43.1122C6.95557 43.096 6.94747 43.0766 6.93774 43.0555C6.94261 43.0733 6.94422 43.0879 6.9507 43.109C6.95557 43.1138 6.96043 43.1106 6.96368 43.1122Z" fill="#202020"/>
<path d="M5.70092 49.0011C5.82411 49.3172 5.77224 49.502 5.83708 49.8035L5.68147 49.9851C5.75928 50.3109 5.83383 50.1212 5.93595 50.3547C5.84842 50.6626 5.9862 51.29 5.98782 51.4326C5.9165 51.5363 5.87274 51.3159 5.82249 51.2705C5.90354 51.653 6.06077 51.6158 6.09319 52.0956L6.0478 52.1069C6.20017 52.6726 6.27636 53.3194 6.34444 53.984C6.41252 54.6486 6.45143 55.3278 6.55355 55.9632C6.55841 55.8773 6.59569 55.8967 6.62811 55.8627C6.73347 57.2081 6.75616 58.7545 7.13223 59.8292C7.11439 59.4645 7.17437 58.9717 7.20355 58.4773C7.22138 57.9829 7.20356 57.4869 7.04956 57.1173C7.16303 56.8385 6.98635 56.4187 7.15006 56.3004C7.18086 55.2354 6.87774 54.8139 6.81938 53.7943C6.84207 53.6468 6.92799 53.7133 7.00417 53.6679C7.04308 53.937 7.08846 54.2044 7.12412 54.4735C7.14195 54.3082 7.1533 54.1428 7.16789 53.9759C7.25705 54.1866 7.22139 54.7102 7.37376 54.7621C7.17114 54.0602 7.24245 52.9223 7.00093 52.316C6.97823 52.6078 7.04146 52.9676 7.04632 53.3129C7.00093 53.4669 6.97337 53.7019 6.89233 53.6906C6.74968 53.2059 6.69619 52.7585 6.66215 52.3079C6.62487 51.8573 6.60541 51.4002 6.53733 50.8993C6.50329 50.648 6.49519 50.3044 6.57138 50.2574C6.61028 50.4211 6.66702 50.2914 6.71402 50.426C6.62325 50.0726 6.42549 50.4098 6.42063 49.8911L6.70268 49.9381C6.39631 49.7517 6.71077 49.3026 6.51464 48.946C6.61676 48.8066 6.69782 49.0449 6.72537 49.3286C6.75131 49.0044 6.5892 48.9866 6.57461 48.7288L6.82748 48.9558C6.58272 48.698 6.83721 48.463 6.90205 48.3041C6.8437 48.2895 6.6735 48.4468 6.66377 48.1031C6.68323 47.954 6.74806 48.0253 6.77886 47.988C6.71888 47.9735 6.6038 47.8567 6.58273 47.6314C6.65891 47.5844 6.7124 47.7741 6.79345 47.7822C6.77724 47.612 6.7513 47.4742 6.80803 47.3461C6.72212 47.0495 6.69619 47.3737 6.59731 47.1954C6.62162 46.7286 6.86801 47.1306 7.02362 46.9474C7.15978 47.2878 7.22625 47.7352 7.30243 47.9167L7.1922 47.2521C7.28784 47.2862 7.32027 46.7885 7.43373 47.1354C7.47264 46.4627 7.31378 45.6652 7.19869 45.0314C7.17276 45.1238 7.1614 45.2421 7.10143 45.2259C7.02524 44.8985 7.14357 44.9277 7.20517 44.8563C7.12574 44.6164 6.96689 44.6537 6.83883 44.5111C6.94095 43.9972 6.85342 43.9324 7.02525 43.4915L6.86639 43.5271C6.97824 43.2159 6.73509 43.1851 6.80965 42.8512C6.8437 42.8318 6.8907 42.9549 6.93285 43.0538C6.86477 42.7669 7.0528 42.7783 6.975 42.4995L7.16627 42.715C7.14682 42.4897 7.07387 42.1623 7.23272 42.2709C7.02362 41.8867 7.07226 41.193 6.94744 40.705L7.08684 40.7326C6.91016 40.4846 7.05442 39.7989 6.8518 39.585L6.90692 39.5461L6.71078 39.0452C6.72213 38.815 6.93285 38.8896 6.8745 38.8717C6.82911 38.3692 6.80642 37.9753 6.8745 37.6511C6.68809 37.5717 6.6427 37.0417 6.62163 36.6202C6.67188 35.6055 6.71078 34.5567 6.69295 33.5209C6.7124 32.4868 6.67187 31.4639 6.68808 30.5124C6.7124 30.2304 6.55031 29.817 6.50168 29.4507C6.40766 29.8786 6.49519 29.9321 6.44818 30.3568C6.36389 30.6713 6.15965 30.7685 6.01052 31.0344L6.18234 30.9096C6.26177 31.3569 6.06402 31.2013 6.18721 31.5596L5.93595 31.5223C6.0559 31.6552 5.92947 31.9502 5.8549 32.0718L6.02187 32.1982C5.90678 32.4657 5.85329 32.6424 5.68957 32.7153L5.85167 32.6991C5.74306 32.7964 5.79493 33.7592 5.54368 33.4172C5.57448 33.4999 5.65067 33.576 5.62797 33.7511L5.4675 33.7706C5.49992 34.0267 5.52099 34.3103 5.4286 34.38C5.39456 34.2406 5.32647 34.192 5.25839 34.1434C5.19193 35.2165 5.77386 34.3914 5.7544 35.3364L5.65067 35.3234L5.75279 35.565C5.70578 35.6476 5.66202 35.7303 5.61825 35.8146C5.97 36.1599 5.57934 37.1405 5.76413 37.7111C5.79655 37.9348 5.59393 38.2315 5.62473 38.6561L5.78359 38.6253C5.70578 38.7988 5.64742 39.204 5.56313 39.6109C5.47884 40.0161 5.38321 40.4198 5.20166 40.5867C5.33782 40.9044 5.23408 40.5511 5.36051 40.5543C5.55179 41.1784 5.30216 41.2319 5.22111 41.5674C5.31675 41.9516 5.26974 41.2675 5.39941 41.4718C5.30216 42.0731 5.61663 41.9451 5.55017 42.681C5.46426 42.7588 5.47722 42.4962 5.41401 42.4233C5.6069 42.929 5.55341 43.8951 5.63932 44.657C5.58097 45.5388 5.62311 46.8307 5.55178 47.8584L5.61015 47.873C5.4902 48.3074 5.66039 48.7531 5.62797 49.2524L5.69605 49.006L5.70092 49.0011Z" fill="#202020"/>
<path d="M7.56186 54.9842L7.69478 54.8966L7.58456 54.4314C7.48244 54.6259 7.57969 54.7199 7.56186 54.9842Z" fill="#202020"/>
<path d="M7.14209 54.8998L7.21504 55.1414L7.19073 54.7458L7.14209 54.8998Z" fill="#202020"/>
<path d="M7.01401 48.9704L6.9978 49.0336L7.17448 49.9138L7.01401 48.9704Z" fill="#202020"/>
<path d="M7.1792 42.9712C7.25701 43.0685 7.23431 43.216 7.28942 43.3181L7.19865 42.9096L7.18082 42.9712H7.1792Z" fill="#202020"/>
<path d="M7.5733 38.9658C7.32367 38.815 7.57006 38.6562 7.34961 38.8669C7.395 39.1117 7.48901 38.8961 7.5733 38.9658Z" fill="#202020"/>
<path d="M7.19548 38.0483C7.19062 38.1894 7.22952 38.2688 7.2668 38.345C7.37217 38.1569 7.24573 38.1521 7.19548 38.0483Z" fill="#202020"/>
<path d="M4.60185 58.1207C4.54998 58.0753 4.47704 58.1369 4.41382 58.1904L4.61482 58.2358L4.60185 58.1223V58.1207Z" fill="#202020"/>
<path d="M4.54834 58.3785L4.75745 58.5049L4.65533 58.4125C4.75907 58.3071 4.87578 58.4238 4.91468 58.4627C4.86119 58.2942 4.66667 58.4044 4.54834 58.3785Z" fill="#202020"/>
<path d="M4.71373 58.6297C4.69915 58.7124 4.83531 58.6881 4.87745 58.6524C4.8191 58.6476 4.75588 58.5941 4.71373 58.6297Z" fill="#202020"/>
<path d="M4.16431 63.7811C4.19186 63.7568 4.21132 63.7293 4.2486 63.7341C4.2097 63.7082 4.17727 63.7033 4.16431 63.7811Z" fill="#202020"/>
<path d="M4.24854 63.7325C4.24854 63.7325 4.26345 63.7424 4.27174 63.7491C4.26842 63.7441 4.26676 63.7391 4.26179 63.7325C4.25682 63.7325 4.25351 63.7325 4.24854 63.7325Z" fill="#202020"/>
<path d="M5.87597 62.0451C5.77385 61.9527 5.83708 61.8992 5.79331 61.8117L5.96026 61.7598C5.90353 61.6642 5.81762 61.7193 5.73009 61.6512C5.83545 61.5637 5.73495 61.3805 5.74306 61.3384C5.82087 61.3092 5.85004 61.3724 5.89704 61.387C5.83869 61.2751 5.67983 61.2849 5.67497 61.1455L5.72036 61.1422C5.47884 60.8132 5.53557 60.3901 5.38158 60.0221C5.37347 60.0481 5.33781 60.0416 5.30377 60.0513C5.23894 59.6623 5.22434 59.2117 4.82397 58.9069C4.86935 59.1176 4.61 59.4775 4.90826 59.6898C4.78993 59.7709 4.96499 59.8908 4.79479 59.9265C4.72509 60.2345 5.02497 60.3561 5.03308 60.6495C5.0039 60.6916 4.92122 60.6721 4.84179 60.6851L4.75913 60.4517L4.69429 60.5943C4.61973 60.5327 4.6716 60.382 4.52085 60.3674C4.70401 60.57 4.56624 60.8975 4.78021 61.0742C4.81749 60.9899 4.77209 60.8861 4.78344 60.7872C4.83693 60.7435 4.87421 60.6754 4.95526 60.6786C5.19192 60.9591 5.08008 61.1957 5.15626 61.4859C5.17571 61.5588 5.16274 61.6577 5.08494 61.6707C5.05576 61.6237 4.99093 61.6593 4.95203 61.6204C5.02173 61.7225 5.24056 61.6269 5.21138 61.7776L4.93419 61.7614C5.22758 61.8182 4.88556 61.9446 5.05738 62.0483C4.94716 62.0872 4.88232 62.0176 4.87259 61.9365C4.82558 62.0305 4.98607 62.037 4.98283 62.1099L4.74454 62.0419C4.97147 62.118 4.7024 62.1829 4.62621 62.2299C4.68457 62.2348 4.86288 62.191 4.85153 62.2899C4.82235 62.332 4.76237 62.3109 4.72833 62.3223C4.78669 62.3271 4.89367 62.3612 4.90016 62.426C4.82073 62.439 4.78021 62.3839 4.69916 62.3806C4.70402 62.4293 4.72023 62.4698 4.65539 62.5055C4.72185 62.5914 4.76885 62.499 4.85639 62.5508C4.80127 62.6854 4.58245 62.5671 4.41549 62.6189C4.30202 62.52 4.26474 62.3904 4.20152 62.3369L4.26798 62.5298C4.17396 62.5184 4.10912 62.6627 4.01835 62.5606C3.93568 62.7535 4.04104 62.9853 4.11723 63.1701C4.14965 63.1441 4.16748 63.1101 4.22745 63.1149C4.28256 63.2106 4.16748 63.2009 4.10102 63.2203C4.16586 63.29 4.32634 63.2803 4.44629 63.3224C4.31337 63.4699 4.39604 63.4894 4.20152 63.6158L4.36199 63.6061C4.23394 63.6953 4.47546 63.705 4.38307 63.8022C4.34903 63.8071 4.30688 63.7714 4.2696 63.7439C4.32309 63.8265 4.13506 63.8233 4.19828 63.9044L4.01835 63.8411C4.02483 63.906 4.08157 64.0016 3.9292 63.9692C4.11399 64.081 4.04429 64.282 4.15127 64.4231L4.01186 64.415C4.18044 64.4863 4.007 64.6857 4.208 64.7473L4.15127 64.7586L4.3393 64.9029C4.32309 64.9693 4.11399 64.9499 4.17234 64.9531C4.21125 65.099 4.22258 65.2125 4.15288 65.3065C4.33929 65.3276 4.38955 65.4799 4.41549 65.6031C4.30688 66.1915 4.48843 66.8205 4.70888 67.3651C4.71699 67.4462 4.92447 67.5564 5.01686 67.6585C5.06063 67.5337 4.96823 67.5223 4.96661 67.3992C5.01362 67.3068 5.20652 67.2695 5.32323 67.1884L5.16599 67.2306C5.03793 67.1074 5.24866 67.143 5.08818 67.0474H5.34105C5.21138 67.015 5.31674 66.9275 5.38158 66.8902L5.20651 66.8594C5.30215 66.7799 5.34106 66.7281 5.49991 66.7021L5.33943 66.7119C5.43993 66.6811 5.31836 66.4104 5.5923 66.4995C5.55502 66.4768 5.47235 66.4574 5.49018 66.4071L5.65066 66.3974C5.60852 66.3261 5.5761 66.245 5.66687 66.224C5.70577 66.2629 5.77547 66.2742 5.84679 66.2872C5.87111 65.9824 5.32323 66.2288 5.3054 65.9581H5.40913L5.29891 65.8933L5.42859 65.8203C5.0736 65.7263 5.45615 65.441 5.2665 65.2805C5.23732 65.2173 5.44641 65.1298 5.42048 65.0082L5.26001 65.018C5.4221 64.9175 5.52098 64.5511 5.88894 64.4555C5.76413 64.3647 5.8549 64.4652 5.72847 64.4652C5.55989 64.2869 5.81114 64.2723 5.90516 64.1767C5.82411 64.0664 5.84517 64.2626 5.7236 64.2042C5.84355 64.0324 5.52423 64.0681 5.62797 63.8573C5.71712 63.8363 5.69119 63.9108 5.75116 63.9319C5.58582 63.786 5.68308 63.5105 5.64742 63.29C5.75764 63.0371 5.79817 62.6659 5.93919 62.3709L5.88084 62.3661C6.02835 62.2429 5.88732 62.1116 5.95378 61.9673L5.86949 62.0386L5.87597 62.0451Z" fill="#202020"/>
<path d="M4.34271 60.3091L4.20654 60.3334L4.30056 60.4663C4.40917 60.4112 4.31515 60.3836 4.34109 60.3074L4.34271 60.3091Z" fill="#202020"/>
<path d="M4.75918 60.3333L4.69434 60.2636L4.70568 60.3771L4.75918 60.3333Z" fill="#202020"/>
<path d="M4.56307 62.0435L4.58415 62.0256L4.46582 61.7695L4.56307 62.0435Z" fill="#202020"/>
<path d="M4.02501 63.773C3.95207 63.7439 3.98287 63.7017 3.93262 63.6725L4.00232 63.7909L4.02339 63.773H4.02501Z" fill="#202020"/>
<path d="M3.4834 64.9369C3.72979 64.979 3.48178 65.0277 3.70547 64.9645C3.66332 64.8931 3.56607 64.9563 3.4834 64.9369Z" fill="#202020"/>
<path d="M3.84489 65.2011C3.85137 65.1606 3.8157 65.1379 3.77842 65.1152C3.66982 65.1703 3.79626 65.1719 3.84489 65.2011Z" fill="#202020"/>
<path d="M45.5491 23.4775C45.4826 23.92 45.7063 23.3786 45.8895 22.9053L45.8068 22.4174L45.5507 23.4775H45.5491Z" fill="#202020"/>
<path d="M46.1699 21.1044C46.1878 20.6878 46.1845 20.2696 46.191 19.8546L46.131 20.7461C45.9868 21.2211 45.9317 21.1757 45.9317 20.9698C45.9284 20.7624 45.9527 20.3911 45.9673 20.2047C45.8539 20.999 45.8717 21.1546 45.9479 21.1465C46.0208 21.1384 46.1391 20.965 46.1699 21.1044Z" fill="#202020"/>
<path d="M46.4115 18.6859C46.5201 17.9046 46.3547 18.1088 46.2786 18.4314C46.3369 18.4898 46.3191 19.0085 46.4115 18.6859Z" fill="#202020"/>
<path d="M32.4712 27.5931C32.4307 27.3726 32.3707 27.1165 32.4177 27.1408C32.3075 26.9155 32.2589 26.875 32.4712 27.5931Z" fill="#202020"/>
<path d="M32.4194 27.1408C32.4405 27.1846 32.4632 27.2316 32.4891 27.2867C32.4713 27.2397 32.4551 27.2008 32.4356 27.1473C32.4259 27.1343 32.4259 27.1441 32.4194 27.1408Z" fill="#202020"/>
<path d="M31.7482 11.6703C31.7596 11.4629 31.7952 11.2829 31.8244 11.1144C31.8536 10.9458 31.8892 10.7902 31.9363 10.6394C31.98 10.4887 32.0238 10.3379 32.0692 10.1791C32.1227 10.0234 32.1762 9.85811 32.2296 9.6717C32.3269 9.55337 32.4371 9.44314 32.5425 9.33292C32.6705 8.93902 32.6851 8.84501 32.6754 8.77206C32.6673 8.6975 32.643 8.64887 32.7338 8.35385C32.8505 8.19986 32.972 7.98914 33.1098 7.76707C33.2509 7.54661 33.3935 7.30347 33.5459 7.08302C33.6885 6.85446 33.8458 6.65508 33.9673 6.48002C34.0954 6.31306 34.2024 6.18662 34.2607 6.11854C34.4779 5.98238 34.1424 6.42328 34.1019 6.54161C34.2461 6.35196 34.3418 6.20445 34.4228 6.07964C34.5071 5.95807 34.5703 5.85433 34.64 5.74572C34.7843 5.53662 34.9561 5.30158 35.4197 4.92389L35.4635 4.94821C35.9822 4.46678 36.6111 4.02101 37.3114 3.72924C37.6599 3.5866 38.023 3.46989 38.3731 3.42774C38.5498 3.40667 38.7103 3.4018 38.8902 3.41477C39.0701 3.42774 39.2582 3.45692 39.4446 3.50555C39.819 3.59308 40.2016 3.73734 40.5711 3.91565C40.9391 4.10044 41.2941 4.32251 41.6361 4.56404C42.3104 5.06329 42.9183 5.65819 43.4419 6.29523C43.3106 6.1153 43.3738 6.13799 43.3462 6.04884C43.899 6.72803 44.3901 7.51095 44.7824 8.35385C45.1779 9.19513 45.4891 10.0867 45.7242 10.9798C45.9576 11.8746 46.1165 12.7677 46.2445 13.6171C46.2996 14.0434 46.3628 14.4568 46.4001 14.8588C46.4212 15.0582 46.4504 15.2559 46.4682 15.4472C46.4844 15.6401 46.5039 15.8281 46.5233 16.0113C46.5395 15.0144 46.5671 13.6641 46.392 12.322C46.2267 10.9814 45.8555 9.65387 45.3384 8.77368C45.293 8.59051 45.2217 8.39114 45.139 8.18851C45.0499 7.98914 44.9445 7.79138 44.8505 7.60497C44.6462 7.23863 44.4663 6.92254 44.4501 6.7491C44.0854 6.12341 43.7028 5.63225 43.3138 5.23025C42.9264 4.82663 42.5406 4.4992 42.1289 4.21877C41.7204 3.93835 41.2957 3.68872 40.8127 3.46988C40.3296 3.25105 39.7866 3.05654 39.1463 2.94956C38.7832 2.87175 38.9696 2.81502 38.8659 2.72424C39.2225 2.73559 39.5807 2.80367 39.9309 2.90417C40.2826 2.99819 40.623 3.13921 40.9553 3.29482C40.5679 3.06951 40.1594 2.87337 39.7299 2.73073C40.0233 2.77287 40.5063 2.93659 40.9164 3.13435C41.3281 3.32886 41.675 3.5331 41.7885 3.51527C41.3508 3.27699 40.8418 3.02088 40.2761 2.81988C39.712 2.6205 39.0831 2.47623 38.4542 2.51352C38.1413 2.53135 37.8366 2.59294 37.5464 2.67561C37.4005 2.71452 37.2611 2.76801 37.1217 2.81502C36.9856 2.86851 36.8543 2.92686 36.7246 2.98198C36.214 3.22026 35.7877 3.51203 35.4667 3.78922C35.6321 3.68223 35.8201 3.58498 36.0049 3.47151C36.1978 3.37101 36.3939 3.25754 36.6046 3.16515C37.0212 2.96901 37.4751 2.80529 37.9322 2.72262C38.1364 2.70965 38.3958 2.70479 38.5919 2.73235C38.7897 2.75828 38.9275 2.80529 38.9032 2.84257C38.2791 2.84581 37.6955 3.02088 37.146 3.25106C36.5965 3.48285 36.0811 3.773 35.5932 4.11017C34.6206 4.78611 33.7404 5.64684 33.0174 6.77017C32.6462 7.32616 32.2118 8.12368 32.0984 8.19338C32.2718 7.78327 32.0627 8.05397 32.2005 7.71195C31.9979 8.14961 32.0659 8.20959 32.0838 8.3036C32.0935 8.35061 32.0967 8.40897 32.0578 8.53216C32.0157 8.65211 31.9444 8.84338 31.8082 9.15785L31.6185 8.88877C31.6429 9.2 31.4873 9.58903 31.3122 10.0364C31.2344 10.2634 31.1371 10.5 31.0723 10.748C31.0123 10.9976 30.9539 11.2489 30.9507 11.5018C30.8632 11.6655 30.834 11.5844 30.8437 11.3656C30.8535 11.257 30.8745 11.1144 30.9037 10.9523C30.9345 10.7902 30.9669 10.607 31.0236 10.4222C30.881 10.8372 30.8664 11.0803 30.8453 11.2959C30.8324 11.5147 30.8405 11.7125 30.774 12.0529L30.6622 11.3575C30.74 12.1307 30.398 12.6705 30.2796 13.0936C30.3331 13.1487 30.5455 12.7758 30.4531 13.7063C30.3996 14.105 30.3542 13.8976 30.3153 13.9899C30.3428 14.0175 30.3818 14.1164 30.4109 14.2866C30.4417 14.4552 30.4547 14.6934 30.466 15.0031C30.3882 15.1165 30.3396 14.5929 30.2683 14.5492C30.2586 14.7842 30.278 14.9966 30.2731 15.1943C30.2731 15.3905 30.2569 15.572 30.2359 15.7438C30.351 16.5705 30.3461 15.6855 30.4628 16.1864C30.4677 16.8202 30.4207 16.8574 30.3266 16.7975C30.2375 16.7359 30.124 16.5738 30.064 16.8169C29.863 15.8573 29.8112 14.5913 29.7869 14.0613C29.7885 14.3774 29.7804 14.6918 29.8014 15.0063C29.8193 15.3208 29.8241 15.6352 29.8582 15.9465C29.7577 15.8346 29.7739 17.2335 29.6248 16.2398C29.6312 18.1461 30.2002 20.3782 30.7675 22.0737C30.7319 21.8192 30.6638 21.4999 30.7351 21.5355C31.0301 22.4141 30.8956 22.3412 30.8842 22.5422C31.1371 23.1711 31.2684 23.0544 31.5002 23.4175C31.7693 24.7904 31.9038 24.9542 32.0659 26.1456L32.1972 26.0289C32.322 26.8701 32.5895 26.9155 32.7727 27.8071C32.7548 27.8654 32.6106 27.5461 32.4906 27.2916C32.784 28.0405 32.5846 28.0389 32.8861 28.7667L32.5247 28.2285C32.7208 28.8218 33.0661 29.6777 32.8181 29.4183C33.0807 29.9111 33.3449 30.6129 33.6561 31.3618C33.6966 31.4559 33.7371 31.5515 33.7793 31.6471L33.9074 31.9243C33.9884 32.0978 34.0662 32.2712 34.1408 32.4414C34.2915 32.785 34.4228 33.1076 34.5492 33.4188L34.3904 33.3783C34.5784 33.675 34.7616 34.2844 34.9334 34.8858C35.1052 35.4872 35.2673 36.0853 35.4424 36.3528L35.4132 36.4663L35.94 37.7711C36.0811 38.3887 35.8249 38.2331 35.8946 38.2671C36.0843 38.9398 36.2529 39.5412 36.4053 40.081C36.4247 40.1523 36.4442 40.222 36.4636 40.2917C36.4895 40.3841 36.5171 40.4749 36.543 40.5657C36.5981 40.744 36.6419 40.9288 36.7003 41.0892C36.7748 41.2303 36.8462 41.3664 36.9159 41.4994L36.9418 41.5496C36.9548 41.5577 36.9694 41.5593 36.9839 41.5642L37.0682 41.5901L37.1509 41.6177L37.2611 41.6371C37.347 41.6112 37.5497 41.5496 37.8042 41.501C37.9014 41.4848 38.0068 41.4783 38.1202 41.4669C38.2078 41.4588 38.3034 41.4491 38.4039 41.4394C38.5952 41.4215 38.8059 41.4086 39.0296 41.3972C39.0815 41.394 39.135 41.3924 39.1885 41.3891C39.2274 41.3891 39.2663 41.3891 39.3068 41.394C39.3846 41.4037 39.464 41.4264 39.537 41.4604C39.6812 41.5269 39.8093 41.6501 39.8822 41.7879C39.9195 41.8641 39.9422 41.9451 39.9536 42.0278L40.08 43.049L40.5809 42.1364C40.9294 41.4994 41.1709 40.8283 41.3816 40.1523C41.5923 39.4748 41.7642 38.7875 41.9165 38.0969C42.0689 37.4064 42.2018 36.711 42.3185 36.0156C42.4385 35.3219 42.5357 34.62 42.646 33.9392C42.8632 32.5695 43.1306 31.2208 43.4548 29.9127C43.7742 28.6046 44.1632 27.3418 44.5701 26.1342C44.7062 25.7695 44.8262 25.3189 44.9429 24.8407C45.058 24.3641 45.1747 23.8584 45.2525 23.3964C45.0742 23.9411 44.9558 24.2474 44.8635 24.5538C44.7646 24.8601 44.6689 25.1681 44.4566 25.7144C44.0935 26.52 43.7985 26.7583 43.4338 27.444C43.5262 27.3386 43.6169 27.2316 43.7109 27.1279C43.4354 28.3031 43.3592 27.8849 43.2198 28.8364L42.9896 28.7229C43.0026 28.9028 42.9232 29.1865 42.821 29.4637C42.7238 29.7441 42.6022 30.0181 42.5244 30.1769C42.552 30.292 42.5828 30.4087 42.6136 30.5238C42.3299 31.2338 42.184 31.7087 41.9781 31.9L42.1516 31.8627C42.0657 31.9908 41.9214 32.7072 41.7917 33.2746C41.6718 33.8435 41.5583 34.2666 41.5032 33.7965C41.5032 34.0186 41.5437 34.239 41.4481 34.701L41.2779 34.7448C41.2066 35.4224 41.0979 36.1712 40.9715 36.3463C41.0023 35.98 40.9553 35.8454 40.9083 35.7141C40.6327 37.1146 40.7154 37.2816 40.8305 37.4194C40.9359 37.5539 41.0769 37.6577 40.7802 38.888L40.6862 38.8345C40.6684 39.0501 40.6489 39.264 40.6279 39.4796C40.5241 39.6822 40.4204 39.8816 40.3118 40.0778C40.3377 40.4668 40.1562 41.1071 39.8174 41.7263L40.8078 41.8965C40.7608 41.5528 40.6003 41.2173 40.3491 40.9579C40.0994 40.697 39.7493 40.5154 39.3846 40.4636C39.3392 40.4571 39.2938 40.4522 39.2468 40.449L39.1285 40.4441C39.0669 40.4441 39.0069 40.4425 38.9453 40.4409C38.8237 40.4409 38.7038 40.4392 38.5871 40.4376C38.4687 40.4376 38.3537 40.4392 38.2402 40.4409C38.1721 40.4409 38.1527 40.4441 38.1219 40.4457C38.0911 40.4473 38.0603 40.4506 38.0311 40.4522C37.9371 40.4619 37.8414 40.4684 37.7442 40.5057C37.7215 40.5122 37.6988 40.5187 37.6761 40.5235C37.6664 40.5235 37.6502 40.5365 37.6469 40.5235L37.6372 40.4879C37.6242 40.4392 37.6145 40.3857 37.6048 40.3323C37.5853 40.222 37.5756 40.1053 37.5659 39.9935C37.5675 39.9562 37.5416 39.8217 37.5221 39.7163C37.501 39.6044 37.4783 39.4894 37.4556 39.3678C37.4054 39.1279 37.347 38.8685 37.2692 38.5913L37.1331 38.7048C37.0925 38.2347 36.8899 37.1503 36.7019 36.0578C36.5171 34.9669 36.3258 33.8678 36.3664 33.3816C35.9773 32.55 36.3664 33.4837 36.2351 33.4999C35.9011 32.6862 35.7455 32.2047 35.6547 31.8384C35.6094 31.652 35.5786 31.4899 35.5413 31.3164C35.5218 31.2305 35.5008 31.1398 35.4764 31.0474C35.4683 31.0085 35.4586 30.9696 35.4489 30.9274C35.4375 30.8837 35.4246 30.8366 35.4116 30.788C35.303 30.5708 35.2625 30.4995 35.2576 30.5189C35.2527 30.54 35.2835 30.6437 35.3192 30.7621C35.3549 30.8788 35.3954 31.002 35.4051 31.0684C35.4116 31.1041 35.4148 31.1317 35.4019 31.13C35.3889 31.13 35.3614 31.1009 35.3257 31.0539C35.2139 30.7167 35.1198 30.446 35.0323 30.2434C34.9448 30.0375 34.8637 29.8835 34.7778 29.7182C34.6092 29.3859 34.4196 29.0082 34.1635 28.047C34.1878 27.833 34.3823 28.5154 34.5022 28.6889C33.9041 27.4213 33.2282 24.8893 32.6041 22.8972C32.5311 22.607 32.455 22.299 32.3739 21.9781C32.2912 21.6555 32.2215 21.3362 32.1389 20.999C32.053 20.6651 31.9897 20.3166 31.9184 19.9632C31.8406 19.6115 31.7871 19.2484 31.7288 18.8853C31.5035 17.4296 31.4046 15.9157 31.5083 14.6059L31.4516 14.5557C31.5018 14.285 31.5197 14.0062 31.5521 13.7257C31.5683 13.5863 31.5829 13.4437 31.5942 13.301C31.6056 13.1568 31.6169 13.0125 31.6364 12.8682C31.672 12.5781 31.698 12.2798 31.758 11.9848C31.7855 11.8357 31.8114 11.6849 31.8455 11.5358C31.8844 11.3867 31.9249 11.2376 31.9687 11.0884C31.8974 11.2797 31.8131 11.4693 31.7498 11.6671L31.7482 11.6703Z" fill="#202020"/>
<path d="M42.4093 3.7503C42.3785 3.66601 42.3445 3.58171 42.3072 3.50067C41.9279 3.25428 41.5243 3.04355 41.1125 2.85876C41.3265 3.04031 41.5064 3.13919 41.7026 3.26238C41.9036 3.37747 42.124 3.51363 42.4109 3.75192L42.4093 3.7503Z" fill="#202020"/>
<path d="M41.9343 3.91242C42.1304 4.02102 42.3104 4.15394 42.5 4.27551C42.359 4.16205 42.218 4.04858 42.0737 3.93835C41.9246 3.83623 41.7803 3.72601 41.6279 3.63037C41.7365 3.7179 41.8338 3.8184 41.9359 3.9108L41.9343 3.91242Z" fill="#202020"/>
<path d="M30.4951 11.2473L30.5551 11.0884C30.6913 10.2763 30.9085 9.47555 31.1905 8.69263C30.8809 9.52418 30.6507 10.3801 30.4967 11.2473H30.4951Z" fill="#202020"/>
<path d="M32.3124 27.5477C32.1584 27.3013 32.0676 26.9058 31.9331 26.6416L32.3416 27.7131L32.3124 27.5477Z" fill="#202020"/>
<path d="M35.144 38.1423C35.4893 38.5022 35.3564 38.982 35.4293 38.366C35.2202 37.7128 35.2721 38.3125 35.144 38.1423Z" fill="#202020"/>
<path d="M36.2058 40.6986C36.1621 40.5511 36.1232 40.4214 36.0875 40.3031C36.0632 40.2269 36.0389 40.1572 36.0146 40.0956C35.9659 39.9708 35.9205 39.8687 35.8735 39.7682C35.8897 40.0373 35.9319 40.1686 35.9838 40.2658C35.9967 40.2901 36.0113 40.3128 36.0243 40.3339L36.047 40.3663C36.0551 40.3793 36.0664 40.4036 36.0745 40.4214C36.1134 40.4992 36.1588 40.5868 36.2058 40.6986Z" fill="#202020"/>
<path d="M41.7106 22.9409C41.6911 23.3429 41.8564 22.842 41.9926 22.406L41.8564 21.9716C41.8111 22.2958 41.7624 22.6183 41.7106 22.9409Z" fill="#202020"/>
<path d="M42.0819 20.7672C42.0559 20.3911 42.0235 20.0183 41.9846 19.6455C41.996 19.913 42.0025 20.1804 42.0106 20.4495C41.8063 21.3183 41.8079 20.3085 41.7982 19.9746C41.6977 21.4156 41.9879 20.5241 42.0819 20.7672Z" fill="#202020"/>
<path d="M42.1062 18.5822C42.1565 17.8754 42.0106 18.0683 41.9539 18.3617C42.0106 18.4103 42.0446 18.8772 42.1062 18.5822Z" fill="#202020"/>
<path d="M35.6045 28.6532C35.5964 28.4522 35.5721 28.2188 35.6159 28.2447C35.5365 28.034 35.4975 27.9934 35.6045 28.6532Z" fill="#202020"/>
<path d="M35.6157 28.2447C35.6303 28.2852 35.6465 28.329 35.6643 28.3809C35.653 28.3371 35.6449 28.2998 35.6303 28.2512C35.6222 28.2398 35.6206 28.2479 35.6157 28.2447Z" fill="#202020"/>
<path d="M35.8039 14.0451C35.7488 13.2654 35.8476 12.8358 35.8817 12.1048L36.094 11.719C36.1394 10.9296 35.9968 11.3559 35.9919 10.774C36.0973 10.4238 36.1913 9.8727 36.2821 9.37021C36.3712 8.86609 36.4555 8.41059 36.5009 8.24688C36.6322 8.03777 36.5349 8.55648 36.5576 8.67805C36.6322 8.2258 36.6338 8.00697 36.65 7.76221C36.6662 7.51744 36.697 7.24674 36.8672 6.70534L36.9159 6.7021C37.0666 6.04398 37.2838 5.35507 37.5821 4.70345C37.6583 4.54297 37.7377 4.38249 37.822 4.23174C37.8657 4.15718 37.9079 4.08262 37.9549 4.01292C37.9776 3.97725 38.0003 3.94159 38.023 3.90917L38.0667 3.84433C38.1024 3.79084 38.1462 3.73735 38.1964 3.69034C38.2467 3.64496 38.3115 3.60443 38.3828 3.60119C38.4542 3.60119 38.519 3.63847 38.5757 3.68224C38.6325 3.72762 38.6811 3.78112 38.7297 3.83947C38.7702 3.89134 38.8286 3.97401 38.8772 4.04533C38.9275 4.12152 38.9761 4.19608 39.0247 4.27713C39.122 4.43599 39.2128 4.60133 39.3003 4.77315C39.6537 5.4572 39.9438 6.19311 40.2064 6.91282C40.1545 6.71182 40.2015 6.75073 40.2097 6.66481C40.7348 8.20149 41.1093 9.93754 41.3881 11.6007C41.6701 13.2654 41.8533 14.8637 42.0608 16.1783C42.0332 15.2802 42.043 14.0661 41.949 12.852C41.8598 11.6379 41.6653 10.4238 41.3427 9.55662C41.3346 8.86608 40.9196 7.89188 41.0056 7.58066C40.6976 6.30982 40.3264 5.45557 39.8919 4.66941C39.6715 4.28037 39.4316 3.89945 39.1414 3.54283C39.0182 3.39695 38.8853 3.25755 38.7184 3.14408C38.6357 3.08896 38.5401 3.04196 38.4331 3.02899C38.3261 3.01602 38.2142 3.05168 38.1154 3.10842C37.9987 3.15867 37.9614 3.15867 37.9371 3.13111C37.9128 3.10517 37.9079 3.05492 37.8544 3.0452C37.963 2.94308 38.0862 2.8523 38.2288 2.80205C38.3715 2.74856 38.532 2.76801 38.6665 2.83123C38.9388 2.96577 39.1495 3.19595 39.3441 3.44395C39.2403 3.28024 39.1269 3.12138 38.9891 2.97388C38.8529 2.82961 38.6892 2.69183 38.4898 2.63834C38.6227 2.63834 38.7897 2.71776 38.9469 2.83934C39.1058 2.96091 39.2549 3.12463 39.3878 3.28996C39.6472 3.61416 39.8368 3.92052 39.939 3.9497C39.8125 3.76491 39.6747 3.56715 39.5191 3.36939C39.357 3.16677 39.1739 2.94794 38.9518 2.78098C38.8416 2.69831 38.7184 2.62213 38.5822 2.58322C38.446 2.54108 38.2953 2.54756 38.1608 2.59781C37.8884 2.69831 37.6696 2.90742 37.4832 3.12463C37.1136 3.56715 36.864 4.05182 36.6565 4.51541C36.4539 4.97901 36.3145 5.41991 36.2334 5.79435C36.5139 5.1411 36.817 4.29334 37.2968 3.60605C37.3584 3.53959 37.4329 3.45692 37.4994 3.39047C37.5675 3.32401 37.6372 3.26241 37.7004 3.21378C37.8268 3.11652 37.929 3.08086 37.9338 3.13111C37.8479 3.22188 37.775 3.3159 37.7101 3.40992C37.6777 3.45854 37.6485 3.50231 37.6177 3.55256C37.5821 3.6093 37.5448 3.66765 37.5108 3.72762C37.373 3.96428 37.2482 4.20905 37.1331 4.45706C36.9045 4.95307 36.7067 5.45719 36.5252 5.97266C36.167 7.00359 35.872 8.07505 35.6677 9.28753C35.5624 9.89378 35.4246 10.7172 35.3322 10.808C35.3662 10.4028 35.2544 10.6962 35.2673 10.3606C35.2333 10.7999 35.303 10.8307 35.3516 10.9101C35.4019 10.9895 35.4278 11.1127 35.3354 11.7352L35.0793 11.5407C35.3062 12.0724 34.8588 13.0806 34.9837 13.9964C34.8556 14.3158 34.8183 13.7128 34.867 13.0174C34.76 13.8035 34.9188 13.8846 34.8848 14.5119C34.8151 14.3093 34.7438 14.1067 34.6773 13.9024C34.8653 14.5849 34.5833 15.1068 34.499 15.491C34.5573 15.5364 34.7389 15.1862 34.7178 16.0291C34.687 16.3906 34.6271 16.2058 34.5946 16.2917C34.6546 16.3387 34.7583 16.6419 34.7794 17.1978C34.7032 17.3016 34.6514 16.8299 34.5703 16.7942C34.5817 17.2157 34.6092 17.5577 34.5557 17.8673C34.6546 18.6097 34.6676 17.8138 34.7746 18.2644C34.7827 19.4088 34.5071 18.3941 34.3645 18.8253C34.1942 17.9662 34.1294 16.8445 34.0678 16.376C34.0921 16.9352 34.1294 17.4912 34.1748 18.0472C34.0743 17.9483 34.0759 19.1884 33.9365 18.3082C33.9365 19.1479 34.0143 20.0718 34.1424 20.9796C34.2704 21.8889 34.4423 22.7772 34.6206 23.5634C34.6125 23.3348 34.5833 23.0414 34.6497 23.0787C34.8426 23.8876 34.7162 23.8114 34.6789 23.9913C34.8507 24.5781 34.9966 24.4808 35.1814 24.8261C35.2771 26.0791 35.3905 26.2363 35.3938 27.3192L35.5397 27.2251C35.551 27.9902 35.8087 28.0534 35.8638 28.8688C35.8379 28.919 35.7423 28.6208 35.6596 28.3825C35.8412 29.0795 35.6466 29.0584 35.8347 29.736L35.5591 29.2222C35.6677 29.7701 35.8671 30.5659 35.6661 30.3098C36.0211 31.2354 36.2496 32.9309 36.5398 34.1094L36.3907 34.051C36.522 34.346 36.6079 34.915 36.6743 35.4596C36.6873 35.5893 36.7003 35.719 36.7132 35.8438C36.7246 35.9783 36.7359 36.1064 36.7473 36.2264C36.7732 36.4695 36.8073 36.6754 36.864 36.8083L36.8105 36.9023L37.039 38.1456C37.039 38.7113 36.8235 38.5249 36.8834 38.5686C36.8996 38.8783 36.9126 39.1716 36.9223 39.4488C36.9256 39.598 36.9288 39.7438 36.9337 39.8849C36.9337 40.0729 36.9369 40.2577 36.9369 40.436C36.9337 40.6159 36.9418 40.7861 36.9467 40.9498C36.9596 41.0228 36.9726 41.0941 36.9872 41.1654L36.9969 41.2189L37.0131 41.2611L37.0472 41.3421L37.0812 41.4232C37.1006 41.4394 37.1266 41.4491 37.1477 41.4621L37.2157 41.4994L37.3179 41.5156C37.4524 41.5383 37.5837 41.561 37.7117 41.5853C37.7652 41.5642 37.8463 41.548 37.9516 41.5383C38.198 41.4864 38.5644 41.4621 38.9566 41.4216C38.9939 41.4329 39.0247 41.4151 39.0571 41.407C39.0896 41.3972 39.122 41.3875 39.156 41.3762C39.2225 41.3567 39.2906 41.334 39.3554 41.3243C39.4867 41.3 39.6099 41.2951 39.7185 41.3129C39.7817 41.3227 39.8401 41.3389 39.8919 41.3632C39.8984 41.3632 39.9065 41.3745 39.9098 41.3664L39.9195 41.3421L39.9406 41.2951L39.9811 41.1995C40.0054 41.1379 40.0411 41.0698 40.0751 41.0033C40.1092 40.9369 40.1383 40.872 40.1756 40.804C40.1805 40.7537 40.1853 40.7067 40.1886 40.6597C40.2161 40.4668 40.2372 40.269 40.2583 40.0713C40.2745 39.9011 40.2923 39.7309 40.3085 39.5607C40.3377 39.243 40.3636 38.9236 40.3863 38.6043C40.4317 37.9657 40.4674 37.3237 40.4982 36.6802C40.529 36.0367 40.5533 35.3916 40.5744 34.748C40.6003 34.1061 40.6036 33.4529 40.6425 32.8321C40.7251 31.5645 40.8499 30.2969 40.9634 29.0617C41.0817 27.8249 41.1984 26.614 41.3103 25.4502C41.4043 24.7564 41.3395 23.7741 41.3994 22.8907C41.1774 23.9459 41.2584 24.0594 41.1012 25.1033C40.9391 25.8797 40.7073 26.1423 40.4966 26.8021L40.6992 26.4811C40.6781 27.5591 40.5144 27.2008 40.5582 28.0616L40.3118 27.9935C40.4009 28.3063 40.1983 29.0341 40.0946 29.3308L40.234 29.6274C40.054 30.2855 39.9616 30.7183 39.7801 30.9047L39.9471 30.8577C39.8822 30.9777 39.8109 31.6244 39.7412 32.1431C39.6715 32.6602 39.6034 33.0557 39.5013 32.6327C39.511 32.7348 39.5321 32.8321 39.5451 32.9601C39.5613 33.0882 39.5629 33.26 39.5451 33.4707L39.383 33.5274C39.3959 34.145 39.3943 34.8339 39.2971 35.0074C39.2744 34.6718 39.2095 34.5568 39.1447 34.4433C38.9939 37.0449 39.6439 35.0187 39.5434 37.3237L39.4413 37.2913L39.5191 37.8797L39.3522 38.4827C39.4267 38.6918 39.451 38.9933 39.4413 39.35C39.4397 39.4391 39.4348 39.5315 39.4284 39.6255C39.4219 39.7082 39.4154 39.7941 39.4073 39.8833C39.3959 40 39.3781 40.1215 39.3586 40.2399C39.3457 40.3177 39.3311 40.3955 39.3149 40.47L39.3035 40.5268L39.2971 40.5543C39.2971 40.5641 39.2954 40.577 39.2825 40.5641C39.2468 40.5397 39.2095 40.5187 39.1706 40.5008C39.0442 40.4409 38.9145 40.4457 38.7929 40.4457C38.7492 40.4457 38.6535 40.4473 38.5984 40.4522C38.5368 40.4571 38.4752 40.4619 38.412 40.4717C38.3553 40.4798 38.2985 40.4895 38.2402 40.5008C38.198 40.5041 38.1559 40.5041 38.1154 40.5008C38.0943 40.4992 38.0748 40.4976 38.0554 40.4976H38.0262L38.0116 40.4944C38.01 40.4944 38.0068 40.4944 38.0051 40.4944V40.4846C38.0214 40.3776 38.0457 40.2626 38.0684 40.1507C38.0911 40.0389 38.1137 39.9303 38.1283 39.8249L38.1332 39.786L38.1364 39.7049C38.1381 39.6466 38.1397 39.5866 38.1413 39.5266C38.1413 39.4051 38.1413 39.2786 38.1364 39.1473L37.9776 39.2187C38.0522 38.794 38.0959 37.7938 38.1478 36.7986C38.1721 36.2961 38.2126 35.826 38.2256 35.33C38.2305 35.1095 38.2402 34.9085 38.258 34.7334C38.2726 34.5632 38.2937 34.4206 38.3245 34.3152C38.0846 33.5323 38.3034 34.4044 38.1753 34.4044C37.9776 33.6361 37.929 33.2276 37.929 32.8985C37.929 32.5711 37.976 32.3279 37.9516 31.9195C37.7085 30.9923 38.0181 32.6505 37.8106 32.1642C37.6777 30.7021 37.4119 31.0295 37.1947 29.2368C37.2514 29.0439 37.3406 29.6825 37.4313 29.856C37.0455 28.637 36.7067 26.2996 36.3323 24.4598C36.2626 23.933 36.1832 23.3445 36.0989 22.7189C36.0227 22.098 35.953 21.4399 35.8995 20.7688C35.7909 19.4283 35.7536 18.0407 35.8071 16.8185L35.7488 16.7748C35.8833 15.7601 35.765 14.6594 35.9141 13.4826L35.7925 14.0548L35.8039 14.0451Z" fill="#202020"/>
<path d="M40.3572 4.38088L40.3896 4.13449C40.1805 3.78599 39.9584 3.45207 39.6829 3.12463C39.7931 3.37102 39.8806 3.52339 39.9941 3.70332C40.1043 3.88 40.2291 4.07614 40.3588 4.3825L40.3572 4.38088Z" fill="#202020"/>
<path d="M39.8725 4.33708C39.9811 4.50566 40.0865 4.6791 40.1854 4.85416C40.0508 4.55753 39.9066 4.26575 39.7461 3.9837C39.7899 4.10203 39.832 4.21874 39.8709 4.33708H39.8725Z" fill="#202020"/>
<path d="M34.5022 13.8246L34.5314 13.6755C34.5379 12.9396 34.567 12.202 34.6189 11.4645C34.5557 12.2506 34.5152 13.0368 34.5022 13.823V13.8246Z" fill="#202020"/>
<path d="M35.4538 28.5981C35.3371 28.3647 35.3014 28.0032 35.2058 27.7552L35.4603 28.7472L35.4554 28.5965L35.4538 28.5981Z" fill="#202020"/>
<path d="M36.1865 38.3174C36.4426 38.6951 36.2011 39.0825 36.4135 38.5654C36.3567 37.9608 36.2724 38.4892 36.1865 38.3174Z" fill="#202020"/>
<path d="M36.5966 41.1654C36.5917 41.0179 36.5836 40.8882 36.5739 40.7715C36.5706 40.65 36.5658 40.543 36.5593 40.4441C36.5463 40.2447 36.5269 40.0794 36.5074 39.9092C36.4555 40.3274 36.4604 40.5559 36.4831 40.7132C36.5042 40.8753 36.5625 40.9644 36.5949 41.167L36.5966 41.1654Z" fill="#202020"/>
<path d="M48.6437 22.9458C48.5723 23.424 48.8025 22.834 48.9889 22.3185L48.9095 21.7949L48.6437 22.9458Z" fill="#202020"/>
<path d="M49.271 20.3652C49.271 19.9129 49.2791 19.4639 49.271 19.0165C49.2629 19.3375 49.2386 19.6584 49.224 19.981C48.9484 21.0152 49.0327 19.8027 49.0554 19.404C48.9468 20.2647 48.9776 20.4316 49.0489 20.4203C49.1251 20.409 49.2369 20.2177 49.271 20.3652Z" fill="#202020"/>
<path d="M49.4573 17.7425C49.5334 16.8915 49.3811 17.1232 49.313 17.475C49.3665 17.535 49.3892 18.0958 49.4573 17.7425Z" fill="#202020"/>
<path d="M29.8094 27.3726C29.7478 27.1376 29.6619 26.8669 29.7105 26.8912C29.576 26.6562 29.5241 26.614 29.8094 27.3726Z" fill="#202020"/>
<path d="M29.7107 26.8912C29.7366 26.9366 29.7642 26.9853 29.7966 27.0436C29.7739 26.995 29.7545 26.9528 29.7285 26.8977C29.7172 26.8848 29.7172 26.8945 29.7123 26.8912H29.7107Z" fill="#202020"/>
<path d="M28.7383 10.3476C28.8047 9.91482 28.936 9.60522 29.0511 9.29562C29.1176 9.14487 29.1921 9.0006 29.2651 8.84499C29.3331 8.68613 29.4223 8.5289 29.5147 8.34897C29.6395 8.24847 29.7546 8.14473 29.8891 8.0572C30.108 7.68924 30.1323 7.58874 30.1452 7.5158C30.155 7.43961 30.1453 7.38612 30.309 7.11056C30.3787 7.03761 30.4694 6.96629 30.557 6.88038C30.6477 6.79609 30.7385 6.70045 30.8374 6.60481C31.0465 6.42326 31.2524 6.21092 31.4777 6.03585C31.9089 5.66465 32.3465 5.37288 32.5135 5.27724C32.7793 5.20592 32.2849 5.53822 32.2071 5.65006C32.413 5.49769 32.5653 5.38747 32.6869 5.28211C32.8134 5.18323 32.9171 5.10218 33.0257 5.01627C33.1343 4.92712 33.2559 4.84445 33.4261 4.75043C33.5104 4.70342 33.606 4.64831 33.7195 4.59482C33.8346 4.54295 33.9659 4.48783 34.1199 4.42624L34.1571 4.46028C34.8687 4.12149 35.6873 3.85728 36.5594 3.68708C36.9954 3.59468 37.4461 3.54119 37.9032 3.4958C38.0199 3.4877 38.1382 3.47959 38.2549 3.47311L38.3408 3.46663H38.3344H38.3603L38.4122 3.46338L38.5921 3.45852C38.8239 3.45852 39.0427 3.46825 39.2713 3.47311C39.7235 3.50067 40.1806 3.55578 40.6313 3.6579C40.8582 3.69842 41.0803 3.76975 41.304 3.82486C41.5228 3.8978 41.7481 3.95778 41.9621 4.04369C42.8293 4.36464 43.6527 4.78609 44.3854 5.29669C44.1974 5.1427 44.2639 5.15567 44.2071 5.073C44.9933 5.60306 45.7243 6.28062 46.3533 7.05382C46.9838 7.8254 47.5123 8.69262 47.9256 9.59063C48.7604 11.3915 49.1446 13.2864 49.4137 14.8507C49.3407 13.7776 49.2435 12.3171 48.8382 10.9085C48.7864 10.7334 48.7361 10.5583 48.6842 10.3833C48.6226 10.2115 48.5594 10.0413 48.4978 9.87268C48.467 9.78839 48.4346 9.7041 48.4038 9.62143C48.3665 9.54038 48.3309 9.45933 48.2936 9.37828C48.219 9.21781 48.1477 9.05895 48.0731 8.90496C47.9888 8.75583 47.9062 8.60833 47.8251 8.46406C47.783 8.39274 47.7441 8.32142 47.7003 8.25334C47.6549 8.18688 47.6095 8.12042 47.5658 8.05558C47.4766 7.9259 47.3875 7.80271 47.2999 7.68438C47.2043 7.57091 47.1103 7.46393 47.0179 7.36181C46.9725 7.27103 46.9239 7.17377 46.8606 7.08138C46.7974 6.98898 46.7293 6.89497 46.658 6.80257C46.5202 6.6113 46.3533 6.43623 46.1993 6.26927C46.0502 6.09907 45.8945 5.95481 45.7778 5.82351C45.6595 5.69221 45.5752 5.57712 45.5379 5.49283C44.9755 4.94819 44.4211 4.56564 43.8943 4.26414C43.6349 4.10691 43.3707 3.9902 43.1195 3.86862C42.9914 3.81351 42.8617 3.76326 42.7353 3.71301L42.5456 3.63845L42.3527 3.57523C41.8438 3.39692 41.3234 3.27211 40.7528 3.1635C40.1823 3.05976 39.5549 2.97547 38.8239 2.96737C38.6164 2.93981 38.5581 2.91874 38.5402 2.88308C38.5224 2.84904 38.5435 2.80851 38.4819 2.76961C38.6813 2.75664 38.8774 2.76637 39.0768 2.76637C39.2745 2.76637 39.4739 2.76799 39.6717 2.78906C39.7705 2.79717 39.8694 2.80365 39.9683 2.815L40.2633 2.85552C40.4611 2.87822 40.6556 2.92036 40.8533 2.95602C40.3865 2.81662 39.9051 2.72584 39.4204 2.65452C39.5793 2.65452 39.7965 2.66425 40.0331 2.69018C40.2698 2.7226 40.5275 2.75826 40.7674 2.81013C41.0106 2.85228 41.2343 2.90901 41.4142 2.94143C41.5941 2.97061 41.7254 2.99492 41.7789 2.97223C41.257 2.85066 40.6604 2.71288 40.0169 2.63831C39.8564 2.61886 39.6927 2.60589 39.529 2.58968C39.3653 2.57347 39.1967 2.57671 39.0298 2.56861C38.6958 2.5524 38.3571 2.55564 38.0231 2.57996C37.3553 2.61886 36.6972 2.70801 36.1039 2.83607C35.509 2.96412 34.9806 3.14081 34.5591 3.32398C35.3874 3.10515 36.4297 2.83607 37.4461 2.76475C37.5579 2.76799 37.686 2.77123 37.8124 2.77447C37.9405 2.77934 38.0669 2.78744 38.1788 2.79554C38.2322 2.80041 38.2938 2.80365 38.3263 2.81013C38.3716 2.81662 38.417 2.8231 38.4478 2.83121C38.5127 2.84579 38.5483 2.86363 38.537 2.8847C37.1089 3.02248 35.8251 3.27535 34.5835 3.66925C33.9659 3.87511 33.3596 4.12149 32.7663 4.42948C32.1715 4.73422 31.596 5.11677 31.053 5.58361C30.5035 6.04558 29.8389 6.75232 29.7189 6.80906C29.8567 6.61454 29.8567 6.57726 29.8519 6.54808C29.8454 6.5189 29.8324 6.49621 29.9524 6.33897C29.7838 6.53673 29.7238 6.66317 29.6962 6.74422C29.6687 6.82688 29.6768 6.86741 29.6752 6.91928C29.6719 6.96953 29.659 7.02951 29.5876 7.14622C29.5163 7.2613 29.4061 7.44934 29.1905 7.74435C29.1484 7.64385 29.1062 7.54011 29.0657 7.43637C29.0543 7.51904 29.0268 7.60171 28.9944 7.68924C28.9636 7.78001 28.923 7.87241 28.8744 7.96804C28.8258 8.06368 28.769 8.16256 28.7058 8.26306C28.6459 8.36518 28.5907 8.47703 28.5275 8.58887C28.4659 8.70234 28.4011 8.81743 28.3362 8.93576C28.2795 9.05733 28.226 9.18377 28.1725 9.3102C28.1223 9.43826 28.0688 9.56632 28.0315 9.69761C27.9991 9.83053 27.9715 9.96507 27.9521 10.098C27.8419 10.265 27.824 10.1758 27.8629 9.944C27.8872 9.82891 27.9083 9.6733 27.9699 9.50634C28.0267 9.33776 28.0947 9.14973 28.1677 8.95521C27.9748 9.38477 27.8986 9.63278 27.871 9.86782C27.8532 9.98453 27.8386 10.0948 27.8127 10.2196C27.7997 10.2828 27.7851 10.3492 27.7673 10.4222C27.7543 10.4967 27.7381 10.5778 27.7154 10.6686C27.6846 10.4173 27.6862 10.1709 27.6814 9.91807C27.6798 10.1288 27.636 10.3152 27.6036 10.4919C27.5679 10.6686 27.516 10.829 27.4561 10.9798C27.4269 11.0544 27.3945 11.1273 27.3621 11.1954C27.3345 11.2651 27.3069 11.3332 27.2794 11.398C27.2259 11.5277 27.174 11.6493 27.1384 11.7611C27.1627 11.7919 27.2356 11.7092 27.281 11.7433C27.3037 11.7611 27.3199 11.8065 27.3199 11.9102C27.3199 11.9621 27.315 12.0286 27.3053 12.1129C27.3005 12.1988 27.2924 12.3009 27.2794 12.4273C27.2097 12.8569 27.1708 12.6299 27.127 12.7288C27.1529 12.7596 27.1854 12.8682 27.2032 13.0498C27.2324 13.2329 27.2534 13.4923 27.2453 13.8246C27.1627 13.9462 27.14 13.3788 27.0605 13.3302C27.0557 13.5847 27.0541 13.8149 27.0427 14.0272C27.0427 14.2396 27.0379 14.4357 27.0087 14.6205C27.1011 15.5169 27.1205 14.5589 27.2226 15.1019C27.2794 16.4733 26.9601 15.2575 26.8352 15.7795C26.8109 15.6498 26.7866 15.5136 26.7623 15.3759C26.7364 15.2381 26.7169 15.097 26.7039 14.9544C26.678 14.6691 26.6521 14.3822 26.6261 14.1099C26.6132 13.8376 26.6115 13.5782 26.6018 13.3513C26.597 13.2378 26.5937 13.1324 26.5905 13.0384C26.5905 12.9428 26.5905 12.8585 26.5905 12.7872C26.5629 13.4728 26.5743 14.1569 26.6261 14.8345C26.5824 14.7745 26.5386 15.123 26.5256 15.3499C26.5062 15.5785 26.4738 15.6887 26.3862 15.1505C26.3943 15.4067 26.4105 15.6693 26.4284 15.9367C26.4381 16.0712 26.4478 16.2058 26.4576 16.342C26.4754 16.4765 26.4932 16.6127 26.511 16.7488C26.55 17.0211 26.5888 17.2967 26.6278 17.5723C26.6829 17.8446 26.7396 18.1185 26.7947 18.3925C26.8985 18.9404 27.0589 19.4704 27.1935 19.9875C27.3361 20.503 27.5063 20.9909 27.6506 21.4529C27.6084 21.1789 27.5323 20.8353 27.6036 20.8742C27.9197 21.8224 27.7916 21.743 27.7851 21.9602C28.072 22.6459 28.1985 22.5178 28.4497 22.9101C28.6313 23.646 28.7609 24.0594 28.8825 24.4435C29.0025 24.8293 29.103 25.1908 29.244 25.8262L29.3656 25.6949C29.5698 26.5946 29.8486 26.627 30.1226 27.5736C30.1096 27.6368 29.9329 27.3029 29.787 27.0371C30.155 27.8265 29.9605 27.8314 30.3365 28.5948L29.9167 28.0388C30.1744 28.6645 30.6088 29.5577 30.3333 29.2951C30.9525 30.3179 31.703 32.2469 32.3935 33.5501L32.2266 33.5161C32.6869 34.145 33.3531 36.0772 33.8086 36.5959L33.8021 36.7207L34.5932 38.024C34.8606 38.6545 34.5737 38.5281 34.6499 38.5557C34.9692 39.2203 35.2529 39.8151 35.4961 40.3565C35.7392 40.898 35.9467 41.3875 36.0942 41.8268L36.4151 42.7815L37.1397 41.8835C37.1397 41.8835 37.1511 41.8689 37.1575 41.8608C37.1332 41.8122 37.143 41.723 37.2191 41.6241C37.2564 41.5771 37.3099 41.5269 37.3796 41.4896C37.4153 41.4734 37.4542 41.462 37.4963 41.4442C37.5401 41.4264 37.579 41.4248 37.6357 41.415C37.9275 41.3956 38.2501 41.381 38.5791 41.3713C38.7428 41.3664 38.9098 41.3615 39.0735 41.3567C39.1659 41.3534 39.2081 41.3534 39.2697 41.3599C39.3264 41.3664 39.3815 41.3794 39.435 41.3972C39.589 41.4588 39.7187 41.5658 39.8094 41.7068L40.072 42.1104L40.3606 41.7214C40.8015 41.1281 41.2537 40.5332 41.6654 39.9075C42.0756 39.2819 42.4759 38.6481 42.8504 37.9964C43.6057 36.6964 44.2898 35.3526 44.9025 33.9943C45.5169 32.6359 46.0599 31.2613 46.5429 29.9013C47.0195 28.5397 47.4264 27.1895 47.7878 25.8813C47.9045 25.4761 47.9969 24.9801 48.0861 24.4565C48.1655 23.9313 48.2385 23.3786 48.3325 22.8615C47.9499 24.0885 48.0164 24.2328 47.65 25.4437C47.4944 25.8927 47.3291 26.1812 47.1719 26.4535C47.0081 26.7242 46.8542 26.9803 46.6613 27.3434C46.7553 27.23 46.8525 27.1181 46.9433 27.0014C46.799 27.6271 46.7018 27.8281 46.6256 27.9999C46.5462 28.1701 46.4911 28.3128 46.3857 28.8137L46.162 28.6872C46.1604 29.0649 45.7487 29.864 45.546 30.1769L45.5866 30.5481C45.1992 31.2597 44.9463 31.72 44.708 31.8821L44.8863 31.874C44.7842 31.994 44.4697 32.6991 44.1974 33.2486C43.917 33.7965 43.6868 34.1904 43.7678 33.7025C43.7014 33.9278 43.6852 34.1564 43.4388 34.6005L43.2621 34.5973C43.1195 34.9344 42.9557 35.2845 42.805 35.5682C42.6559 35.8535 42.5229 36.0723 42.4305 36.142C42.5894 35.7789 42.5845 35.625 42.5845 35.4774C41.8454 36.8228 41.8616 37.0206 41.9216 37.1924C41.975 37.361 42.0756 37.5069 41.3591 38.6788L41.2878 38.5962L41.0041 39.2413C40.8371 39.4229 40.6621 39.5979 40.4919 39.7746C40.4043 40.141 40.0737 40.6305 39.67 41.1913L40.5243 41.2157C40.2779 40.8428 39.8467 40.5462 39.3556 40.4814C39.294 40.4733 39.2324 40.4668 39.1708 40.4652L39.0379 40.4619L38.785 40.4538C38.6164 40.4489 38.4462 40.4457 38.2793 40.4408C38.1107 40.4376 37.9437 40.436 37.78 40.4327C37.6536 40.4279 37.3585 40.4327 37.1397 40.5073C36.6761 40.6386 36.3292 40.9774 36.1623 41.3356L37.1235 41.3875C37.1089 41.3615 37.0959 41.3372 37.0814 41.3113C37.0084 41.1605 36.9436 40.9871 36.8787 40.8023C36.8123 40.6191 36.7474 40.4181 36.6745 40.2009C36.5286 39.7649 36.3519 39.2624 36.0828 38.6951L35.971 38.8361C35.7003 37.8457 34.2463 34.3671 34.209 33.3556C33.7114 32.537 34.2187 33.461 34.0939 33.4918C33.1943 31.8627 33.3758 31.6439 33.0776 30.7167C32.554 29.7019 33.3661 31.5401 33.0127 31.0263C32.4389 29.3745 32.2687 29.8024 31.5441 27.7698C31.5474 27.538 31.81 28.2609 31.9526 28.4425C31.2199 27.1068 30.2555 24.45 29.5309 22.3492C29.1824 21.1303 28.7917 19.6131 28.5308 18.0375C28.2682 16.4635 28.166 14.8263 28.2973 13.4291L28.2406 13.374C28.3379 12.7937 28.4043 12.2004 28.5032 11.5893C28.521 11.4337 28.5583 11.2845 28.5907 11.1322C28.6248 10.9798 28.6588 10.8242 28.6929 10.6686C28.7399 10.5178 28.7885 10.3655 28.8371 10.2131C28.8631 10.1369 28.8874 10.0607 28.9133 9.98291C28.9425 9.90834 28.9782 9.8354 29.0106 9.76083C28.8987 9.944 28.8161 10.1434 28.7253 10.3395L28.7383 10.3476Z" fill="#202020"/>
<path d="M42.4952 3.04679L42.312 2.82633C42.0786 2.75825 41.8452 2.69504 41.6101 2.6383C41.3735 2.58968 41.14 2.53132 40.9001 2.4989C41.4399 2.74367 41.756 2.72908 42.4936 3.04679H42.4952Z" fill="#202020"/>
<path d="M42.0639 3.32238C42.2941 3.39533 42.5308 3.45531 42.7577 3.5396C42.3995 3.38236 42.0315 3.24458 41.6587 3.12787L42.0639 3.32238Z" fill="#202020"/>
<path d="M27.5371 9.79162L27.6117 9.62466C27.8662 8.76879 28.2212 7.93562 28.6929 7.16241C28.1806 7.98262 27.7997 8.87578 27.5371 9.79324V9.79162Z" fill="#202020"/>
<path d="M29.6442 27.3337C29.4659 27.076 29.3314 26.6594 29.1709 26.3806L29.6896 27.5088L29.6426 27.3337H29.6442Z" fill="#202020"/>
<path d="M33.8945 38.5492C34.3111 38.875 34.2755 39.4002 34.2236 38.7405C33.8816 38.084 34.0566 38.708 33.8945 38.5492Z" fill="#202020"/>
<path d="M35.3647 40.9304C35.1977 40.5397 35.0664 40.3403 34.9368 40.1426C35.0681 40.6986 35.1913 40.6645 35.3647 40.9304Z" fill="#202020"/>
<path d="M40.3554 42.1575C40.3814 42.3731 40.4122 42.339 40.4446 42.1915C40.4543 42.1575 40.4559 42.104 40.4608 42.0472C40.464 41.9889 40.4689 41.9273 40.4608 41.8592C40.4478 41.7231 40.4073 41.5739 40.3457 41.441C40.1966 41.321 40.0312 41.2449 39.8691 41.2076C40.1674 41.4232 40.3538 41.7863 40.3571 42.1591L40.3554 42.1575Z" fill="#202020"/>
<path d="M38.5708 40.9045L37.9743 41.0082C37.7749 41.0471 37.5756 41.0617 37.407 41.1428C37.5318 41.0876 37.6663 41.0812 37.8074 41.0617L38.2385 41.0115C39.1949 41.1168 38.1105 41.2319 37.7506 41.2692C39.3165 41.2173 38.3196 41.0212 38.5692 40.9045H38.5708Z" fill="#202020"/>
<path d="M36.6014 41.8073C36.5284 42.0115 36.5495 42.1542 36.5624 42.2207C36.5738 42.2822 36.59 42.3082 36.6078 42.3049C36.6257 42.3001 36.6435 42.2677 36.6613 42.2255C36.6792 42.1801 36.6937 42.1202 36.7132 42.0569C36.6856 42.031 36.6759 41.9046 36.6808 41.8154C36.6856 41.7279 36.6775 41.6711 36.6014 41.8073Z" fill="#202020"/>
<path d="M40.8564 78.1008C40.8272 78.3147 40.8078 78.5676 40.7705 78.5319C40.8094 78.7718 40.8418 78.8221 40.8564 78.1008Z" fill="#202020"/>
<path d="M40.7705 78.5319C40.764 78.4865 40.7559 78.4363 40.7478 78.3779C40.751 78.4266 40.7527 78.4671 40.7575 78.5222C40.7624 78.5368 40.7656 78.5287 40.7705 78.5319Z" fill="#202020"/>
<path d="M37.6664 73.4259C37.5659 72.5651 37.6291 72.0821 37.5869 71.2684L37.7539 70.8145C37.6988 69.9327 37.6113 70.4255 37.5253 69.7852C37.6323 68.9812 37.5335 67.2856 37.5416 66.9047C37.6194 66.6405 37.6486 67.2338 37.6956 67.3635C37.6388 66.3293 37.4783 66.4022 37.4767 65.1184L37.5221 65.0973C37.2838 62.0289 37.3454 58.1402 37.1947 54.728C37.1866 54.9598 37.1509 54.9015 37.1169 54.9906C37.0553 51.3888 37.0472 47.2327 36.65 44.3846C36.6938 46.3314 36.4296 49.6285 36.7262 51.6142C36.6079 52.3485 36.7797 53.4799 36.6111 53.7846C36.5382 56.6148 36.8364 57.7657 36.8413 60.4889C36.8105 60.8796 36.7278 60.6899 36.65 60.8018L36.5706 58.6443L36.5041 59.9589C36.4296 59.3899 36.4831 58.004 36.3323 57.8451C36.5122 59.7287 36.3712 62.7437 36.5836 64.3874C36.6209 63.6142 36.5771 62.6481 36.5901 61.7338C36.6436 61.3318 36.6825 60.7078 36.7635 60.7483C36.9985 63.3662 36.8818 65.5366 36.9564 68.2258C36.9742 68.9001 36.9613 69.8144 36.8818 69.9246C36.8543 69.4821 36.7878 69.816 36.7505 69.4529C36.8186 70.406 37.0391 69.5485 37.0066 70.9263L36.7295 70.7497C37.0229 71.2975 36.6776 72.4355 36.8494 73.4161C36.7376 73.7695 36.6743 73.1179 36.6662 72.3641C36.6176 73.2216 36.7797 73.2978 36.7748 73.9819L36.5382 73.3335C36.7635 74.0613 36.4944 74.6383 36.4182 75.0501C36.4766 75.0987 36.6565 74.7162 36.6419 75.6288C36.6111 76.021 36.5528 75.82 36.5187 75.9124C36.5771 75.9627 36.6841 76.2917 36.6906 76.8947C36.6111 77.005 36.5722 76.4943 36.4912 76.4554C36.496 76.9093 36.5106 77.2805 36.4458 77.6096C36.5123 78.4136 36.5593 77.5577 36.6452 78.0489C36.5884 79.284 36.3712 78.1721 36.2026 78.6275C36.0892 77.6971 36.0535 76.5008 35.9919 76.0032L36.0568 77.7879C35.9644 77.6793 35.8979 78.9939 35.8071 78.0521C35.7698 78.8221 35.7682 79.6617 35.7844 80.5062C35.7909 80.7397 35.7958 80.9731 35.8023 81.2049C35.8201 81.5307 35.9271 81.8435 36.1021 82.1061C36.4507 82.6378 37.0747 82.9312 37.6615 82.9004C37.9144 82.8891 38.1591 82.8793 38.3974 82.8696C38.1559 82.8372 37.8447 82.8177 37.8949 82.7594C38.7767 82.7043 38.6795 82.821 38.8594 82.8874C38.8999 82.8826 38.9388 82.8777 38.9729 82.8745C39.0134 82.8696 39.0523 82.8647 39.088 82.8599C39.1771 82.8485 39.2517 82.8356 39.3149 82.8161C39.4413 82.7788 39.5208 82.7286 39.5856 82.6783C39.712 82.5746 39.7882 82.4757 39.9568 82.2958C40.2356 82.1337 40.4091 81.9068 40.5128 81.6944C40.6149 81.4788 40.6457 81.2762 40.6538 81.0946C40.6603 80.9682 40.6668 80.8515 40.6716 80.7348C40.6781 80.6246 40.6862 80.5143 40.6976 80.3976C40.7203 80.1642 40.7527 79.9049 40.8127 79.5564L40.6522 79.6277C40.7819 78.8156 40.5387 78.6956 40.6327 77.8203C40.6668 77.7717 40.7073 78.1072 40.7462 78.3763C40.6943 77.6015 40.8807 77.6614 40.8192 76.9045L40.9975 77.5042C40.991 76.9012 40.9359 76.0178 41.0882 76.329C40.9051 75.277 40.978 73.4291 40.8726 72.1145L41.012 72.202C40.8435 71.5228 41.0202 69.7025 40.8192 69.1125L40.8759 69.012L40.6895 67.6585C40.7057 67.0457 40.9148 67.2532 40.8564 67.2046C40.8192 65.8592 40.8078 64.8056 40.8807 63.94C40.6943 63.7228 40.6457 62.3077 40.6214 61.1827C40.7365 55.7606 40.5614 49.9381 40.3475 44.8936C40.3394 44.1383 40.1335 43.0992 40.0427 42.1558C39.9973 43.3099 40.0897 43.4202 40.0913 44.5548C40.0427 45.4075 39.8514 45.7219 39.7315 46.4562L39.8887 46.0834C40.0152 47.2359 39.8044 46.8777 39.9649 47.7887L39.712 47.7514C39.8417 48.0723 39.7364 48.8763 39.6699 49.2086L39.845 49.5069C39.7493 50.2331 39.7088 50.7048 39.5499 50.9269L39.7104 50.8555C39.6099 51.1295 39.7282 53.6468 39.4543 52.7861C39.49 52.9968 39.5743 53.1881 39.5548 53.6501L39.3943 53.7198C39.4349 54.3844 39.4673 55.1268 39.3765 55.3181C39.3376 54.9582 39.2679 54.8366 39.1982 54.7183C39.1706 57.5307 39.7218 55.3132 39.7363 57.803L39.6326 57.7738L39.7428 58.406L39.6115 59.069C39.9665 59.967 39.5791 62.5654 39.7671 64.068C39.7963 64.6597 39.5856 65.4377 39.6099 66.5611L39.7704 66.4881C39.6083 67.3943 39.5046 70.7707 39.135 71.6169C39.2582 72.4695 39.169 71.5277 39.2955 71.5455C39.4624 73.2087 39.2112 73.3237 39.1155 74.1958C39.1949 75.2203 39.1755 73.4129 39.2971 73.9624C39.1755 75.5315 39.4948 75.2365 39.3878 77.1752C39.2987 77.368 39.3246 76.6743 39.2663 76.4749C39.3311 77.0131 39.3538 77.736 39.3619 78.5368C39.3619 78.9371 39.3619 79.3586 39.3619 79.7849C39.3603 80.1966 39.3587 80.6165 39.3554 81.0298C39.3603 81.1465 39.2922 81.2551 39.1966 81.3086C39.1593 81.3183 39.1188 81.3216 39.0799 81.3167L39.0507 81.3119C39.0507 81.3119 39.0474 81.3102 39.0312 81.3102L38.9713 81.307C38.8902 81.3038 38.8092 81.3005 38.7265 81.2973C38.412 81.2859 38.083 81.273 37.7426 81.2616C37.6404 81.2519 37.5626 81.1627 37.561 81.0736C37.561 81.0622 37.561 81.0509 37.5626 81.0412L37.5659 81.0249C37.5659 81.0249 37.5659 81.0201 37.5659 81.0168V80.9715C37.5707 80.8337 37.5756 80.6959 37.5788 80.5565C37.5869 80.2793 37.5951 80.0021 37.6048 79.7233C37.6388 78.6113 37.6793 77.5058 37.7328 76.4976L37.6745 76.4473C37.8236 75.3208 37.6842 74.0986 37.7507 72.7807L37.6664 73.4242V73.4259Z" fill="#202020"/>
<path d="M36.1523 57.2405L36.0161 57.4561L36.1101 58.6994C36.2204 58.1953 36.1247 57.9343 36.1523 57.2405Z" fill="#202020"/>
<path d="M36.569 57.508L36.5042 56.858L36.5155 57.91L36.569 57.508Z" fill="#202020"/>
<path d="M36.3549 73.2654L36.376 73.105L36.2593 70.7351L36.3549 73.2654Z" fill="#202020"/>
<path d="M40.9941 78.1883C41.0655 78.459 41.0363 78.8497 41.0849 79.1317L41.0152 78.0278L40.9941 78.1883Z" fill="#202020"/>
<path d="M41.5486 67.498C41.3022 67.0782 41.5518 66.6632 41.3281 67.2208C41.3686 67.8822 41.4659 67.3084 41.5486 67.498Z" fill="#202020"/>
<path d="M41.1903 65.0131C41.1822 65.394 41.2195 65.6047 41.2568 65.8138C41.367 65.3113 41.239 65.2951 41.1903 65.0131Z" fill="#202020"/>
<path d="M39.5646 82.1321C39.5792 82.0705 39.5046 82.0219 39.4543 81.9716C39.4673 82.0381 39.4787 82.1045 39.4868 82.171C39.5127 82.158 39.5386 82.1451 39.5646 82.1321Z" fill="#202020"/>
<path d="M39.3685 82.1337C39.3522 82.2083 39.3296 82.2812 39.302 82.3542C39.3247 82.3169 39.3458 82.2812 39.3636 82.2423C39.4673 82.3282 39.396 82.4611 39.3587 82.5049C39.5095 82.4271 39.3668 82.252 39.3685 82.1321V82.1337Z" fill="#202020"/>
<path d="M39.1933 82.3169C39.1252 82.3023 39.143 82.4385 39.1738 82.4806C39.1787 82.4222 39.2241 82.359 39.1933 82.3169Z" fill="#202020"/>
<path d="M37.7184 84.536C37.7038 84.5003 37.6827 84.4679 37.7022 84.4355C37.66 84.4582 37.6373 84.4857 37.7184 84.536Z" fill="#202020"/>
<path d="M37.7021 84.4357L37.7287 84.4225C37.7287 84.4225 37.7171 84.4225 37.7088 84.4225C37.7055 84.4258 37.7038 84.4308 37.7021 84.4341V84.4357Z" fill="#202020"/>
<path d="M38.396 82.9442C38.2955 82.8696 38.3587 82.8291 38.3165 82.7577L38.4835 82.7188C38.4284 82.6426 38.3408 82.6848 38.2549 82.6297C38.3619 82.56 38.263 82.4141 38.2711 82.3817C38.3489 82.359 38.3781 82.4092 38.4251 82.4206C38.3684 82.3314 38.2079 82.3379 38.2063 82.2277H38.2517C38.242 82.2163 38.2339 82.2066 38.2258 82.1953L36.869 83.1273C37.1284 83.1176 37.3942 83.1273 37.639 83.0949C37.7865 83.0641 37.9372 83.0414 38.0782 82.9685C38.0588 82.9604 38.0637 82.9247 38.0556 82.8907C38.3652 82.8291 38.7234 82.821 38.9682 82.4238C38.8012 82.4676 38.5175 82.2034 38.3457 82.5C38.2825 82.3817 38.1852 82.5535 38.1593 82.3849C38.0377 82.3476 37.9518 82.4044 37.8675 82.4708C37.8254 82.5033 37.7832 82.5389 37.7378 82.5665C37.6876 82.594 37.6536 82.6151 37.5693 82.6135C37.5271 82.5811 37.553 82.5 37.5466 82.4206C37.6211 82.3979 37.6795 82.3687 37.7427 82.3428L37.6292 82.2763C37.6779 82.2017 37.7978 82.2552 37.8108 82.1045C37.7297 82.1936 37.6228 82.2082 37.5271 82.2131C37.4266 82.218 37.3342 82.2131 37.2272 82.286C37.284 82.346 37.3845 82.3266 37.4639 82.3509C37.4931 82.4092 37.553 82.453 37.5449 82.534C37.3845 82.6508 37.2191 82.6394 37.0749 82.5924L37.6519 82.1969C37.6584 82.2925 37.6519 82.3898 37.686 82.4968C37.7038 82.5551 37.6908 82.6329 37.6114 82.6427C37.5839 82.6054 37.5174 82.6329 37.4801 82.6021C37.5482 82.6848 37.7686 82.6102 37.7362 82.7286L37.459 82.714C37.7524 82.761 37.4072 82.8582 37.579 82.9442C37.4671 82.9749 37.4039 82.9182 37.3958 82.8534C37.3488 82.9247 37.5077 82.9393 37.506 82.9863C37.4266 82.975 37.3472 82.9555 37.2678 82.936C37.3796 82.9685 37.3715 82.9912 37.3245 83.0155C37.2775 83.0398 37.1916 83.069 37.1559 83.0917C37.2143 83.0884 37.3893 83.043 37.3861 83.1111C37.3602 83.1451 37.3002 83.1403 37.2678 83.1533C37.3261 83.1484 37.4331 83.1533 37.4509 83.1938C37.3764 83.2213 37.3277 83.1938 37.2467 83.2051C37.2613 83.2424 37.284 83.2683 37.2289 83.3153C37.3148 83.3607 37.3358 83.2781 37.4315 83.2878C37.4201 83.3397 37.3585 83.3705 37.2791 83.3948C37.2013 83.4207 37.104 83.4369 37.0343 83.4904C36.8901 83.4385 36.8188 83.304 36.7491 83.2538C36.7815 83.3235 36.8236 83.3883 36.8625 83.4499C36.7669 83.4612 36.7653 83.6493 36.6372 83.5601C36.6372 83.6914 36.7004 83.8211 36.7928 83.9232C36.8836 84.027 37.0019 84.1031 37.1057 84.1583C37.1073 84.1129 37.0959 84.0707 37.1446 84.0367C37.258 84.0788 37.1656 84.1501 37.1348 84.215C37.2434 84.2279 37.344 84.1015 37.4526 84.0399C37.4639 84.1372 37.4947 84.1745 37.5158 84.215C37.5401 84.2539 37.5547 84.2977 37.5693 84.4192L37.639 84.275C37.6649 84.4322 37.78 84.2231 37.8319 84.343C37.8254 84.3771 37.7735 84.403 37.7297 84.4241C37.8335 84.4095 37.7638 84.5829 37.874 84.5554C37.8319 84.6056 37.7881 84.6526 37.7427 84.698C37.8238 84.724 37.9567 84.6964 37.8772 84.8342C37.9745 84.7677 38.0766 84.7548 38.1804 84.7499C38.2322 84.745 38.2841 84.7402 38.3344 84.7321C38.3862 84.7223 38.4024 84.7061 38.4365 84.6802L38.4284 84.8196C38.4349 84.7985 38.4446 84.7823 38.4543 84.771C38.4705 84.7596 38.4867 84.7499 38.5062 84.745C38.5435 84.7337 38.584 84.7305 38.6245 84.7272C38.7056 84.7159 38.7866 84.6964 38.8012 84.5894L38.8255 84.6413C38.8693 84.5651 38.9066 84.4938 38.9374 84.4176C39.0087 84.4095 39.0605 84.6121 39.046 84.557C39.1967 84.463 39.2972 84.3868 39.4317 84.3836C39.3523 84.2134 39.4496 84.0804 39.516 83.9718C39.7689 83.7952 39.9116 83.4612 39.8905 83.1533C39.8872 83.0803 39.871 82.9944 39.8548 82.936C39.8354 82.8777 39.8159 82.8193 39.7932 82.761C39.7478 82.6459 39.6976 82.5324 39.6441 82.4238C39.636 82.359 39.4301 82.2698 39.3394 82.1888C39.294 82.2877 39.3864 82.2974 39.388 82.3946C39.3394 82.4676 39.1481 82.4951 39.0281 82.5584L39.1854 82.5259C39.3118 82.6248 39.1011 82.594 39.2615 82.6735L39.0087 82.6702C39.1384 82.6978 39.033 82.7675 38.9665 82.795L39.1416 82.821C39.046 82.8842 39.0054 82.9247 38.8466 82.9425L39.0071 82.936C38.9811 82.9393 38.9714 82.9668 38.9617 82.9733C38.9536 82.9831 38.9487 82.996 38.9406 83.0057C38.9228 83.0268 38.8806 83.0301 38.7477 83.0025C38.7834 83.0106 38.8628 83.0284 38.8433 83.0398L38.6861 83.0122C38.7234 83.0301 38.7493 83.0592 38.6618 83.0333C38.6278 83.0155 38.5581 82.996 38.4916 82.9766C38.4786 82.9733 38.6002 83.022 38.725 83.0771C38.8514 83.1322 38.9779 83.1873 38.9617 83.2424L38.8709 83.1922C38.8985 83.2165 38.926 83.2408 38.952 83.2683C38.9098 83.2538 38.8693 83.2375 38.8288 83.2197C38.9649 83.3316 38.9293 83.3672 38.879 83.3769C38.8271 83.3899 38.7672 83.3721 38.7947 83.4693C38.7834 83.5099 38.6504 83.3445 38.6326 83.3786L38.6991 83.5245C38.6472 83.458 38.584 83.4094 38.5354 83.3267C38.511 83.2846 38.49 83.2327 38.477 83.1711C38.4624 83.1079 38.4559 83.0284 38.4543 82.9409C38.4543 82.9668 38.4543 82.9895 38.4494 82.9993C38.4462 83.0106 38.4494 83.0139 38.4543 83.0187C38.4543 83.0268 38.4559 83.0349 38.4575 83.0981C38.4657 83.1419 38.4138 83.1565 38.3992 83.1549C38.3781 83.1533 38.3554 83.1354 38.3603 83.1062C38.3587 83.0787 38.3587 83.043 38.3603 83.009C38.3603 82.9928 38.3603 82.9749 38.3619 82.9604C38.3619 82.9425 38.3619 82.9587 38.3619 82.9555C38.3603 82.9798 38.3587 82.9814 38.3587 82.9944C38.3587 83.0139 38.3587 83.0382 38.3522 83.0998C38.3489 83.0398 38.3457 83.0852 38.3295 83.137C38.3165 83.1873 38.2938 83.2343 38.2922 83.1808C38.3182 83.0949 38.3181 83.1241 38.336 83.0657C38.3084 83.1452 38.2874 83.1533 38.2728 83.1451C38.2582 83.137 38.2549 83.1144 38.2322 83.1176C38.2533 83.0657 38.2792 83.0252 38.3117 82.9976C38.3198 82.9912 38.3279 82.9847 38.3392 82.9782L38.357 82.9685C38.357 82.9685 38.3571 82.9685 38.3587 82.9685C38.3587 82.9685 38.3652 82.9685 38.3765 82.9668C38.3814 82.9668 38.3862 82.9668 38.3911 82.9668H38.4624V82.9652V82.9523C38.4624 82.9523 38.464 82.9377 38.4657 82.9312C38.4689 82.9166 38.4738 82.9036 38.4819 82.889L38.3976 82.9442H38.396Z" fill="#202020"/>
<path d="M37.8626 81.9278L37.8448 81.7917L37.7378 81.8857C37.7816 81.9959 37.8043 81.9003 37.8626 81.9278Z" fill="#202020"/>
<path d="M37.8397 82.3428L37.8964 82.2796L37.8057 82.2893L37.8397 82.3428Z" fill="#202020"/>
<path d="M37.0828 82.9312L37.1055 82.9166L36.9888 82.7124L37.0828 82.9312Z" fill="#202020"/>
<path d="M37.6534 84.6592C37.5902 84.7111 37.5513 84.6592 37.4929 84.6835C37.5513 84.6867 37.608 84.69 37.6664 84.6867L37.6534 84.6592Z" fill="#202020"/>
<path d="M39.2355 85.2233C39.2242 84.9672 39.3733 85.1747 39.2063 84.998C39.1172 85.0742 39.2387 85.1341 39.2355 85.2233Z" fill="#202020"/>
<path d="M39.4674 84.7256C39.4139 84.75 39.4009 84.7954 39.3879 84.8424C39.5111 84.904 39.456 84.7889 39.4674 84.7256Z" fill="#202020"/>
</svg>
