<svg xmlns="http://www.w3.org/2000/svg" version="1.1" xmlns:xlink="http://www.w3.org/1999/xlink" xmlns:svgjs="http://svgjs.dev/svgjs" width="2000" height="1500" viewBox="0 0 2000 1500"><rect width="2000" height="1500" fill="#000000"></rect><g transform="matrix(0.75,0,0,0.75,250,0.00011625151273619849)"><svg viewBox="0 0 280 280" data-background-color="#ffffff" preserveAspectRatio="xMidYMid meet" height="2000" width="2000" xmlns="http://www.w3.org/2000/svg" xmlns:xlink="http://www.w3.org/1999/xlink"><g id="tight-bounds" transform="matrix(1,0,0,1,0,0.000040799717623940523)"><svg viewBox="0 0 280 280" height="280" width="280"><g><svg viewBox="0 0 280 280" height="280" width="280"><g><svg viewBox="0 0 280 280" height="280" width="280"><g id="textblocktransform"><svg viewBox="0 0 280 280" height="280" width="280" id="textblock"><g><svg viewBox="0 0 280 280" height="280" width="280"><g transform="matrix(1,0,0,1,90.50252531694167,102.02827768235456)"><svg viewBox="0 0 98.99494936611666 75.94344463529089" height="75.94344463529089" width="98.99494936611666"><g><svg xmlns="http://www.w3.org/2000/svg" xmlns:xlink="http://www.w3.org/1999/xlink" version="1.1" x="0" y="0" viewBox="9.9 26.799999999999997 80.19999999999999 61.525000000000006" style="enable-background:new 0 0 100 100;" xml:space="preserve" height="75.94344463529089" width="98.99494936611666" class="icon-wg-0" data-fill-palette-color="accent" id="wg-0"><g fill="#ffa1c6" data-fill-palette-color="accent"><path d="M85.6 63.4c0-1.7-1.4-3.1-3.1-3.1H17.4c-1.7 0-3.1 1.4-3.1 3.1v18.9h71.3V63.4zM84.4 64.9c-2.4 0-3.6 1.3-5 2.8-1.5 1.6-3.2 3.4-6.5 3.4s-5-1.8-6.5-3.4c-1.4-1.5-2.6-2.8-5-2.8-2.4 0-3.6 1.3-4.9 2.8-1.5 1.6-3.2 3.4-6.5 3.4-3.3 0-5-1.8-6.5-3.4-1.4-1.5-2.5-2.8-4.9-2.8-2.4 0-3.6 1.3-4.9 2.8-1.5 1.6-3.2 3.4-6.5 3.4-3.3 0-5-1.8-6.5-3.4-1.4-1.5-2.5-2.8-4.9-2.8v-2.2c3.3 0 5 1.8 6.5 3.4 1.4 1.5 2.5 2.8 4.9 2.8 2.4 0 3.6-1.3 4.9-2.8 1.5-1.6 3.2-3.4 6.5-3.4 3.3 0 5 1.8 6.5 3.4 1.4 1.5 2.5 2.8 4.9 2.8 2.4 0 3.6-1.3 4.9-2.8 1.5-1.6 3.2-3.4 6.5-3.4 3.3 0 5 1.8 6.5 3.4 1.4 1.5 2.6 2.8 5 2.8s3.6-1.3 5-2.8c1.5-1.6 3.2-3.4 6.5-3.4V64.9z" fill="#ffffff" data-fill-palette-color="accent"></path><path d="M79.7 43.8c0-1.7-1.4-3.1-3.1-3.1H23.3c-1.7 0-3.1 1.4-3.1 3.1v15.3h59.5V43.8zM78.9 46.3c-2 0-3 1.1-4.2 2.3-1.3 1.4-2.7 2.9-5.5 2.9s-4.2-1.5-5.5-2.9c-1.1-1.2-2.1-2.3-4.2-2.3-2 0-3 1.1-4.2 2.3-1.3 1.4-2.7 2.9-5.5 2.9-2.8 0-4.2-1.5-5.5-2.9-1.1-1.2-2.1-2.3-4.2-2.3-2 0-3 1.1-4.2 2.3-1.3 1.4-2.7 2.9-5.5 2.9-2.8 0-4.2-1.5-5.5-2.9-1.1-1.2-2.1-2.3-4.2-2.3v-1.8c2.8 0 4.2 1.5 5.5 2.9 1.1 1.2 2.1 2.3 4.2 2.3 2 0 3-1.1 4.2-2.3 1.3-1.4 2.7-2.9 5.5-2.9 2.8 0 4.2 1.5 5.5 2.9 1.1 1.2 2.1 2.3 4.2 2.3 2 0 3-1.1 4.2-2.3 1.3-1.4 2.7-2.9 5.5-2.9 2.8 0 4.2 1.5 5.5 2.9 1.1 1.2 2.1 2.3 4.2 2.3s3-1.1 4.2-2.3c1.3-1.4 2.7-2.9 5.5-2.9V46.3z" fill="#ffffff" data-fill-palette-color="accent"></path><path d="M70.2 29.9c0-1.7-1.4-3.1-3.1-3.1H32.8c-1.7 0-3.1 1.4-3.1 3.1v9.4h40.5V29.9zM69.6 30.3c-1.4 0-2 0.7-2.8 1.6-0.9 0.9-1.8 2-3.7 2-1.9 0-2.9-1-3.7-2-0.8-0.8-1.5-1.6-2.8-1.6-1.4 0-2 0.7-2.8 1.6-0.8 0.9-1.8 2-3.7 2-1.9 0-2.9-1-3.7-2-0.8-0.8-1.5-1.6-2.8-1.6-1.4 0-2 0.7-2.8 1.6-0.8 0.9-1.8 2-3.7 2-1.9 0-2.9-1-3.7-2-0.8-0.8-1.4-1.6-2.8-1.6v-1.2c1.9 0 2.9 1 3.7 2 0.8 0.8 1.4 1.6 2.8 1.6 1.4 0 2-0.7 2.8-1.6 0.8-0.9 1.8-2 3.7-2 1.9 0 2.9 1 3.7 2 0.8 0.8 1.5 1.6 2.8 1.6 1.4 0 2-0.7 2.8-1.6 0.8-0.9 1.8-2 3.7-2 1.9 0 2.9 1 3.7 2 0.8 0.8 1.5 1.6 2.8 1.6 1.4 0 2-0.7 2.8-1.6 0.9-0.9 1.8-2 3.7-2V30.3z" fill="#ffffff" data-fill-palette-color="accent"></path><path d="M9.9 84v1.3l28.7 2.5c7.5 0.7 15.1 0.7 22.7 0l28.8-2.5V84H9.9z" fill="#ffffff" data-fill-palette-color="accent"></path></g></svg></g></svg></g><g><path d="M36.769 173.758C38.519 179.452 38.882 184.346 37.858 188.439 36.836 192.538 34.121 195.385 29.712 196.979V196.979C26.819 198.024 24.049 198.222 21.404 197.571 18.754 196.929 16.365 195.48 14.236 193.222 12.108 190.964 10.369 187.97 9.021 184.24V184.24L7.923 181.204C7.767 180.773 7.892 180.484 8.298 180.337V180.337C8.704 180.19 8.981 180.32 9.128 180.726V180.726L9.888 182.829 35.135 172.928 34.65 171.586C34.476 171.104 34.604 170.785 35.036 170.629V170.629C35.442 170.482 35.738 170.666 35.923 171.18V171.18L36.377 172.436C36.811 172.365 37.097 172.52 37.234 172.901V172.901C37.36 173.25 37.205 173.535 36.769 173.758ZM10.342 184.085C11.585 187.366 13.159 190.053 15.064 192.148 16.967 194.236 19.134 195.598 21.566 196.233 23.991 196.869 26.555 196.699 29.257 195.723V195.723C37.017 192.918 39.119 185.756 35.565 174.236V174.236ZM45.827 210.33C46.887 211.934 47.194 213.426 46.747 214.805 46.304 216.189 45.446 217.302 44.175 218.143V218.143C42.931 218.965 41.768 219.249 40.685 218.994 39.607 218.744 38.759 218.153 38.141 217.219V217.219C37.951 216.932 37.863 216.707 37.877 216.544 37.887 216.376 37.988 216.228 38.179 216.102V216.102C38.371 215.975 38.54 215.932 38.688 215.972 38.835 216.012 38.986 216.123 39.138 216.305V216.305C39.684 216.971 40.272 217.432 40.901 217.687 41.536 217.938 42.369 217.723 43.399 217.042V217.042C44.355 216.41 45.032 215.587 45.429 214.572 45.822 213.552 45.576 212.372 44.691 211.033V211.033C43.534 209.283 41.892 208.488 39.766 208.648 37.638 208.817 35.051 209.755 32.006 211.461V211.461C30.645 212.215 28.717 213.416 26.224 215.065V215.065L24.215 216.393C23.709 216.727 23.329 216.704 23.076 216.321V216.321C22.95 216.13 22.912 215.956 22.963 215.801 23.02 215.642 23.178 215.477 23.437 215.306V215.306L31.057 210.172C33.557 208.486 36.542 206.254 40.01 203.476V203.476L40.754 202.876 40.821 202.831C40.99 202.72 41.163 202.694 41.341 202.755 41.515 202.81 41.657 202.921 41.769 203.09V203.09C42.007 203.45 41.923 203.764 41.518 204.032V204.032L35.278 208.667C37.717 207.402 39.824 206.968 41.598 207.364 43.372 207.76 44.782 208.749 45.827 210.33ZM47.594 244.578C45.876 242.968 44.776 241.231 44.296 239.366 43.825 237.501 43.864 235.683 44.412 233.914 44.966 232.149 45.882 230.585 47.16 229.221V229.221C48.493 227.799 50.056 226.763 51.848 226.113 53.636 225.468 55.486 225.319 57.396 225.668 59.308 226.026 61.08 226.97 62.715 228.502V228.502C64.122 229.821 65.1 231.279 65.648 232.874 66.202 234.474 66.313 236.057 65.982 237.624 65.66 239.19 64.909 240.604 63.728 241.864V241.864C63.239 242.385 62.852 242.67 62.567 242.718 62.287 242.77 61.916 242.579 61.453 242.145V242.145L48.017 230.26C46.854 231.501 46.06 232.906 45.633 234.476 45.207 236.045 45.235 237.634 45.716 239.241 46.194 240.853 47.134 242.316 48.536 243.631V243.631C49.61 244.637 50.679 245.315 51.745 245.667 52.816 246.015 53.766 246.165 54.595 246.119 55.434 246.073 56.457 245.927 57.666 245.683V245.683C57.809 245.659 57.942 245.705 58.065 245.82V245.82C58.212 245.959 58.304 246.137 58.34 246.356 58.375 246.564 58.326 246.74 58.192 246.883V246.883C58.091 246.991 57.9 247.071 57.62 247.123V247.123C55.944 247.521 54.295 247.608 52.675 247.384 51.049 247.165 49.356 246.229 47.594 244.578ZM48.895 229.323L62.308 241.115C62.391 241.194 62.466 241.227 62.533 241.215 62.604 241.199 62.718 241.107 62.875 240.939V240.939C63.857 239.891 64.475 238.699 64.727 237.364 64.98 236.019 64.864 234.658 64.38 233.28 63.901 231.907 63.074 230.669 61.897 229.566V229.566C60.475 228.233 58.908 227.404 57.199 227.077 55.489 226.76 53.886 226.834 52.388 227.298 50.885 227.767 49.721 228.442 48.895 229.323ZM84.64 267.423C84.875 267.583 85.031 267.727 85.107 267.853 85.19 267.983 85.169 268.161 85.046 268.385V268.385C84.825 268.787 84.525 268.884 84.147 268.676V268.676C83.136 268.12 82.522 267.521 82.306 266.879 82.084 266.233 82.169 265.314 82.563 264.122V264.122C81.431 264.808 80.174 265.141 78.792 265.12 77.41 265.099 75.951 264.666 74.414 263.821V263.821C72.25 262.631 70.829 261.191 70.149 259.501 69.466 257.817 69.281 256.159 69.592 254.529 69.901 252.89 70.421 251.405 71.152 250.075V250.075C72.01 248.514 73.147 247.161 74.563 246.014 75.975 244.874 77.583 244.176 79.387 243.921 81.184 243.662 83.026 244.051 84.912 245.088V245.088C86.472 245.946 87.596 246.961 88.284 248.132 88.969 249.294 89.289 250.667 89.242 252.25V252.25L91.131 249.697C91.323 249.472 91.48 249.328 91.6 249.263 91.715 249.195 91.872 249.216 92.073 249.327V249.327C92.304 249.453 92.456 249.61 92.531 249.797 92.611 249.988 92.594 250.152 92.48 250.289V250.289C91.618 251.324 90.675 252.626 89.65 254.195V254.195C88.913 255.299 88.004 256.832 86.925 258.794V258.794L85.511 261.366C84.724 262.796 84.186 263.859 83.896 264.554 83.612 265.253 83.527 265.814 83.64 266.238 83.753 266.662 84.086 267.057 84.64 267.423ZM74.891 262.513C76.676 263.494 78.446 263.867 80.2 263.631 81.951 263.4 83.325 262.408 84.32 260.653V260.653C85.055 259.387 85.88 257.923 86.793 256.262V256.262C87.736 254.548 88.116 253.002 87.935 251.624 87.759 250.249 87.299 249.119 86.555 248.232 85.807 247.351 85.043 246.696 84.263 246.267V246.267C82.555 245.328 80.892 245.026 79.276 245.361 77.662 245.706 76.257 246.399 75.06 247.442 73.859 248.491 72.947 249.583 72.323 250.718V250.718C71.715 251.824 71.267 253.086 70.979 254.506 70.694 255.92 70.82 257.356 71.358 258.815 71.899 260.282 73.076 261.515 74.891 262.513ZM125.263 257.01C127.561 257.521 128.991 258.627 129.553 260.327 130.116 262.021 130.126 264.09 129.582 266.533V266.533L126.728 279.364C126.615 279.871 126.335 280.075 125.887 279.975V279.975C125.637 279.92 125.485 279.813 125.43 279.656 125.376 279.492 125.377 279.285 125.433 279.035V279.035L128.225 266.718C128.761 264.308 128.829 262.402 128.429 261 128.036 259.599 126.887 258.687 124.984 258.264V258.264C123.074 257.839 121.519 258.399 120.319 259.942 119.125 261.487 118.212 263.62 117.579 266.341V266.341C117.023 268.684 116.234 272.158 115.21 276.761V276.761C115.104 277.235 114.814 277.419 114.34 277.314V277.314C114.057 277.251 113.895 277.156 113.854 277.029 113.807 276.901 113.816 276.686 113.884 276.383V276.383L115.402 269.557 116.187 266.031C116.729 263.47 116.704 261.205 116.112 259.235 115.521 257.265 114.339 256.083 112.568 255.689V255.689C111.251 255.396 110.048 255.768 108.961 256.804 107.88 257.842 106.777 259.694 105.652 262.361V262.361C105.211 263.41 104.827 264.544 104.501 265.764 104.166 266.989 103.793 268.526 103.381 270.377V270.377L103.025 271.977 102.586 273.953C102.536 274.176 102.436 274.33 102.286 274.415 102.136 274.499 101.975 274.522 101.804 274.484V274.484C101.528 274.422 101.36 274.319 101.303 274.175 101.245 274.031 101.241 273.847 101.291 273.623V273.623C102.682 267.367 103.874 261.744 104.867 256.754V256.754C105.072 255.708 105.054 255.026 104.814 254.71 104.579 254.396 104.45 254.218 104.424 254.178V254.178C104.404 254.146 104.359 254.084 104.289 253.992 104.218 253.907 104.192 253.822 104.211 253.737V253.737C104.255 253.539 104.374 253.375 104.569 253.246 104.759 253.108 104.952 253.062 105.15 253.106V253.106C105.347 253.15 105.617 253.521 105.96 254.219V254.219C106.203 254.708 106.328 255.22 106.333 255.753 106.333 256.285 106.211 257.098 105.967 258.191V258.191L105.603 259.831C107.431 255.558 109.876 253.763 112.938 254.444V254.444C114.591 254.812 115.813 255.702 116.604 257.115 117.389 258.527 117.707 260.436 117.559 262.843V262.843C118.313 260.509 119.335 258.853 120.624 257.875 121.919 256.898 123.465 256.61 125.263 257.01ZM184.278 261.651C184.5 261.596 184.666 261.608 184.776 261.685 184.885 261.763 184.977 261.956 185.052 262.264V262.264C185.495 264.079 185.393 265.878 184.744 267.661 184.103 269.443 183.023 271.008 181.505 272.358 179.981 273.709 178.173 274.64 176.083 275.15V275.15C173.71 275.729 171.348 275.809 168.996 275.39 166.644 274.971 164.534 273.895 162.667 272.164 160.794 270.433 159.462 267.949 158.672 264.712V264.712C157.888 261.501 157.847 258.514 158.548 255.753 159.249 252.992 160.503 250.703 162.31 248.887 164.116 247.072 166.219 245.871 168.618 245.286V245.286C170.407 244.849 172.133 244.865 173.796 245.334 175.464 245.795 177.03 246.663 178.494 247.938V247.938L177.492 244.005C177.444 243.809 177.469 243.639 177.566 243.498 177.664 243.356 177.811 243.261 178.007 243.213V243.213C178.23 243.159 178.416 243.165 178.564 243.233 178.713 243.301 178.811 243.433 178.859 243.63V243.63L180.188 249.076C180.236 249.273 180.207 249.45 180.099 249.608 179.992 249.766 179.84 249.87 179.644 249.917V249.917C179.447 249.965 179.279 249.975 179.14 249.947 179.003 249.925 178.838 249.833 178.646 249.671V249.671C176.992 248.214 175.407 247.226 173.891 246.707 172.376 246.188 170.724 246.147 168.934 246.583V246.583C166.811 247.101 164.935 248.233 163.305 249.978 161.675 251.723 160.542 253.864 159.904 256.401 159.266 258.939 159.288 261.603 159.969 264.395V264.395C160.67 267.266 161.873 269.493 163.579 271.076 165.277 272.655 167.194 273.642 169.332 274.037 171.47 274.432 173.614 274.367 175.764 273.842V273.842C177.494 273.42 179.045 272.621 180.418 271.446 181.785 270.272 182.784 268.89 183.416 267.298 184.049 265.706 184.174 264.13 183.794 262.571V262.571C183.739 262.348 183.758 262.152 183.849 261.984 183.938 261.81 184.081 261.699 184.278 261.651ZM216.312 255.874C216.573 255.761 216.778 255.706 216.926 255.709 217.08 255.709 217.219 255.821 217.343 256.045V256.045C217.565 256.447 217.487 256.752 217.109 256.96V256.96C216.099 257.518 215.264 257.717 214.606 257.556 213.941 257.399 213.21 256.836 212.412 255.866V255.866C212.388 257.19 211.998 258.43 211.242 259.587 210.486 260.744 209.34 261.747 207.805 262.595V262.595C205.643 263.788 203.667 264.221 201.875 263.892 200.086 263.57 198.586 262.842 197.374 261.707 196.153 260.571 195.176 259.338 194.442 258.009V258.009C193.581 256.45 193.044 254.766 192.831 252.957 192.622 251.154 192.891 249.422 193.638 247.761 194.38 246.103 195.692 244.754 197.576 243.714V243.714C199.135 242.853 200.594 242.444 201.951 242.489 203.3 242.53 204.63 242.994 205.944 243.879V243.879L204.795 240.918C204.708 240.635 204.669 240.425 204.678 240.289 204.682 240.156 204.784 240.034 204.985 239.923V239.923C205.215 239.796 205.429 239.751 205.627 239.788 205.831 239.822 205.96 239.924 206.016 240.094V240.094C206.43 241.376 207.027 242.868 207.807 244.573V244.573C208.345 245.786 209.156 247.373 210.239 249.333V249.333L211.657 251.902C212.446 253.331 213.057 254.354 213.49 254.971 213.929 255.584 214.357 255.956 214.776 256.087 215.196 256.217 215.707 256.147 216.312 255.874ZM206.954 261.493C208.737 260.508 209.998 259.211 210.735 257.601 211.476 255.998 211.37 254.307 210.419 252.528V252.528C209.741 251.23 208.944 249.751 208.027 248.092V248.092C207.082 246.379 205.978 245.232 204.716 244.649 203.46 244.063 202.259 243.848 201.112 244.004 199.968 244.165 199.006 244.461 198.227 244.892V244.892C196.52 245.834 195.377 247.078 194.797 248.624 194.226 250.172 194.062 251.731 194.304 253.3 194.549 254.875 194.985 256.23 195.611 257.363V257.363C196.221 258.468 197.049 259.521 198.096 260.523 199.139 261.519 200.42 262.179 201.94 262.504 203.469 262.831 205.141 262.494 206.954 261.493ZM230.345 246.84C230.007 247.151 229.722 247.18 229.489 246.927V246.927L207.51 223.037C207.158 222.655 207.153 222.306 207.495 221.991V221.991C207.832 221.68 208.177 221.715 208.529 222.097V222.097L221.147 235.912 225.604 220.073C225.649 219.912 225.723 219.784 225.827 219.688V219.688C225.937 219.587 226.13 219.574 226.409 219.647 226.688 219.72 226.886 219.841 227.003 220.008V220.008C227.084 220.135 227.088 220.329 227.016 220.588V220.588L222.288 237.09 240.584 234.986C240.829 234.953 241.032 235.023 241.192 235.197V235.197C241.347 235.366 241.421 235.559 241.412 235.779 241.398 236.003 241.317 236.183 241.168 236.32V236.32C241.064 236.416 240.748 236.497 240.22 236.561V236.561C233.415 237.322 227.817 237.91 223.427 238.325V238.325L230.437 245.984C230.693 246.262 230.662 246.547 230.345 246.84ZM256.094 216.657C254.785 218.614 253.249 219.981 251.488 220.759 249.724 221.527 247.925 221.785 246.09 221.531 244.258 221.272 242.566 220.623 241.013 219.584V219.584C239.392 218.5 238.115 217.127 237.182 215.464 236.255 213.805 235.807 212.004 235.84 210.062 235.882 208.118 236.526 206.216 237.771 204.354V204.354C238.844 202.75 240.122 201.548 241.607 200.747 243.096 199.941 244.64 199.574 246.24 199.646 247.838 199.708 249.354 200.219 250.79 201.179V201.179C251.384 201.577 251.728 201.912 251.821 202.185 251.918 202.453 251.79 202.851 251.438 203.378V203.378L241.898 218.57C243.311 219.515 244.827 220.07 246.445 220.235 248.063 220.4 249.626 220.114 251.133 219.377 252.646 218.644 253.937 217.479 255.006 215.881V215.881C255.824 214.658 256.319 213.492 256.493 212.383 256.661 211.27 256.655 210.308 256.475 209.498 256.293 208.678 255.983 207.692 255.545 206.538V206.538C255.498 206.402 255.522 206.263 255.615 206.123V206.123C255.728 205.955 255.889 205.835 256.099 205.765 256.299 205.696 256.48 205.716 256.643 205.824V205.824C256.766 205.907 256.877 206.082 256.973 206.35V206.35C257.639 207.939 257.993 209.552 258.036 211.187 258.084 212.826 257.436 214.649 256.094 216.657ZM240.83 217.855L250.282 202.702C250.346 202.607 250.367 202.528 250.344 202.464 250.316 202.397 250.207 202.299 250.017 202.172V202.172C248.822 201.373 247.546 200.957 246.187 200.925 244.82 200.895 243.495 201.231 242.215 201.933 240.938 202.629 239.851 203.647 238.954 204.987V204.987C237.871 206.608 237.307 208.288 237.263 210.028 237.229 211.766 237.562 213.336 238.264 214.739 238.971 216.145 239.826 217.184 240.83 217.855ZM270.536 187.727C269.851 189.531 268.867 190.821 267.584 191.596 266.31 192.368 264.761 192.931 262.938 193.285V193.285C262.57 193.362 262.316 193.374 262.178 193.321V193.321C261.995 193.251 261.863 193.115 261.781 192.911 261.704 192.715 261.706 192.51 261.787 192.296V192.296C261.85 192.132 261.961 192.019 262.122 191.957 262.282 191.896 262.605 191.834 263.09 191.773V191.773C266.255 191.286 268.323 189.766 269.293 187.212V187.212C269.862 185.711 269.944 184.345 269.538 183.116 269.134 181.88 268.38 181.053 267.277 180.634V180.634C266.495 180.337 265.747 180.338 265.035 180.637 264.322 180.937 263.667 181.388 263.07 181.991 262.473 182.594 261.725 183.433 260.827 184.506V184.506C259.8 185.747 258.911 186.73 258.16 187.455 257.406 188.186 256.557 188.719 255.615 189.054 254.672 189.388 253.652 189.348 252.555 188.931V188.931C251.615 188.574 250.81 188.005 250.14 187.224 249.461 186.446 249.026 185.484 248.834 184.335 248.642 183.187 248.812 181.913 249.343 180.513V180.513C250.098 178.527 251.253 177.1 252.809 176.233 254.367 175.36 255.995 175.245 257.691 175.89V175.89C258.038 176.021 258.253 176.157 258.337 176.297 258.427 176.44 258.432 176.618 258.35 176.833V176.833C258.176 177.293 257.845 177.431 257.36 177.247V177.247C255.745 176.634 254.354 176.733 253.187 177.546 252.018 178.364 251.148 179.524 250.578 181.025V181.025C249.874 182.879 249.854 184.348 250.518 185.43 251.182 186.512 252.013 187.242 253.009 187.62V187.62C253.81 187.925 254.585 187.927 255.334 187.627 256.077 187.324 256.77 186.866 257.415 186.252 258.066 185.64 258.845 184.785 259.753 183.687V183.687C260.795 182.481 261.679 181.532 262.403 180.84 263.128 180.148 263.946 179.636 264.859 179.304 265.765 178.97 266.717 178.992 267.713 179.371V179.371C268.653 179.727 269.423 180.312 270.024 181.125 270.618 181.935 270.974 182.918 271.09 184.073 271.21 185.223 271.025 186.441 270.536 187.727Z" fill="#ffffff" data-fill-palette-color="primary"></path><path d="M1.949 97.052C4.017 91.987 6.607 88.298 9.721 85.985 12.834 83.672 16.417 83.231 20.469 84.662V84.662C23.134 85.603 25.216 87.071 26.715 89.067 28.218 91.072 29.072 93.495 29.278 96.336 29.477 99.175 28.97 102.312 27.757 105.747V105.747L26.77 108.543C26.63 108.938 26.373 109.069 25.998 108.936V108.936C25.623 108.803 25.5 108.553 25.63 108.184V108.184L26.318 106.237 2.629 98.591 2.194 99.822C2.037 100.267 1.758 100.419 1.357 100.277V100.277C0.982 100.145 0.877 99.843 1.044 99.372V99.372L1.451 98.218C1.109 98.011 1 97.733 1.124 97.383V97.383C1.236 97.065 1.511 96.955 1.949 97.052ZM26.725 105.083C27.752 102.033 28.198 99.21 28.063 96.616 27.928 94.021 27.183 91.794 25.829 89.935 24.471 88.067 22.548 86.694 20.061 85.816V85.816C12.924 83.296 7.266 87.161 3.088 97.411V97.411ZM27.335 61.524C28.302 60.044 29.447 59.241 30.771 59.115 32.1 58.992 33.349 59.313 34.518 60.077V60.077C35.664 60.826 36.328 61.703 36.51 62.708 36.689 63.703 36.497 64.633 35.932 65.497V65.497C35.762 65.757 35.607 65.914 35.468 65.967 35.322 66.017 35.162 65.985 34.987 65.871V65.871C34.806 65.753 34.708 65.625 34.694 65.486 34.674 65.344 34.71 65.178 34.802 64.988V64.988C35.166 64.283 35.343 63.618 35.334 62.991 35.315 62.366 34.831 61.744 33.882 61.124V61.124C32.995 60.544 32.052 60.274 31.051 60.313 30.05 60.353 29.146 60.99 28.338 62.227V62.227C27.282 63.842 27.212 65.517 28.126 67.25 29.044 68.978 30.772 70.817 33.31 72.765V72.765C34.452 73.632 36.169 74.815 38.462 76.313V76.313L40.317 77.526C40.78 77.828 40.896 78.157 40.663 78.513V78.513C40.549 78.688 40.418 78.784 40.27 78.8 40.12 78.807 39.924 78.731 39.681 78.573V78.573L32.581 74.03C30.251 72.539 27.281 70.837 23.673 68.922V68.922L22.9 68.514 22.832 68.469C22.68 68.37 22.595 68.234 22.579 68.062 22.564 67.899 22.609 67.739 22.712 67.581V67.581C22.926 67.253 23.219 67.211 23.592 67.455V67.455L29.777 71.013C27.826 69.424 26.693 67.809 26.379 66.169 26.064 64.529 26.383 62.981 27.335 61.524ZM61.356 53.642C59.78 55.127 58.124 56.035 56.386 56.366 54.654 56.691 52.995 56.554 51.409 55.954 49.824 55.344 48.443 54.415 47.268 53.168V53.168C46.037 51.863 45.174 50.372 44.68 48.697 44.185 47.021 44.157 45.319 44.594 43.59 45.027 41.856 45.992 40.284 47.49 38.872V38.872C48.776 37.66 50.165 36.847 51.656 36.433 53.158 36.019 54.616 36.007 56.031 36.397 57.447 36.778 58.698 37.545 59.786 38.699V38.699C60.239 39.18 60.479 39.552 60.505 39.815 60.535 40.074 60.339 40.402 59.917 40.8V40.8L48.263 52.439C49.332 53.573 50.573 54.383 51.985 54.868 53.398 55.344 54.857 55.406 56.361 55.055 57.865 54.713 59.26 53.935 60.546 52.723V52.723C61.523 51.802 62.202 50.861 62.583 49.898 62.97 48.941 63.164 48.081 63.168 47.317 63.172 46.544 63.097 45.599 62.944 44.483V44.483C62.929 44.349 62.978 44.228 63.09 44.122V44.122C63.228 43.992 63.395 43.919 63.591 43.901 63.787 43.873 63.95 43.928 64.08 44.065V44.065C64.168 44.159 64.225 44.337 64.25 44.6V44.6C64.524 46.159 64.513 47.676 64.216 49.152 63.925 50.623 62.971 52.119 61.356 53.642ZM47.451 51.577L59.018 39.964C59.092 39.895 59.125 39.827 59.117 39.76 59.11 39.693 59.034 39.583 58.891 39.431V39.431C57.989 38.474 56.929 37.841 55.711 37.533 54.504 37.225 53.255 37.253 51.965 37.616 50.675 37.979 49.493 38.667 48.418 39.68V39.68C47.112 40.911 46.262 42.301 45.868 43.85 45.479 45.394 45.454 46.868 45.795 48.271 46.14 49.67 46.692 50.772 47.451 51.577ZM92.212 31.551C92.456 31.448 92.644 31.398 92.777 31.401 92.916 31.401 93.042 31.505 93.156 31.712V31.712C93.359 32.078 93.286 32.357 92.937 32.55V32.55C92.016 33.058 91.251 33.242 90.641 33.101 90.034 32.951 89.365 32.43 88.634 31.54V31.54C88.611 32.754 88.253 33.892 87.56 34.953 86.861 36.018 85.809 36.938 84.403 37.715V37.715C82.419 38.811 80.606 39.211 78.963 38.916 77.32 38.621 75.94 37.95 74.822 36.903 73.708 35.862 72.813 34.73 72.137 33.508V33.508C71.348 32.079 70.854 30.536 70.657 28.881 70.465 27.222 70.71 25.629 71.394 24.104 72.074 22.587 73.282 21.349 75.018 20.39V20.39C76.447 19.601 77.782 19.226 79.021 19.266 80.267 19.302 81.488 19.726 82.683 20.538V20.538L81.643 17.818C81.557 17.564 81.518 17.374 81.525 17.247 81.532 17.12 81.627 17.006 81.81 16.905V16.905C82.016 16.791 82.214 16.751 82.403 16.785 82.585 16.823 82.705 16.915 82.763 17.06V17.06C83.137 18.241 83.683 19.612 84.399 21.174V21.174C84.892 22.289 85.635 23.747 86.63 25.548V25.548L87.932 27.904C88.659 29.221 89.225 30.161 89.628 30.724 90.029 31.281 90.42 31.62 90.802 31.74 91.185 31.861 91.655 31.797 92.212 31.551ZM83.614 36.705C85.256 35.798 86.416 34.606 87.096 33.129 87.772 31.661 87.675 30.111 86.805 28.48V28.48C86.18 27.292 85.444 25.933 84.6 24.404V24.404C83.735 22.839 82.723 21.788 81.562 21.25 80.411 20.714 79.308 20.518 78.254 20.661 77.206 20.8 76.325 21.067 75.611 21.462V21.462C74.04 22.33 72.989 23.477 72.459 24.902 71.931 26.319 71.782 27.75 72.01 29.196 72.235 30.637 72.635 31.876 73.209 32.916V32.916C73.77 33.931 74.529 34.9 75.484 35.821 76.446 36.738 77.624 37.344 79.019 37.637 80.423 37.932 81.955 37.622 83.614 36.705ZM119.132 4.433C121.238 3.957 122.858 4.313 123.991 5.502 125.133 6.697 125.957 8.412 126.463 10.649V10.649L129.126 22.424C129.231 22.885 129.075 23.162 128.661 23.256V23.256C128.431 23.308 128.261 23.277 128.152 23.163 128.045 23.056 127.965 22.887 127.913 22.657V22.657L125.394 11.337C124.894 9.126 124.205 7.519 123.328 6.514 122.457 5.507 121.146 5.202 119.396 5.598V5.598C117.646 5.994 116.574 7.066 116.181 8.815 115.796 10.569 115.873 12.696 116.411 15.195V15.195C116.873 17.36 117.581 20.554 118.537 24.778V24.778C118.635 25.212 118.467 25.479 118.033 25.577V25.577C117.77 25.636 117.597 25.624 117.516 25.538 117.426 25.448 117.349 25.261 117.285 24.978V24.978L115.87 18.721 115.138 15.483C114.581 13.147 113.671 11.278 112.406 9.876 111.14 8.468 109.698 7.947 108.079 8.313V8.313C106.868 8.587 106.018 9.368 105.527 10.654 105.03 11.943 104.84 13.915 104.957 16.573V16.573C104.999 17.614 105.125 18.706 105.335 19.849 105.538 20.992 105.832 22.413 106.216 24.11V24.11L106.549 25.581 106.96 27.397C107.006 27.601 106.982 27.769 106.887 27.901 106.797 28.025 106.674 28.105 106.516 28.141V28.141C106.259 28.199 106.079 28.181 105.974 28.087 105.875 27.985 105.803 27.832 105.756 27.628V27.628C104.459 21.89 103.242 16.757 102.107 12.227V12.227C101.864 11.279 101.582 10.72 101.261 10.551 100.937 10.375 100.76 10.28 100.729 10.267V10.267C100.697 10.246 100.634 10.212 100.54 10.164 100.453 10.115 100.4 10.05 100.383 9.972V9.972C100.342 9.794 100.374 9.614 100.478 9.431 100.587 9.24 100.731 9.125 100.908 9.085V9.085C101.086 9.045 101.456 9.244 102.019 9.684V9.684C102.416 10.003 102.716 10.381 102.919 10.819 103.13 11.262 103.349 11.984 103.575 12.984V12.984L103.916 14.494C103.76 10.228 105.087 7.776 107.897 7.141V7.141C109.41 6.798 110.773 7.057 111.984 7.918 113.195 8.778 114.211 10.239 115.03 12.302V12.302C114.74 10.071 114.939 8.294 115.629 6.969 116.313 5.652 117.481 4.807 119.132 4.433ZM183.468 20.319C183.678 20.37 183.807 20.451 183.857 20.56 183.915 20.665 183.909 20.858 183.839 21.14V21.14C183.428 22.81 182.581 24.234 181.298 25.412 180.021 26.592 178.476 27.407 176.664 27.857 174.857 28.309 172.994 28.298 171.075 27.826V27.826C168.894 27.289 166.936 26.353 165.201 25.016 163.467 23.679 162.204 21.906 161.414 19.697 160.629 17.496 160.602 14.908 161.334 11.934V11.934C162.057 8.993 163.288 6.548 165.024 4.599 166.77 2.646 168.762 1.312 171 0.599 173.244-0.107 175.467-0.189 177.668 0.353V0.353C179.305 0.756 180.706 1.5 181.87 2.585 183.028 3.669 183.931 5.038 184.581 6.691V6.691L185.429 3.075C185.474 2.892 185.567 2.765 185.709 2.696 185.853 2.62 186.013 2.604 186.19 2.648V2.648C186.393 2.698 186.543 2.783 186.638 2.904 186.727 3.023 186.749 3.171 186.706 3.348V3.348L185.478 8.339C185.433 8.523 185.334 8.655 185.182 8.736 185.022 8.821 184.854 8.842 184.677 8.799V8.799C184.5 8.755 184.359 8.693 184.254 8.611 184.149 8.53 184.056 8.386 183.975 8.178V8.178C183.245 6.289 182.372 4.81 181.357 3.741 180.34 2.678 179.013 1.945 177.375 1.542V1.542C175.43 1.063 173.423 1.188 171.354 1.915 169.285 2.643 167.453 3.905 165.858 5.701 164.265 7.49 163.153 9.665 162.523 12.227V12.227C161.873 14.867 161.905 17.192 162.62 19.201 163.334 21.211 164.478 22.83 166.052 24.058 167.617 25.291 169.389 26.15 171.368 26.637V26.637C172.953 27.027 174.553 27.032 176.168 26.651 177.782 26.277 179.184 25.576 180.374 24.549 181.565 23.522 182.337 22.291 182.69 20.857V20.857C182.74 20.654 182.836 20.504 182.978 20.407 183.128 20.305 183.291 20.275 183.468 20.319ZM206.974 42.172C207.191 42.323 207.333 42.456 207.401 42.57 207.474 42.688 207.454 42.851 207.339 43.057V43.057C207.136 43.423 206.861 43.509 206.513 43.316V43.316C205.593 42.806 205.03 42.255 204.826 41.664 204.631 41.07 204.716 40.226 205.083 39.134V39.134C204.042 39.76 202.887 40.061 201.62 40.037 200.347 40.01 199.008 39.607 197.604 38.829V38.829C195.622 37.73 194.319 36.406 193.697 34.858 193.074 33.309 192.909 31.783 193.203 30.28 193.493 28.782 193.977 27.423 194.654 26.202V26.202C195.445 24.774 196.49 23.536 197.788 22.489 199.091 21.446 200.571 20.808 202.227 20.577 203.873 20.348 205.564 20.714 207.298 21.676V21.676C208.726 22.467 209.752 23.399 210.377 24.47 211.008 25.545 211.297 26.804 211.245 28.249V28.249L212.997 25.923C213.166 25.715 213.306 25.581 213.417 25.519 213.528 25.458 213.676 25.477 213.859 25.579V25.579C214.065 25.693 214.204 25.84 214.275 26.018 214.34 26.193 214.326 26.343 214.233 26.469V26.469C213.432 27.413 212.56 28.604 211.617 30.04V30.04C210.934 31.05 210.093 32.454 209.096 34.254V34.254L207.79 36.608C207.061 37.924 206.565 38.902 206.302 39.543 206.043 40.178 205.963 40.69 206.065 41.078 206.166 41.466 206.469 41.83 206.974 42.172ZM198.04 37.624C199.681 38.534 201.307 38.884 202.919 38.675 204.522 38.468 205.784 37.563 206.704 35.959V35.959C207.378 34.798 208.139 33.454 208.986 31.926V31.926C209.853 30.362 210.206 28.946 210.046 27.677 209.888 26.417 209.469 25.378 208.788 24.561 208.113 23.747 207.419 23.143 206.705 22.747V22.747C205.135 21.877 203.606 21.596 202.116 21.904 200.635 22.209 199.343 22.843 198.239 23.804 197.139 24.76 196.3 25.757 195.725 26.795V26.795C195.162 27.81 194.745 28.967 194.472 30.266 194.205 31.568 194.318 32.888 194.811 34.226 195.306 35.572 196.382 36.705 198.04 37.624ZM216.696 51.846C216.389 51.561 216.344 51.303 216.56 51.071V51.071L236.871 29.264C237.193 28.918 237.507 28.887 237.813 29.172V29.172C238.124 29.461 238.119 29.778 237.798 30.124V30.124L226.052 42.651 240.861 45.606C241.01 45.634 241.134 45.694 241.232 45.786V45.786C241.331 45.878 241.355 46.056 241.302 46.321 241.259 46.585 241.166 46.774 241.022 46.889V46.889C240.911 46.97 240.732 46.984 240.487 46.931V46.931L225.055 43.783 228.273 60.377C228.315 60.6 228.265 60.788 228.122 60.941V60.941C227.975 61.099 227.802 61.182 227.602 61.189 227.392 61.197 227.22 61.139 227.087 61.015V61.015C226.988 60.923 226.894 60.638 226.805 60.159V60.159C225.627 53.982 224.695 48.9 224.008 44.91V44.91L217.484 51.874C217.25 52.126 216.987 52.117 216.696 51.846ZM239.106 77.975C237.913 76.168 237.302 74.381 237.274 72.613 237.25 70.85 237.669 69.239 238.532 67.779 239.405 66.322 240.556 65.121 241.985 64.176V64.176C243.483 63.187 245.099 62.593 246.834 62.392 248.57 62.192 250.252 62.456 251.88 63.183 253.514 63.906 254.898 65.127 256.032 66.843V66.843C257.006 68.318 257.57 69.826 257.722 71.366 257.873 72.916 257.635 74.355 257.008 75.683 256.39 77.012 255.42 78.114 254.097 78.988V78.988C253.546 79.352 253.138 79.524 252.874 79.505 252.614 79.49 252.324 79.241 252.005 78.757V78.757L242.534 65.282C241.233 66.141 240.223 67.224 239.503 68.533 238.792 69.843 238.481 71.27 238.57 72.812 238.649 74.352 239.176 75.859 240.15 77.334V77.334C240.89 78.454 241.701 79.285 242.584 79.826 243.461 80.37 244.275 80.709 245.027 80.844 245.788 80.98 246.732 81.068 247.858 81.108V81.108C247.992 81.116 248.103 81.185 248.188 81.315V81.315C248.292 81.472 248.336 81.649 248.321 81.846 248.314 82.044 248.232 82.195 248.074 82.299V82.299C247.968 82.37 247.782 82.395 247.518 82.375V82.375C245.936 82.378 244.443 82.107 243.04 81.562 241.641 81.023 240.329 79.827 239.106 77.975ZM243.522 64.629L252.982 78.015C253.038 78.099 253.099 78.143 253.166 78.147 253.234 78.151 253.355 78.096 253.529 77.981V77.981C254.627 77.256 255.432 76.32 255.944 75.173 256.454 74.036 256.64 72.801 256.504 71.468 256.367 70.135 255.892 68.852 255.078 67.62V67.62C254.089 66.122 252.865 65.047 251.406 64.393 249.951 63.745 248.504 63.469 247.062 63.564 245.625 63.664 244.445 64.019 243.522 64.629ZM251.19 103.102C250.577 101.444 250.478 99.96 250.892 98.649 251.309 97.344 252.045 96.018 253.1 94.671V94.671C253.309 94.399 253.473 94.241 253.594 94.197V94.197C253.764 94.134 253.938 94.145 254.113 94.231 254.291 94.324 254.417 94.468 254.489 94.664V94.664C254.545 94.816 254.534 94.96 254.455 95.097 254.379 95.241 254.193 95.478 253.899 95.81V95.81C251.998 98.06 251.482 100.361 252.353 102.715V102.715C252.865 104.101 253.636 105.096 254.665 105.701 255.686 106.302 256.706 106.414 257.724 106.037V106.037C258.439 105.773 258.953 105.324 259.265 104.69 259.584 104.054 259.765 103.347 259.808 102.569 259.86 101.795 259.874 100.764 259.852 99.478V99.478C259.808 97.998 259.828 96.779 259.912 95.82 259.996 94.861 260.261 93.982 260.707 93.185 261.159 92.384 261.891 91.797 262.904 91.423V91.423C263.77 91.102 264.671 91.01 265.606 91.146 266.539 91.276 267.422 91.679 268.255 92.357 269.082 93.036 269.733 94.018 270.208 95.303V95.303C270.886 97.138 270.947 98.827 270.388 100.372 269.834 101.907 268.779 102.963 267.222 103.538V103.538C266.9 103.658 266.666 103.697 266.522 103.657 266.382 103.608 266.275 103.486 266.203 103.29V103.29C266.046 102.866 266.189 102.572 266.632 102.408V102.408C268.119 101.858 269.02 100.95 269.335 99.682 269.654 98.406 269.558 97.075 269.045 95.69V95.69C268.416 93.988 267.544 92.961 266.429 92.611 265.314 92.261 264.298 92.256 263.38 92.595V92.595C262.64 92.869 262.105 93.337 261.774 93.998 261.435 94.656 261.229 95.394 261.157 96.212 261.077 97.025 261.053 98.088 261.085 99.4V99.4C261.092 100.857 261.052 102.044 260.967 102.96 260.89 103.881 260.636 104.73 260.204 105.508 259.773 106.286 259.102 106.844 258.19 107.181V107.181C257.324 107.501 256.435 107.56 255.526 107.357 254.625 107.158 253.788 106.694 253.016 105.966 252.236 105.24 251.628 104.285 251.19 103.102Z" fill="#ffffff" data-fill-palette-color="primary"></path><path d="M0.706 141.36C0.706 134.849 5.984 129.57 12.496 129.57 19.007 129.57 24.286 134.849 24.286 141.36 24.286 147.871 19.007 153.15 12.496 153.15 5.984 153.15 0.706 147.871 0.706 141.36ZM255.714 141.36C255.714 134.849 260.993 129.57 267.504 129.57 274.016 129.57 279.294 134.849 279.294 141.36 279.294 147.871 274.016 153.15 267.504 153.15 260.993 153.15 255.714 147.871 255.714 141.36Z" fill="#ffffff" data-fill-palette-color="primary"></path></g></svg></g></svg></g></svg></g></svg></g><defs></defs></svg><rect width="280" height="280" fill="none" stroke="none" visibility="hidden"></rect></g></svg></g></svg>